<mxfile host="65bd71144e">
    <diagram name="第 1 页" id="9L9tHAc5bVKZlz68mN5r">
        <mxGraphModel dx="1675" dy="495" grid="1" gridSize="10" guides="1" tooltips="1" connect="1" arrows="1" fold="1" page="1" pageScale="1" pageWidth="827" pageHeight="1169" math="0" shadow="0">
            <root>
                <mxCell id="0"/>
                <mxCell id="1" parent="0"/>
                <mxCell id="EEyRCthQiPtqDevyJBAa-1" value="" style="shape=image;verticalLabelPosition=bottom;labelBackgroundColor=default;verticalAlign=top;aspect=fixed;imageAspect=0;image=data:image/png,/9j/4AAQSkZJRgABAQAAAQABAAD/2wBDAAMCAgMCAgMDAwMEAwMEBQgFBQQEBQoHBwYIDAoMDAsKCwsNDhIQDQ4RDgsLEBYQERMUFRUVDA8XGBYUGBIUFRT/2wBDAQMEBAUEBQkFBQkUDQsNFBQUFBQUFBQUFBQUFBQUFBQUFBQUFBQUFBQUFBQUFBQUFBQUFBQUFBQUFBQUFBQUFBT/wAARCAMIBSADASIAAhEBAxEB/8QAHwAAAQUBAQEBAQEAAAAAAAAAAAECAwQFBgcICQoL/8QAtRAAAgEDAwIEAwUFBAQAAAF9AQIDAAQRBRIhMUEGE1FhByJxFDKBkaEII0KxwRVS0fAkM2JyggkKFhcYGRolJicoKSo0NTY3ODk6Q0RFRkdISUpTVFVWV1hZWmNkZWZnaGlqc3R1dnd4eXqDhIWGh4iJipKTlJWWl5iZmqKjpKWmp6ipqrKztLW2t7i5usLDxMXGx8jJytLT1NXW19jZ2uHi4+Tl5ufo6erx8vP09fb3+Pn6/8QAHwEAAwEBAQEBAQEBAQAAAAAAAAECAwQFBgcICQoL/8QAtREAAgECBAQDBAcFBAQAAQJ3AAECAxEEBSExBhJBUQdhcRMiMoEIFEKRobHBCSMzUvAVYnLRChYkNOEl8RcYGRomJygpKjU2Nzg5OkNERUZHSElKU1RVVldYWVpjZGVmZ2hpanN0dXZ3eHl6goOEhYaHiImKkpOUlZaXmJmaoqOkpaanqKmqsrO0tba3uLm6wsPExcbHyMnK0tPU1dbX2Nna4uPk5ebn6Onq8vP09fb3+Pn6/9oADAMBAAIRAxEAPwD9U6KKKACiiigAooooAKKKKACiiigAr4p/4K8xl/2Ob9gMhNbsGPt8zD+tfa1fGf8AwVuUN+xjrZPbVdPP/kYUAfhQUyTTSnFTAZbFfsF8If8Agkh8F/HHwn8F+JNS1Txguo6xollqFykOowLGsssCSPtBtyQMscAk8UAfjqVNJg1+2/8Aw5o+BRx/xNPGf/gzt/8A5Gpf+HM/wIx/yFPGn1/tO3/+R6APxHwaMGv25H/BGj4Ef9BPxn/4M7f/AOR6P+HNPwI/6CXjP/wZ2/8A8j0AfiNijFftz/w5p+BP/QS8Zf8Agzt//kej/hzT8Cf+gl4y/wDBnb//ACNQB+I2KMV+3P8Aw5p+BP8A0EvGX/gzt/8A5Go/4c1fAn/oI+Mf/BnB/wDI9AH4jYoxX7df8Oa/gR/0EPGP/gzg/wDkel/4c2fAj/n/APGH/gzg/wDkegD8RMUYr9u/+HNvwI/5/vF//gzh/wDkel/4c2/Aj/n+8X/+DOH/AOMUAfiHijFft5/w5t+BH/P74v8A/BnD/wDGKP8Ahzd8CP8An98Xf+DOH/4xQB+IeKMV+3n/AA5u+BH/AD++Lv8AwZw//GKP+HN3wI/5/PF3/gzh/wDjFAH4h4oxX7ef8ObvgR/z+eLv/BnD/wDGKP8Ahzd8CP8An88Xf+DOH/4xQB+IeKMV+3n/AA5u+BH/AD+eLv8AwZw//GKX/hzf8CP+fzxb/wCDOH/4xQB+IWDRg1+3v/Dm/wCBH/P54t/8GcP/AMYpP+HN/wACf+fzxb/4Mof/AIxQB+IeDRg1+3n/AA5u+BP/AD++Lf8AwZQ//GKP+HN3wJ/5/fFv/gyh/wDjFAH4h4NGDX7d/wDDm74Ff8/3i3/wZQ//ABij/hzd8Cv+f7xb/wCDKH/4xQB+ImDRg1+3f/Dm34Ff8/8A4t/8GMP/AMYpP+HNvwL/AOgh4t/8GMP/AMYoA/EXBowa/br/AIc2fAv/AKCHi3/wYw//ABik/wCHNnwM/wCgj4u/8GMH/wAYoGfiNg0YNftz/wAOa/gZ/wBBLxd/4MIP/jFJ/wAOa/gb/wBBPxd/4MIP/jFAj8R8GjBr9uP+HNfwO/6Cni7/AMGEH/xik/4c1/A//oK+Lv8AwPg/+MUAfiTtPpRtPpX7a/8ADmr4If8AQW8Xf+B9v/8AGKT/AIc1fBH/AKC/i7/wOt//AIxQB+Je0+lG01+2n/Dmn4Jf9Bjxd/4G2/8A8YpP+HNPwT/6DPi7/wADbf8A+MUAfiZtNG01+2f/AA5q+Cn/AEGvFv8A4GW//wAYo/4c1fBX/oNeLP8AwMt//jFAH4mbTRsNftn/AMOa/gr/ANBnxX/4Fwf/ABmj/hzZ8Fv+gz4q/wDAqD/4zQB+Juw0bDX7Zf8ADm34LD/mMeKv/AqD/wCNUf8ADm74L/8AQY8Uf+BUP/xqgD8Tdho8s1+2X/Dm74Mf9BfxP/4Ew/8Axql/4c3/AAY/6C3ib/wJi/8AjdAH4meWaPLNftn/AMOcPgx/0FfEv/gTF/8AG6P+HOPwZ/6CviP/AMCYv/jdAH4meW3pR5belftl/wAOcfg3/wBBXxF/4ERf/EUh/wCCOPwc/wCgr4h/8CI//iKAPxO8tvSjy29K/bD/AIc4/B3/AKCviH/v/H/8RR/w5y+D3/QV8Qf9/wCP/wCIoA/E/wAtvSjyz6V+2H/DnL4Pf9BTX/8Av/H/APEUf8Oc/g9/0FNf/wC/8f8A8TQB+J/lmjyzX7Yf8Oc/g9/0E9e/7/p/8TR/w50+D3/QS17/AL/p/wDE0Afif5Zo8s1+2P8Aw51+D3/QR17/AMCE/wDiaP8Ahzt8Hv8AoIa7/wCBCf8AxNAH4neWaPLNftl/w53+D3/P/rv/AIEL/wDE0f8ADnj4Pf8AP9rn/gQv/wATQB+JvlmjyzX7Zf8ADnj4Pf8AP9rn/gQv+FH/AA55+D3/AD/a5/4EL/hQB+JvlmjyzX7Zf8Oefg//AM/2uf8Af9f8KP8Ahzz8H/8An/1z/v8Ar/8AE0Afib5Zo8s1+2J/4I8/CD/oIa5/3/T/AOJo/wCHPPwh/wCghrn/AH+T/wCJoA/E7yzR5Zr9sR/wR6+EQ/5iGt/9/k/+Jpf+HPfwhH/L/rf/AH+T/wCJoA/E3yzR5Zr9sv8Ahz38Iv8An/1r/v8AL/8AE0f8Oe/hF/0ENa/7/J/8TQB+JvlmjyzX7Y/8OevhF/0ENa/7/J/8TR/w54+EP/QQ1v8ACdP/AImgD8TvLNHln0r9s/8Ahzx8H+9/rp/7eE/+JpR/wR4+Dn/P9rp/7eE/+JoA/Evy29KPLNftr/w54+Df/P7rv/gSn/xNH/Dnn4Nf8/uvf+BKf/E0AfiTsNGw1+2v/Dnf4Nf8/wBr/wD4Ep/8TR/w52+DP/P94g/8CU/+JoA/ErYaNpr9tR/wR1+DHe+8Q/8AgSn/AMRS/wDDnX4Lf8/3iL/wKj/+IoA/EnafSjafSv23/wCHOnwV733iP/wKj/8AiKX/AIc6/BP/AJ/vEn/gXH/8boA/EfafSk2n0r9uf+HOnwS/5/fEv/gZH/8AG6X/AIc6fBHve+Jv/A2P/wCN0AfiLg0YNft1/wAOc/gf/wA/nib/AMDY/wD43S/8Oc/gf/z+eJv/AANj/wDjdAH4iYNGDX7d/wDDnP4Hf8/fif8A8Do//jVL/wAOc/gd/wA/fif/AMD4/wD41QB+IeDRg1+3n/DnL4G/8/fif/wPj/8AjVH/AA5y+Bn/AD9+KP8AwYR//GqAPxDxRiv28/4c5fAz/n78Uf8Agwj/APjVL/w5y+Bf/P34p/8ABhF/8aoA/ELFGK/bz/hzj8C/+fvxT/4MIv8A41S/8OcfgX/z9+Kf/BjF/wDGqAPxCxRiv29/4c4/Ar/n88Vf+DGL/wCM0f8ADnH4Ff8AP34q/wDBjF/8ZoA/ELFGK/b3/hzj8Cv+fvxV/wCDGL/4zR/w5x+BX/P14q/8GMX/AMZoA/ELFGK/b3/hzj8Cv+frxV/4Mov/AIzS/wDDnH4E/wDP14q/8GUf/wAZoA/EHFGK/b7/AIc4/An/AJ+vFX/gyi/+M0f8OcfgR/z9eK//AAZRf/GaAPxBxRiv2+/4c4/Aj/n68V/+DOL/AOM0f8OcfgR/z9eK/wDwZxf/ABmgD8QcUYr9vv8Ahzj8CP8An68Wf+DOL/4zR/w5x+BH/P14s/8ABnF/8ZoA/EHFGK/b7/hzh8B/+frxb/4M4v8A4xR/w5w+A/8Az9+Lf/BnF/8AGKAPxBxRiv2+/wCHN/wH/wCfvxb/AODOL/4xR/w5w+A//P34t/8ABnF/8YoA/EHFGK/b7/hzh8B/+fvxb/4M4v8A4xR/w5v+A/8Az9+Lf/BnF/8AGKAPxBxRiv2+/wCHN/wH/wCfvxd/4M4f/jFJ/wAObvgP/wA/ni7/AMGcP/xigD8QsUYr9vP+HNvwH/5/fF//AIM4f/jFH/Dmz4D/APP94w/8GcP/AMYoA/EPFGK/bv8A4c1/Af8A5/8Axh/4M4P/AJHpP+HNfwI/6CHjH/wZwf8AyPQB+IuKMV+3X/Dmr4Ef9BDxj/4NIP8A5Ho/4c1fAj/oI+Mv/BnB/wDI9AH4i0V+3X/Dmr4Ef9BHxl/4M4P/AJHpD/wRo+BB/wCYl4zH/cTt/wD5HoA/EajFftx/w5o+BH/QT8Z/+DO3/wDkeg/8EZ/gQR/yFPGg+mp2/wD8j0AfiPg0uK/bj/hzR8CMH/iaeM/r/advx/5L1Gf+CMvwM37hrHjTbkHYdRtsfTi2BoA/EzZxX7D/APBEqMD4NfENscnX4xn/ALd0/wA/jX5GeI9LGh6/qenAlhZ3UtuGPUhWIz+lfrz/AMETMf8ACj/H3r/wkS/+k0dAH6M0UUUAFFFFABRRRQAUUUUAFFFFABRRRQAUUUUAFFFFABRRRQAUUUUAFFFFABRRRQAUUUUAFFFFABRRRQAUUUUAFfGX/BXBsfsZa176tp4/8jV9m18Yf8Fcf+TM9Y/7C+n/APo2gD8L1++PqK/pg/Z9AX4C/DYL90eGtNx9PssdfzPKfnH1Ff0w/s+Z/wCFCfDXPX/hGdM/9JY6AO/ooooAKKKKACiiigAooooAKKKKACiiigAooooAKKKKACiiigAooooAKKKKACiiigAooooAKKKKACiiigAooooAKKKKACiiigAooooAKKKKACiiigAooooAKKKKACiiigAooooAKKKKACiiigAooooAKKKKACiiigAooooAKKKKACiiigAooooAKKKKACiiigAooooAKKKKACiiigAooooAKKKKACiiigAooooAKKKKACiiigAooooAKKKKACiiigAooooAKKKKACiiigAooooAKKKKACiiigAooooAKKKKACiiigAooooAKKKKACiiigAooooAKKKKACiiigD+YP4nJ5fxI8Vp2XVrof8AkVq/WT/giap/4Uf4+PY+IwP/ACWir8m/iWMfEXxSD1GqXI/8itX6zf8ABE0/8WL8e/8AYyD/ANJoqAP0WooooAKKKKACiiigAooooAKKKKACiiigAooooAKKKKACiiigAooooAKKKKACiiigAooooAKKKKACiiigAooooAK+MP8Agrj/AMmZ6x/2F9P/APRtfZ9fGP8AwVw/5My1r/sLaf8A+jqAPwtT7w+v9a/ph/Z8OfgJ8NT6+GdM/wDSWOv5no/9Yv8AvD+df0vfs7Hd+z98Mj6+GNM/9JIqAPQqKKKACiiigAooooAKKKKACiiigAooooAKKKKACiiigAooooAKKKKACiiigAooooAKKKKACiiigAooooAKKKKACiiigAooooAKKKKACiiigAooooAKKKKACiiigAooooAKKKKACiiigAooooAKKKKACiiigAooooAKKKKACiiigAoqOaZYULOwVQMlj0A7k1514k/aH+H/AIRXfq/iO2sod4j890do8k4+8qkda5a2KoYZxjWmouWiu7X9DOVSMGlJ2uekZFGa5LXfiZoGg+Ej4mn1GJ9FMaSpdRHcrq5G0j65Fbdvrlrc6bFfpKrWbxeeJgfl2Yzuz6Y5rR16Sqex5lzJXt1t3GpxcnBPVGiWApI5klXcjBl6ZU5FcrbeNdK8XeD73VND1CO9tHglEdxEeAQGGfzFfOn7KnxP0Xwb8Or2XxP4lt7MXN88qPqN4FAGxBhdx6kgnA9c14eKz3CYWtQhKScat7Svpp/nscNXGwpV4UXtJPX0PrcEGlrH8M+KtG8X6eL7RNTtNVtDx51pMsi/mK2K9+FSFWKnTd0+qPQUlJXi7oKKKKsYUUUUAFFFFABRRRQAUUUUAFFFFABRRRQAUUUUAFFFFABRRRQAUUUUAFFFFABRRRQAUUUUAFFFFABRRRQAUUUUAFFFFABRRRQAUUUUAFFFFABRRRQAUUUUAFFFFABRRRQAUUUUAFFFFAH8wnxM/wCSj+K/+wrdf+jWr9Zf+CJv/JCvHv8A2Mn/ALbRV+TXxM/5KP4r/wCwrdf+jWr9ZP8Agiaf+LGePf8AsZB/6TRUAfovRRRQAUUUUAFFFFABRRRQAUUUUAFFFFABRRRQAUUUUAFFFFABRRRQAUUUUAFFFFABRRRQAUUUUAFFFFABRRRQAV8Zf8FcP+TMta/7C2n/APo6vs2vjH/grif+MM9Z/wCwvp//AKNoA/C6L/Wp/vD+df0t/s4nP7PXwvP/AFK2l/8ApJFX80kX+tT/AHh/Ov6Wf2b+f2d/hb/2Kul/+kkVAHo1FFFABRRRQAUUUUAFFFFABRRRQAUUUUAFFFFABRRRQAUUUUAFFFFABRRRQAUUUUAFFFFABRRRQAUUUUAFFFFABRRRQAUUUUAFFFFABRRRQAUUUUAFFFFABRRRQAUUUmaAFoqlqmsWeiWMt7qF1FZWcI3STzuERB6kngVn+F/HHh/xrbyz6DrNjrEUR2yNZTrLsPodp46Vm6sFNU3Jcz6dSHOKlyt69jdopAQaZJIEGScAda0LJKK5iy+I/hnUdV/sy01yxuL8kqLeOYFyR1AFdH5oFY0q1OunKlJSS00dyITjU+B3JKKjD5pwcE1sWOoppfFNaUJyxAHvQG2rJKKjWZX+6wb6Gng5pXvsG4tFFFMAooooA574gaPeeJPAviHSdOmS21C9sJ7e3ml+6kjRlVJ9gSK+QNEvdU+BdgIviF4ajvdLn2wT3Nmy3KZJwGKt/D6/Svsfxfa6teeF9Vg0G4htNaktpFsprgZjSXb8pYYPGcZ4r521X4QfFn4h6RHo3iYeHbG0JBkvYZpJpDjOf3e0A+uMgV8HxVgcTilh62Dp89SnJNbW873/ADPBzKjUqThUpJ80duxL+0BdWP8AwoOJ9OSE6RctaG0S2QJGI/vIFA4A2jpXfeFLxtM/Z7s55W+e38OAsDj732bpV/Vfgvp2r/CW18DSXMyw2tukUN8oHmJIo+WTB46849OK8l0/9n34rRaJP4fm8X6bDoYQxKI2di4P+yY/kGOwJpY6nmmHzKWOoYf2ntIKNk0uVpa38iKqxFHFOrGnzc0badyb9liB4/2fJLYP/qoLlWY85IVjz+Yrh/2OPhd4X8Z/DS51jWtJtdS1Ge+kjJvIUcxIqpgLkcZyc+te/wDwg+Elz8Mfh1deHbq/j1O6uXuJJJo0KIpkGAq55wB3x+FeX+Bv2a/iN8OdKnstC8S6PCZGJBPmMjDPUjZwcYFcCy7G4bC4JOhzuHNzLTTmdznVCvhoUJOlzaO67XGfs6xp4Y/aP+Ivh3TlEeioPMt4oxhEwIsqAOMAuQPpX1eOBXkXwS+BTfC671PV9T1Uazr+pH99OkexI1yWKrnk5PJJ9BwK9dFfUcP4avhMEoYiPLJtu3ZNnq5dRqUKNqis227dr9BaKKK+kPUCiiigAooooAKKKKACiiigAooooAKKKKACiiigAooooAKKKKACiiigAooooAKKKKACiiigAooooAKKKKACiiigAooooAKKKKACiiigAooooAKKKKACiiigAooooAKKKKACiiigAooooA/mD+JfPxG8Vf8AYVuv/RrV+sf/AARMP/FkPH4/6mNf/SaOvyc+Jf8AyUXxV/2Fbr/0a1frF/wRM/5In8QP+xiX/wBJo6SA/RqiiimAUUUUAFFFFABRRRQAUUUUAFFFFABRRRQAUUUUAFFFFABRRRQAUUUUAFFFFABRRRQAUUUUAFFFFABRRRQAV8X/APBXM4/Y01b31iw/9GV9oV8W/wDBXU4/Y21P31mw/wDRhoA/DKP/AFif7w/nX9LP7Nv/ACbt8Lf+xV0r/wBJIq/mmj/1qf7w/nX9LH7Nn/Juvws/7FXSv/SSKgD0eiiigAooooAKKKKACiiigAooooAKKKKACiiigAooooAKKKKACiiigAooooAKKKKACiiigAooooAKKKKACiiigAooooAKKKKACiiigAooooAKKKKACkzilqOR9pGelMdrlS+13T9M4u723tj1xLIF/nTNO8SaXq5K2OoW14w6rBKrn9DXzBrX7I2v+LPEV9qGu+MrqZLiZnCW4LMFJ+UZbgYGOAK8l+Mvwt1D9n7X9EvdG1683XJZ4pGAjlVkIyMr1GD+Wa+Ixuc5jgFKvWwv7pO1+bW3c+cxWY4vBr2lWh7l976n6DPJtqvPqNraqTcXMVuPWVwv864rwl49j1z4b6L4pvCIkl0pb64UnABCbn/ka+OI9T8R/H34h3Mb3TCS7LyRQtIwit4VOBwD16fUmu/Nc+pZdQozpwdSda3Klpv3OzH5lHB06bhHmlPZH1z8dY4fEHwX8XRQSpcQvYuyvC4YFlwRyPpXjH7BUaRaL4pKqAWlgJb1+Q8f59a47xJ8KfFHwbgbVv7VGoeHbiMwXiIGUxEnADKxOQc8EH8q7H9ieMWWjeK0iyQdQUDPp5aH+pr5iji8Tj+IcPDEUXSnGLdr3urM8Rynis2w8pw5JKLuj6s+0xxI8k0ixRryXchQPxNV4dSs7zPkXUFyuPm2SKwA/Ovj79rP4malqHiZvDNpcPFpGnxK9wImx50zDOCfYYGPesuL9ljxppnhtPEFpq1t9tS3+1LpkZcSH5dwQP0LdsYxmvYq8SVamLqYfAYd1FT+J3t9x6c81nPE1KGHpOShuw+Fqi0+PNpDGA6pqlxCrZ6gMwz+Qr6/8V+LtO8E6De63q85hsbRNzYGWY9lUdyTxXxJ8EL/AO2/FfwvNuKtJeByMYOWBJB/Ovsj4hfDLRPidpsdhr0U8lrFJ5qrbzNEd2OpIPNeRwfKu8vxc8PFe0dSVk9ruxy5FBxoVvZfE31PkLx7+07408eauyaTdzeGdFB2pDbY81hz8zP1zx0BFfQ/7Kmu6prXw0updV1OfVLhNRmRJrmRncRgLhSSSeufzrzT9oj4caF4C8KeHbXQrJLO3FzIjAnczDbkkseSenWu3/ZJKr8NdRK8L/asowO/ypWOT/2hS4lnh8bU5nyX021tsc2Dp4mGb8uInd2+R6v8QfHtl8OPB+oeIdSOYLRMiIH5pXJwqj6kivkBPHnxa+O+uTyaEk6RqcfZ7Wc21vAvbc5PJ49zx0ru/wBsrW31TU/B/g+N2Ecztf3Ww9VHyLn82P4VzqftQL8Pwvhb4d+C5NZ07SYwl1fFGaIPjLEhAScHOWJ659K0znG08xzKWCq1/Z0aSTla95N9NOwZjV+uYuVCcmqcN+XdnffB74VfEzw144sdS1u6tIdKRWF1Et+07zZXAGMY4Pc19KR9DXzv8Ff2qLT4heIk0PWNMi0a/uF/0WWKUtHM4GSmCAVPFfREZyOmK+tyKngKeFay6blC/Vtu/wA9T3ctWFVD/ZZOUfPcfRRRX0R6gUUUUAJjNGM0tFADSorzH42eLdR8GWXh+fTJVjlutWht5Cygho2zlTn6da9PPSvEf2nQzaR4PQZG/wAQ20fHvurxs5q1qOX1alB2kkrP5o48ZUnToSlB6/8ABPaUKyqrAdRmnhMe1NgXbGg9hUteynodcW2lcTFLRRQMKKKKACiiigAooooAKKKKACiiigAooooAKKKKACiiigAooooAKKKKACiiigAooooAKKKKACiiigAooooAKKKKACiiigAooooAKKKKACiiigAooooAKKKKACiiigAooooAKKKKACiiigAooooA/mC+JHPxD8U/9hS5/wDRrV+sX/BEv/kinxB/7GFf/SaOvyc+Ixz8QvE//YTuf/RrV+sf/BEv/kivxB/7GFP/AEmjoA/RuiiigAooooAKKKKACiiigAooooAKKKKACiiigAooooAKKKKACiiigAooooAKKKKACiiigAooooAKKKKACiiigAr4q/4K8HH7HGoe+tWH/obV9q18Uf8ABXs4/Y6vPfXLD/0J6APw4j/1qf7w/nX9K/7Nf/Junws/7FTSv/SOKv5p4v8AWJ/vD+df0r/s1f8AJufwr/7FTSv/AEjioA9IooooAKKKKACiiigAooooAKKKKACiiigAooooAKKKKACiiigAooooAKKKKACiiigAooooAKKKKACiiigAooooAKKKKACiiigAooooAKKKKACiiigArj/it42Pw78B6r4hSBbqa0QeVC5IDOzBVyR2yQfoDXXnpXKfEzwiPH3gTWNB3Ksl3AREXOF8wfMmTg4G4DJHPpzWGIVV0Zqj8Vnb16GNf2nspey+KzsfIPgq2+IP7RerarJe+O9V0eK22F47G4eKFdxOFWNCARhT19qwPjd8HJvhNJown1268QNqAmIkvcl027QcEu3HzDv1rpdA+Gvxy+HM2oWnhvRIoDeAI1z9pt5FbaCFYFidvGRyO4rU139mLxjH4PutZ1nWJvFPi1l86W1STeNx6pESBnA47DjjtX4tWweIq5VOjWw9SWJvdvdb+vY+IdKvistnSqQk6vW56R4MhuJP2V4VGZ5/+EcmiRE5JxG4H48V4R+zBq1tpvxftElkQR3NpNApPQt8pA+vy19X/BPwzfeGvhJ4a03V7Y21/b27Ry28pBZRvYgNgkZ2kZFfNXxA/Zp8XeC/F89x4OsbjUtJMxuLGeCVRJDk58tuQQVPAPQjHfp9Pm+FxX1bL8fSg5ypJcy2ey/U9XH0q0I4TFRi5clrrqe8/tBvbR/CXW4bl0VrkCKBHIBaTOQB+Rrzz9ihD/wjficZBb+0hk56fuY6ytG+BfxS+IFhq2peNrpLS7ggZNL06S4SVpHGSGbZ8qenUnnmuu/ZF+G/ijwLovimPxRpjaZJdaiJLdZJFdnVYwpPyk4GRx612UKmLx+fUcdOg6dPkaV7X672N3Ovi8yo13TcY2f9M+fvjdc/ZfHvib7VG3mjUZHKkc4D8H8gK+9rF7efT7a7WRDZeUJDNnCbcZzn0xXhH7S3wJ1Lxdd2niTwvYpe6gqGK/s/MCPOo5SRScDI5BGe49K838PfCH41+J9KtvD0txLoPhuNCj/b7tSqp0CBFBd/YNgAV4+XxxnDuYYmgqDqRqu8WreZz4ZVcsxlaCpuSnqmv1OX+C/lv8Y9AktsG3/tElG6bl3EAj8K+/JhyfevlDwn8APE3gr4u+HzbWn27RrOeKSXUQURCoQ7uM5yG4wB39K+sJsAnvzXt8HUMRh6OIjiIODdRuz80jryOjVo+1VWNnzHzt+10u7SvDiL/DLMxHrwo/rV39kQA/DnVQSMpq0g/OOI/wBa0f2kfBeseL7LRl0mxmv2g80vHDjIJ24zkjA4NW/2Z/Amt+CPAmp2viC1Fld3OpyXEcAlSQiPYijJUkZyp4zU08PiFxXPEOD5PZ2v06EQp1P7ZdRxdrbnkH7Yuny2vjbS9RK4im03yY5CM/MrsWA9eGHHvXqX7PFhpdn8J/DkmnRxkzWyyXMy43STHO/cR3BJHtXW/GP4SWPxd8ItpUs5sNRgcz2N8oz5MuMHcO6kcEfQ9QK+Y9G+G/xo+Fsc+m6fp881lMxybG4ilTPPzAMQVz68da4MTh6uRZxVzL2Lq0qi6Wum/UirTnl+NliVByjJdO5yvjArN+0bqMmjxhIxrMCw+XwDJiMSYx6uHP51+hFox+zw5JJ2jJP0r5b+An7MmtaL4ph8X+MZY4biCR5rbTEkEpMp/wCWkrAYyMnCqfTntX1LFjFepwtga+Hp1sRXjy+0ldR7I0yfCVKKq1qitzu6RPS0gIozX259ALRRRQAUUmaNw9aABiFUknAHc14j+0mzXVv4Fhh2s58UWbEE8bcPk17JqMCX9jc2rOUE0TRll6jIxkV8D+Mdd8V+CNUk8M6nfytNpdwHRt5Yqf4HRjyAwII+tfH8UZhPAYKyp8ynpft1/E8PN8WsJRXPG6bPv2GeKQhUkVm252g84qavn39l2LV/ETaz4w1a6nkS6VLG0jkclAqEl2UdOWwOg+6a9/Rge9fQZdinjcJTxLjy8yvY9HCV3iqEa3La/QfRSZozXoHWLRSUtABRRRQAUUUUAFFFFABRRRQAUUUUAFFFFABRRRQAUUUUAFFFFABRRRQAUUUUAFFFFABRRRQAUUUUAFFFFABRRRQAUUUUAFFFFABRRRQAUUUUAFFFFABRRRQAUUUUAFFFFABRRRQAUUUUAfzAfETn4geJv+wnc/8Ao1q/WP8A4Il/8kX+IX/YwJ/6TpX5N/EP/kf/ABL/ANhK4/8ARjV+sf8AwRK/5Ix8Qv8AsYE/9J0pAfo7RRRTAKKKKACiiigAooooAKKKKACiiigAooooAKKKKACiiigAooooAKKKKACiiigAooooAKKKKACiiigAooooAK+Jv+Cvxx+x5c++u2P83r7Zr4k/4LAf8mez/wDYesf/AGpQB+HcX+sT/eH86/pX/Zp/5Ny+Ff8A2Kmlf+kcVfzUR/61P94fzr+lf9moY/Zz+Ff/AGKmlf8ApJFQB6RRRRQAUUUUAFFFFABRRRQAUUUUAFFFFABRRRQAUUUUAFFFFABRRRQAUUUUAFFFFABRRRQAUUUUAFFFFABRRRQAUUUUAFFFFABRRRQAUUUUAFFFFACMa4bWfjT4C0HUZdP1HxZpdneRtteGa4VWU+hrtZDwa/OzxN4Xj8VfH3VdCeXyHv8AXJIBLjOwEk9PwFfLZ9mtfK40fq8FJ1Jcup4mZ5hUwHs/Zx5nJ2PssftAfDdshfGGmsOnEuQfxo/4Xn8OVO8+MNLA65FwprxaH9iRFB/4qZlz1H2XofY7qkH7EEJJJ8US/hbf/ZV5jx3EsX/u0fv/AOCZrF5ta/sF957R/wAL2+GzjP8Awmekn2+0r/jSD4+fDZP+Z00pfrcrXjH/AAw5Dkn/AISmYn3th/jR/wAMQQk/N4mkPt9mH+NT/aHEvXDR/r5i+uZv/wA+F/4Ee0N8dvhuct/wmmkfUXS/40jfHz4aYGfGekn6XK14x/wxBDjjxG//AH4/+vTf+GG4MkjxLJn/AK9x/jR/aHEi/wCYeP4/5ieMzf8A58L/AMCPaP8Ahf3w0U5/4TTSlPqZxT/+F8/DicYXxnpLf9vSj+teK/8ADD8IHHiN/wAbcf40J+xBGMD/AISRiO58j/69J4/iR/8AMNH+vmCxubP/AJh1/wCBHta/Hr4cQna3jTSV+t0v+NL/AML4+G55HjLSSPX7SteJP+w5C458SP8Ahb//AF6T/hh1F6eJDt7fuP8A69NZjxH0w0fx/wAxfXc2/wCgdf8AgR7b/wAL4+G/JHjbR14/5+l/xpU+Onw3YZTxpozc9rtP8a8R/wCGHUz83iHI/wCuHNC/sPRJyfEjZ7Yg/wDr1X9ocSW0w0fv/wCCN43NraUF957h/wAL0+HOcf8ACZaOp97tB/WkX46/DljgeN9E+hvU/wAa8SP7EUZP/IxsfrAKT/hiRFxjX8gdjD1qfr3EjXvYaP8AXzEsbmvXDr7z3J/jb8PcZPjHRyP9m8Q/yNC/Hf4dqMf8JhpI/wC3la8PH7FCgca/tPtBS/8ADFQB/wCQ9ke8NR/aHEq0+rR/r5kPG5v/ANA6+89v/wCF+fDtf+Zw0v8A7/ikPx/+HQ/5m/TD9JhXiQ/YpHH/ABPR/wB+acP2LAP+Y8P+/NV9f4k/6BY/f/wSfrubf9A6+89p/wCGgvh1/wBDdp3/AH8pD+0J8Of+ht0/8HP+FeNL+xiB/wAx3/yDTx+xmP8AoOD/AL80vr/Ev/QLH7/+CP65mq/5h1957Af2hPhyP+ZtsfwLH+lMb9ob4cd/Fln+T/4V5D/wxso664Mf9caU/scJtwutgt7xcU1juJ3r9Vj9/wDwSljc0/6B1956y/7QXw1IDHxdY/gWJ/ICvlr9ozxhonjb4mJqeg3qXtgthDA8yLtDyq0h53ezLzjtXpMn7G4yW/tiMnsDGcD9KrTfscFihj1xSRnKshwfTpXm5nHiTM8N9XnhopPs7v8AM5MbLM8bRdKVFJep6D8Kfi78N/C/w48P6UPFFhbyW1oiywuxDiUjdJkYz94muvHx9+HuBjxRZn8W/wAK8UH7GojXKaxEW9Wi/wDrVKv7IDd9YjB9ouK7oYziSlCNKGEjaKS3/wCCdSxWZwioRw6svM9mHx9+H3bxRZ/m3+FL/wAL8+H/AP0M9p/49/hXjQ/ZBlX7usxEe8dH/DIM4/5jEX/fs/4VX1/ib/oFj95P13Nv+gdfeey/8L8+H/8A0M9n/wCPf4Uv/C/Ph/8A9DRZfmf8K8Z/4ZCm76xH/wB+/wD61H/DIEh66wn/AH7/APrU/r3EvXDR+8n67m//AEDL7z2b/hffgD/oZ7L/AL6P+FL/AML68Af9DRY/99H/AArxj/hj9/8AoML/AN+qT/hjx/8AoMr/AN+qPr3Ev/QNH7/+CL67m/8A0DL7z2j/AIX14A/6Gix/76P+FH/C+vh//wBDRY/99n/CvFj+x2//AEGl/wC/VJ/wx23/AEGx/wB+qPr3En/QNH7/APgj+u5t/wBAy+89q/4X58P/APoabH/vs/4Uf8L8+H//AENNj/32f8K8V/4Y7b/oNj/v1Sf8MdN/0Gx/36p/XeJP+gaP3/8ABH9czb/oGX3ntf8Awvz4ff8AQ02P/fZ/wo/4X78Pv+hpsf8Avs/4V4p/wxy3/QbH/fuk/wCGOX/6DY/790fXeJP+gaP3/wDBD65m3/QOvvPbP+F+/D7/AKGmx/77P+FH/C/fh9/0NNj/AN9n/CvE/wDhjiT/AKDa/wDfuj/hjeT/AKDa/wDfun9d4k/6Bo/f/wAEPrua/wDQOvvPa/8Ahf3w+/6Gmx/77P8AhR/wv74ff9DTY/8AfZ/wrxP/AIY2k/6Da/8Afuj/AIY1f/oOD/v3S+u8Sf8AQNH7/wDgh9dzX/oHX3ntv/C/vh9/0NNj/wB9n/Cj/hf3w9/6Gqw/77P+FeJf8Mav/wBBwf8Afuj/AIY0f/oOj/v1S+vcSf8AQNH73/mP65mv/QOvvPbf+F/fD3/oa9P/AO/h/wAKT/hf/wAPP+hr0/8A7+H/AArxP/hjNv8AoO/+Q6P+GMj/ANB3/wAhUfXuJP8AoGj97/zD65mv/QOvvPbP+GgPh5/0Nmnf9/D/AIUn/DQPw7/6G3Tv+/h/wrxX/hjAn/mOn/v1Sj9i5e+vH/v1S+v8Sf8AQNH73/mH1zNf+gdfee0/8NBfDv8A6G3Tv+/h/wAKT/hoL4df9Dbp3/fw/wCFeMD9i2Pv4gf8IaT/AIYqi4z4hk/78/8A16X17iX/AKBo/f8A8Ef1zNf+gdfee0H9oH4djp4r08/SQn+lNb9oX4cRkbvF+mJ3+aYCvGG/YqTHHiFz/vRf/XrnPHn7Ja+FPC2ra0utB/sFs9wUMZIfaM4znj8qxqZlxHSg6k8PGy16/wCZMsZmsIubw6svM+q/CnxI8L+OZZotA12w1aSFQ8iWk6uyqTgEgds10tfG37EK+V408RbV/wBZp8ZJ9MPwP1NfZA6V9TkWYzzTAxxNRWbvt5HrZdipYzDxrTVm7i0UUV756QUUUUAFFFFABRRRQAUUUUAFFFFABRRRQAUUUUAFFFFABRRRQAUUUUAFFFFABRRRQAUUUUAfy/8AxC/5H7xJ/wBhK4/9GNX6x/8ABEr/AJIz8Q/+xgj/APSdK/Jv4g/8j74j/wCwjcf+jGr9Y/8AgiV/yRr4h/8AYfj/APSdKAP0eooooAKKKKACiiigAooooAKKKKACiiigAooooAKKKKACiiigAooooAKKKKACiiigAooooAKKKKACiiigAooooAK+I/8AgsB/yZ7N/wBh6x/9qV9uV8R/8Fgf+TPpv+w/Y/8AtSgD8O4/9Yv+8P51/S1+zcNv7O/wtHp4W0sf+SkVfzSR/wCtX/eH86/pe/Z0G39nz4Yj08L6YP8AyUioA9DooooAKKKKACiiigAooooAKKKKACiiigAooooAKKKKACiiigAooooAKKKKACiiigAooooAKKKKACiiigAooooAKKKKACiiigAooooAKKKKACiiigCJ+pr4KjjD/taxY5I8RknP+9X3pJ9+vg2FsftbRY4/4qJv/Qq+F4o0q4H/AK+L9D5vO3b2H+JH3l5YLE4p4jFC8mn193c+muxnlijyxT6KQrsZ5Yo8sU+igLjPLFHlin0UBcbsFJ5Yp9FAhnlijyxT6KAGeWvpR5Y9KfRQAzyx6UeWKfRQA0IKNgp1FADdg9KTyxT6KAI2jHpTPLBNYPj/AMaWnw/8K3+vXoLw2ibvKUgNIxICqPqSK8W0nUvi18T7ZNWs7+x0DTrkF7eHBJ254z8uTnrnPevEzDN4YCcaMYOpUlqox3t3fY5a2LjRagleXZH0K0YU5J/OuJ0HT/FkXxN1+61SazPhRoETTYYyfODYG4txjqD+dUfh/pfjnRReReK9Ws9XgYBrd7eMq6EdQx7is3wR471bWvjH4q0S8m36dZwI1tEABt+7nP8A31WNbMabWFlWjKEqkrKPW6T38hyrp+zUrpt7HqwUHpzTxDXknxw8dat4IXwzcabc+RDPqYiul2hvMj25K8jjvzWLqg+LPi/UHvdH1nT9D0dkXyI3hMrvx1PTHNTi8+pYbGSy+FOU6qSlZLdPzFPGRjUdNJto92EeO1OCCvBPh98RfFnh74mDwf4yvLa++1QCSC4jjEZVucAY6g4b8q98XkV3ZdmdPM6cp0004uzT3TRVDERxEbrRroGwe1J5Yp9FeqdAzyl9BR5S+gp9FADPKX0FHlL6Cn0UAM8pfQUeUvoKfRQAzyl9BR5S+gp9FADPKX0FHlL6Cn0UAM8pfQUeUvoKfRQAzyl9BR5S+gp9FA7jPKX0FHlr6U+igQzy19KXy19KdRQA3YPSjYPSnUUARPGMVwXxugDfCDxgOmdMnGf+AmvQH6Vw3xo/5JN4s/7Bs3/oJrix8rYOs/7svyZjiJNYefo/yPnX9ibH/Cb+JsZ4sYcZ/wB9q+xB0r46/YlGPHHiT30+H/0M19irXy3By/4SKfq/zPHyP/cY/P8AMWiiivtj3gooooAKKKKACiiigAooooAKKKKACiiigAooooAKKKKACiiigAooooAKKKKACiiigAooooA/l++IH/I+eI/+wjcf+jGr9Y/+CJX/ACRv4h/9h+P/ANJ0r8m/iB/yPfiP/sI3H/oxq/WP/giV/wAkb+In/Yfj/wDSdaAP0fooooAKKKKACiiigAooooAKKKKACiiigAooooAKKKKACiiigAooooAKKKKACiiigAooooAKKKKACiiigAooooAK+I/+CwIz+x9N7a/Y/wDtSvtyviT/AIK/jP7Hlx/2HrH/ANqUAfhyn+sX/eH86/pg/Z5G34A/DMenhnTP/SWOv5n0/wBYv+8K/pj/AGf8D4DfDfHI/wCEa03/ANJY6AO+oor4G8V/Gz9sv4p+NtXi+G/w1sPAHhGyuJbe0u/FkaR3N4FYKJCszBsMDvXbHtA4Lt3APvmivgL4N/tl/GT4ZfH7w98HP2jfDmn2174kdI9H8SaYESOV3Zkj3eWxRw8m2PChGRmBYEEY+/etABRRRQAUUUUAFFFFABRRRQAUUUUAFFFFABRRRQAUUUUAFFFFABRRRQAUUUUAFFFFABRRRQAUUUUAFFFFABRRRQAUUUUAFFFFABRRRQBDJ96vgqLj9rGH28Rt/wCh196yfer4JQ/8ZWxn/qYz/wCjK+E4p0q4H/r4v0Pmc8/5c/4kffK9TT6YvWn1931PpgooooAKKKKACiiigAooooAKKKKACiiigAooooAKKKKACiiigDwL9rqRpfCWj2GC0NzfBpAO4VTj9TXrfhqxt7Hw1pNvbAeTFaxomPQKAK5j47/D+88d+DGXS8Nq1lILm3iY4E2B80eexI6e+K86+Hfx8svDuiw6J4jgubS8sl8tWePbhBwFYHkEdPwr42eJhlmb1a+L0hUjFRlZu1t1+p4vtFhsZKdVaSWjPfGhzkngYNeJ/DiPP7RHjSTJ2m3YY9cGMf0r0HwJ8UtI+IZvv7J8x1tWVXZhwSc4x+Rrzz4cfJ8efFq4YsyOC2OByhxU5tiYYnEZbVpaxdR62/us3xdWM6tGUdVcT9puAXuneF4cna2pdB1PGP617Xp9qkOn2kaqBtiUYA9q8g+PyAan4KiZC4k1DC4GfnyMf1r2i1X91H7KP5V2YKP/AAt4yo10gl9zDDtvGVW12Pnn4vxm3+PXhK4TIJigUkDv5zD+RNfR8PMa/Svn34wKW+MfheIg7tsJQgdcSk19BQjbGoPYYrHJ+b+0cfdWXOrfcZ4Vt4ms7dSSiiivrj1wooooAKKKKACiiigAooooAKKKKACiiigAooooAKKKKACiiigAooooAa3SuF+NHPwm8V/9g+b/ANBNd03SuG+M/wDySjxX/wBg+X/0E15+Zf7jX/wy/JmGJ/3efo/yPnT9irjx14iH/UPi/wDQ6+xFr46/Ys/5H/xAPXT4/wD0MV9irXzPB3/Iop+rPIyP/cY/P8x1FFFfbHvBRRRQAUUUUAFFFFABRRRQAUUUUAFFFFABRRRQAUUUUAFFFFABRRRQAUUUUAFFFFABRRRQB/L94/8A+R68Rf8AYRn/APRjV+sX/BEr/kjnxE/7D8f/AKTrX5O+P/8AkefEX/YQn/8ARjV+sX/BEr/kjvxE/wCw9F/6TrSA/R+iiimAUUUUAFFFFABRRRQAUUUUAFFFFABRRRQAUUUUAFFFFABRRRQAUUUUAFFFFABRRRQAUUUUAFFZfibxJp3g/wAPaprusXcen6TpdrLe3l3LnZDDGpd3OOcBQTx6V4f+zB+298P/ANrLVdf07wfb6xaXejRRzzR6tbJEJI3YqHQpI+Rkcg4IyOPQA+hKKKKACviX/gr9/wAmd3P/AGHbH+b19tV8R/8ABYFsfsezD11+xH/oygD8Ok/1i/Wv6Y/2fhj4C/DYEYP/AAjWm8f9usdfzOKcOD6Gv6ZPgF/yQn4cZ6/8I3pv/pLHQB1fiPxHpnhDQNR1vWr6DTNJ06B7q7vLlwkcMSAszsewAFfHf/Dyaz+Imuz2XwY+EHjL4uW9pKIbnVbSA2NpGSCUO90YqGAz+8EZ9q9R/b/+H2vfFD9kP4i+H/DdvJeatLaw3UdpF9+dYLiKd0UdSxWJsAck4Hevnb9hr9tT4EfDn9mnQPDGq6xa+ANc0CExatp13BK0l3cZJa6Qqh8wyYzt+8h+TG1VLIaPnH9u/wCLPxX8d/Ez4Lap47+GLfCu7sL+4bRw2pLdzXT+fbFnO3GwIRF6Elic9AP2cr8Sv2qv2hLv9rT9oD4Y+JdP8Laponw+0zWbbR9M1HUEby9QeS7VnkztCqzIiZiDMVCAk/Nhf21pgwooooEFFFFABRRRQAUUVxmjfGXwRr/inUvDVn4n04+ItOnNvdaTPMIbuN8A/wCqfa7AgghgCCCMGgDs6KTPOO9LQAUUUUAFFFFABRRRQAUUUUAFFFFABRRRQAUUUUAFFFIaAMXX/GWj+GGtl1O/is2uTthWQ8ufYVdTWrFoBN9rhERGQ5cAYrzLxtAl58a/AqSqGWOzvHUH+9hQK7bX/Ddhf2N2JIUjlKM3nLGueBnnjmvFeJxUpYj2UU/Zu0VtfRPV/M41VqSlUSXwm3BqEF3GkkEqTRP9142BU/iK5rWPi14Q8P3Hkal4j0+zk3bf30wUZzjGemc1jfCeK4PwqsY4dn2tbeVIsn5S25wuf0rm/D3i/SPC2kLb6to9zpkmP3yy2D7WbOCxbGDk+9cNfN3To4aq7RVT4m7tL7v1FPEWhCSVr7ntEU8c8SSRuJI3AZWU5BB6EGqupa1ZaRCJby5jgQnALsBk1m2+ozXWnadc6U1rPaSqsgMhZQ0RHBQj2x1H5VyV1paeK/G9zdX25rewt1gitf4N7FiXwe+BivVxeJqU4RhQSdSfw9n3d+1jWrUcUlBXb2O7fxBZR2T3jTA2qqWMigsMfhTNA8Tab4ntXuNNuRcxK2xiAQQfQg1xujSS6P411TQU3y2E9gl/AG5WFtzo6fQ4BH4034UQJY6n4pto1CpHfkgL7qDXM8ZXWIw9NxSU+ZPyaXTy0MZVqkKlOEl8W/qek0UinIpa9w7gooooAglPz18Doc/tVA9h4kP/AKMr72l+/XwPAc/tTFR28SE/+RK+D4supYJ/9PF+h85niuqPqffy0+mL2p2a+8Po0LRSZFIXAIHrQA6iucu/iF4csLme3uNasop4DiSN5lDIfcVp6Rr1hr9n9q067hvLfcU8yFwwyOo471y0sXh603TpVE5LdJq5CnFvlT1NCiq13qVrp8DTXVxFbRLyzyuFA/E1HpWtWOu2a3enXcN9asSBNbyB0JBweRxXRzxUuS+vYfMr8t9S7RTHlVBknAxkk1zc3xI8MQ7i2u2GAcE/aF4P51hXxNDDJOvNRv3dhSnGHxOx09FczafEjwze3cVrBrdnJcSkLHGJRlj6D1rpQc06OIo4hc1GakvJ3CM4T+B3FooqnqGrWelWkl1e3UNnbJ96Wdwij6k1u2opyb0RTdldlyiuW0z4oeFdZu0tbPX9OuJ3wEjjuUYsfbB5ro5bhIo5JJGEccYLMzHAAHUmsKOJo4iDnRmpJdU7kwnGorxdyaiua/4WL4bXJbW7FVH8RnXH866KGZLiJJI2DxuAyspyCPUUqOJo4hXozUvRijUhPSLuPooorpNBCM1n6l4c0rWGU6hplnfFehubdJMfmDWjRSaT0aE0paNFSHTLe0hWC3gjt4F+7FCgRR+Aoi0y2hnkmjtoY5pPvyIgDP8AUjrVuiiydtNhkEtnDNsMkUchQ5UuoO0+o9KkEYHSn0U+twK8lhbSzJM8ETzJ92RkBZfoanAxS0UrJCsFFFFMYUUUUAFFFFABRRRQAUUUUAFFFFABRRRQAUUUUAFFFFABRRRQAUUUUANbpXD/ABlGfhT4q/7B83/oJruG6VxHxlH/ABavxV/2D5v/AEE152Zf7jW/wy/JmGJ/3efo/wAj5x/Yt/5KDr3/AGDk/wDQxX2Kvevjn9i0/wDFwde/7By/+hrX2MlfNcG/8ien6s8fIv8AcY+r/MdRRRX2x74UUUUAFFFFABRRRQAUUUUAFFFFABRRRQAUUUUAFFFFABRRRQAUUUUAFFFFABRRRQAUUUUAfy/ePufHPiH/ALCE/wD6Mav1i/4Ilf8AJHfiJ/2Hov8A0nWvyd8e/wDI8+If+whP/wCjGr9Yv+CJX/JHfiJ/2Hov/SdaSA/R+iiimAUUUUAFFFFABRRRQAUUUUAFFFFABRRRQAUUUUAFFFFABRRRQAUUUUAFFFRXLSLbyGIbpNp2j37UAS0V+HV38Kf25FLzLH8TzEznHl6/MSf+A+fnHTqKZ/wq/wDbqkGPK+KPPrr0q/8AtYUAfuRRX4cS/Cn9ulLcytF8UNmeQviCVm/758/NZHiDwn+2p4a0a+1XVpPilY6Zp1u93c3c2tXIjhiRSzux87oACT7CgD7f/wCCvf7QA8A/Byx+HGl3ITW/GDlrxUb54tPiZS2QDkeZJsQdiqyj1rX/AOCSf7P0/wALfgJP431a38nWvHDx3kSPHteKwj3C3/773PKPVZE9K/I7wv4K+Jn7Snju7/sbTdb+IXiVojdXUhd7mbywwXfJI7H5cso+Y9xX0BD8Lf23NKtra0t7L4qW9vaRx2sENtqtykcUca7URAku0KAMDHFAz92aK/Cg/D79uaUAGP4vMD/e1u9H5/vqD8L/ANuNhk2/xWIPrrl2f/a1Aj916+H/APgsLMsf7IO0kAyeIbFVHqdsp/kDXwd/wqv9uSNWkNv8VAF67dduSfyE+TXmPx68F/tJaF4Kt7v4tweOf+EWN6iwnxHfT3FstyVfZ8ryMFbbvAJHr60AfP6j5ulf0x/APzf+FFfDnzsCb/hHNO34/vfZo81/M4py1fW/g3wN+2PL4P0Wbw7D8Uj4cnsoptOSy1W7S3+zsgaMxosoCqVIIGBxjigD96K8z8Zfs0fCn4heKofEniT4f+H9Z1yIhjeXdijNNgEASjGJQM8CQMBxjoK/G5/A37bcTbha/F8E/wBzUdQP8paePCv7cKKuIfjDjoB9tv8A/wCOUAfuLeeFNE1HTbLT7rR7C5sLF45LS1ltkaK3aP8A1bRqRhSvYgDHatWvwmbwT+2/IhVoPi6w7htQvv8A45UR+G37bDk5sPiuc886le//AB2gD93qK/B9fhZ+2qx/5B3xU/4FqV5/WWpV+FP7a/8A0Dfij/4M7r/45QB+7dFfhQvwo/bZ7ab8Tvx1S4/+OU8fCj9tvtp3xMH/AHFZv/jlAH7qUV+GC/CP9uBzxp/xJ/HWJB/OarKfCH9uYDK2XxGHb/kOsP8A2vQB+41fHv7ev7B+l/tNaDL4o8Nxx6X8S9Ot2FvPHtjTVFUDbBO2OGABCSfwlsHK9Pz7Pws/bljPNp8Swc5+XWHb/wBrVTvvAv7btuA0sPxWV4cMrJf3LY+hVyD9M0Aeb+Bv2uvj7+zHfXXhfT/Fms6JJYztFcaJrkIult3H3k8q4V/LPqE2n65r6v8AhV/wWr1+whjt/iJ4Es9YxhTfeH5mtHPu0UhdWP0dB7V8H/Hn/hZbfEK5HxZOr/8ACZLbwrONe/4+xEF/d7s8429M9q86FAH71fCr/gqJ8BfiascV14in8F37HH2bxJB5Cjrz56F4gOOpcY719L+GPiB4X8bQGbw74j0nX4QNxk0u+iuVA9cox4r+YBSykEZGO4r1b4J/C74veItc03xD8NPC/ifUbuyuVlt9W0S2m2RSqwIzMuEXBHOWHvQB/SPnNFfEX7ONl+11/Yjp8R5Ftdiotv8Aap7KSZhz/rDHvOcYySc5HuTXuKwfFxFA327+paWM/wDtMV4mIzKVCo4ewlLzS0OCpi1Tly8kn6I9syfSjJ9K8WWL4td/sp+sqf8AxuneX8Wf+nMf9tE/+Irl/tmf/QLU+5f5mX1//p3L7j2fJ9KCT6V4x5fxY9bT/vtP/iKQxfFn1tP++0/+Ipf21Nf8wtT7l/mL+0P+nUvuPZ8n0oyfSvFzF8WfW1/77T/4im+T8Wv79r/32n/xFL+25f8AQLU+5f5i/tD/AKdS+49qyfSjJ9K8VMHxa/56W3/faf8AxFJ9n+LX/PW2/wC+k/8AiKX9uS/6Ban3f8EP7Q/6dS+49ryfSjJ9K8T+y/Fo9Z4B9GT/AOIo+x/Fo/8ALxB/30n/AMRS/t1/9AtT7v8Agh/aH/TqX3HtmT6U0lsjj8a8U+xfF0dLq1H1Kf8AxFO+x/F5Rxd2h9wE/wDiar+25Wv9Vqfcv8y446//AC7l9xrePJorL4yeBXc7TJb3aIc9WAXj/wAer0e9ie6tLqNE3GWJkAzjORjrXgXiP4efEXxXe2V3qAtXvLLJtplmCeUTjLKAvBOOtacelfGCDCrcQuF4DCeMZ/8AIVebhszxFOtWnPCT5Zu62vsk9Pkc1LE1IVajlTdmd/8AC7SdT0PwDpFnrMAt9TEZNxErZCsWJwD+NVPEviy81yx1HRLHwzqj3Uyvbi4vYljtgCCvmB9xyB1x1PpXJRWXxaTO6VGLY5eaNsf+OU+TTviwfuXFpHn+I7D/AOy0p5lN4dYSlhqkYrTWKd1/wTf61pyRg7eh6D4X0oeFfC2i6OrPc/YbWK18x/vNtULk1m+IY9X0vXodX0nT/wC0raWFoby0EyxsGBBR1zweN4I47Vw76R8XnIDXlu6+vmIv8kp0uh/F75WTVLJUHbYrD8RtFaVM1nOmqMcHUXLbldlpYmWJ5koezeh6D4f0fUm1jUdY1YJFdXsccMNrFyLWBMnazfxMWZiT9B2rO+GF0lxqviuSMfIdRZVbOd2AFP6ivGtf8TfE6bxjb+DTrNul9cw+b+7TyspgkkMOR90itzwv4C+JvhW1kjsWsgsjbnK3G7c3c/Mlef8A2vWr4ijPD4abjSclLa92vUwniZVakJU6bai3c+jF3emKdzXhken/ABYGQ/lg+q3KEf8AoGad/ZnxZIISSPOON1wv/wARXsPiGd7fU6n3L/M6vr0m7eyl9x7izY68VxHij4v6F4K8QrpWumbTlkjEkN66boJAeCMrkgg8YIrhm0f4zun7rVdMtPeZPNP4YA5+oNeR/HOx8V2Wmwy+MdW0+6ukB8oWsXlMq5GS3POTiuLNOIq2FwrrUqEoyTXxKy/MzxeMqUqPtIRs/M+sNN8TaXrqxzabf219Gw3boZA3HqfSvhywJb9qhht3t/wkjjI9PM6/lXGeHbHxPrOo2914e0fVLuQPuS5tIJduBnJ8xfy681tfD9b+D466OL9TDqCavGk6MMENuAYH3r5XMM9qZtDCe0oOD9onfdPVbHg4zHzxUKSnDld18z9FlPH6Vk+IvF2jeE7UXGr6lbafEc4M8gXP0z1rUH3ciuN8XfDjQPGer2epaxp0d/cWkZiijnO6IAnJyh4J+tfrmK9uqEnhkufpfb5n2c1U9nektShbftA+Abm6FuviSzDnGGLHZk9t2MfrXdtcRzIrI4ZXAKupyGHqD6V4x8Vvh74Pt/h54jW3tNO0+8isZJUS32B1ZQSh2jn7wFWv2atal1f4L+H2ncvNAskBJYnhXYKOfbFeBgMwxccw/s/GcrbjzKUfxVtTz8PiK6xDoYhLVXTX6nn+g+B9K8afHfx3Y6raJcwGV5dhyORsGc9uua+hvCfhPTPBWh22k6NYR2FhEWZYYumSckknkknua8e+HxC/tIeNQDkYY/mIzX0AuCledwth6ChiMQoL2ntaib62uVgoQTnK2t2fPHxK8OeK/iTHqdxqgfw/oNhG8kdnKwYybA2XYA9CBnk10f7KcItfhRawqcgTzNn6ua7r4loo8AeJHb/oHzqCfUoRXGfsyKE+HShRgC4lGP8AgVZUsCsJxBTk6jnOcJN37XVvRI5pUY0sdCSldtO56L4tujY+GdWuR1gsppPyQmvnX4HfCLQvHfg2HUtetTdTmV1ADFc4YjPBr6G8aWd1qng7W7Wyj828ns5o4Y8hd7FCAMnjmvnzwbofxi8DeGYtO03QbRY0LNmS4R5QSxJ6nb396vP6d8wwlWrQlUpwU721s3a1xY6mp4qnKpByikz1nSvgT4O0nVLTUbfSlF1aNviaRmbY3qMmu7utQi062kuLmQRwxjLM3AArwTR/2gPEPhHWYNP+IOlrZwTkIt1HEY2Q5xkjkEe4x+PSvb9a0yy8V6HPp9zmawvYcF4m6qRwQf1r1MqxGCr0aqyyChUW8WrNPpfyOvCyoSpzWEjZ9ttfMXRvFWneIbU3GnXKXUauY28s5ww6g14Z4xsh8ZvjHL4XvWMvhzQ4PNkgUkLLMcA7sem79K9Y8I+BrHwJYtY6c0rws5c+ccn864H4J2yv4/8AHN44zK1yy5PYeY4x+QFeXmP1zFUsBgsYlGVWX7xR2ainK1+ztqZV/azjSo1VZy3+QvjD9nnQrnwnfnRdPj03Vo4S9u9uNuWXkA+vTvVn4JeLpPil8KG0/WozNeW4NhfAkguAOG9eVIz7g164cfL7nFeB/s3SeR46+I1mvESXu4L6De+K1rYWllmb4V4SKjGrzKSWz5VdO3cboQwuIg6eilo0YX7QXwp0Lwh8PpdS0e1a3kS4iRlaVm3Kz4I5P+cV9DeA2L+DdCY8ZsYTgdvkFeWftVMIvhLck9Bd2/8A6Mr1XwNx4P0QelnF/wCgCpy/DUcJn+Jp0I8sXCL+bepNGlTo42oqatdI3qKKK+4PWCiiigAooooAKKKKACiiigAooooAKKKKACiiigAooooAKKKKACiiigAooooAKKKKACiiigAooooAKKKKAGt0riPjL/ySvxV/2Dpv/QDXbt0riPjOcfCnxX/2Dpv/AEA152Zf7lW/wy/IwxH8Cfo/yPm/9iz/AJKBr/8A2Dk/9DFfYyV8c/sV/wDI/wDiD/sHJ/6GK+xkr5rg3/kUQ9WePkP+4R9X+Y+iiivtj3wooooAKKKKACiiigAooooAKKKKACiiigAooooAKKKKACiiigAooooAKKKKACiiigAooooA/l98e/8AI8eIP+whP/6Mav1j/wCCJX/JHfiJ/wBh6L/0nWvyc8ef8jx4g/7CE/8A6Mav1j/4Ilf8kd+In/Yei/8ASdaSA/R+iiimAUUUUAFFFFABRRRQAUUUUAFFFFABRRRQAUUUUAFFFFABRRRQAUUUUAFFFFABRRRQAV+cP/BYX9o9vCHgbSfhJpE4j1TxIov9WZD80dgj4SP1HmyKc4P3YWB4av0er86v2pP+CaXiz9oX9q1vHl34s05fA2pyWyX1sfMW+tIIoURool2lG3lGw25dpkyQcEEA3/8AgkT8AD8Pfghe/ELU0J1rxpIGgR1wYbGF3WL8XYu+e6+X6V96ED0qjpGn2ehaVZadYW8dnYWcKW9vbxDakUaKFRFHYAAAfSrNze29mitcTx26sdqmVwoJ9OaAJgB6UtNDBsYIIIyMU6gAr4a/4LFO6fsiwhDgN4kslfHcbJj/ADAr7lr4c/4LEj/jERP+xjsf/QJqAPxBj/1qntmv6XP2eIhH+z98MowCAvhjTB+VrGK/mhB5r+mn4DDHwO+HY/6lzTv/AEmjoA7dE2mn0UUAFFFFABRRRQAUUUUAFFFFACH3r4b/AG+v2/F+Bv2j4cfDtRq3xPvIgssyR+amjq6go2zaRLOwIKx8gAhmBGFb7kIyKw9G8CeHfD2r6hq2maFp1hquoyebeX1vaok9y+MbpHA3MfqaAPwX8AfsE/tDfHXW5L9/Ber2QvZfOutb8VubIOzkkyt52JZSepKK55r7E+GH/BE3ToPKn+InxGubslf3mn+GbRYQre1xNvLD/tktfqBjFLQB4D8Nf2DPgL8KlibSPhtpF5doF/03W0OozFhj5wZy4RsjPyBfbFe9rGiIqKoVFGFUDAA9qfRQA3aKNtOooAbto2U6incdxuyjZ706ii4DdlJ5Y/yKfRRcLjPLH+RR5Y/yKfRRcLjPLFHlin0UXC4zyx/kUbBT6KLhcjMI/wAijyh/kVJRRdhdkflCgwqe1SUUXYXZGIgOmKY8eGGKnpD1FO4J2PAvElso/at8Ny4PyaYY29DlZOte7+QueBXhvig/8ZU+HBz/AMg05/KWveFr57KZP2mK/wCvj/JHl4KbdSt/iIvs49qXyfepaK+guz1eZkflc1yfiD4TeE/FmtDVdb0W31W8CCMG6y6ADp8hO39K7Cis6lOFVctRJrzIklNWkrmdbaZa6fbxWlpbRWtpEAqQwIERR6ADgV8KxMB+1OSg+X/hJHXBPpJjP6V97uMA+tfAaj/jKAHu3ic/+jjXwvFb5Xgox/5+I+ezlpRpJLqffCcIK+Z57vWvi98aNc0LUtZvbDw3pMjqbOxnaAyhSFA3IQTk8n244r6YQYz3rx7x58C9R1Dxu3i/wh4gXw/q0se25t54t8E7DjdxypI4PBz1617Gf4XE4inSlh05KEk5RTs5R7f8OenioVZwj7Ppv5lTxl8LPBnhPwRr2rWulk3kVnIFlnnkmkb5eB87HvUH7Li7vhNaIoKgXM3/AKGTVhvgT4r8U2jReMPHTXKFTsttMso441PuSMsPrXc/DT4eR/DfwnBoMd4+oCKSSQ3UqBGcsxblRwOuK87B4DETzuOP9h7KnGDS1TbfmkZQoVJYmNe1kk0eZ+AZhJ+0l4yA/uH9BGDX0Ch+UCvm/wCG90g/aQ8Wknap88ZJ4Pzxj+hr6OQ5HHNVwq4/V8Qr6+1n+YZfNTjN36s5n4o8/DvXgO9q4/SuR/ZuAXwEVzyLmXP/AH1/hXfeMtBl8TeFdU0uGRYZrqBo0kboGI4zWD8IfAt74A8Jpp2oTxXF35jO7wZ28njqK7KuDryz2li0vcVNxv5tphUpVHjIVEvdSep24xzTWwTkHn1BrL8WaRc654bv7CzuzYXk8ZWG4x9xuxPtXjMfgj4uaUht7TU7W5wcLPLdMVI+jKTXpY3G4jCzSpYd1IvqmtPkzpr4idGSUYOSfYf+1lNZjwXp9rIVk1GS7DwknlFCksfp0H4ivUPh1DPYfD7w3bXeVuI9PhDhxgr8g4P0rzjwn+z3fT+I4fEPjXWW1q9hIkjslYtAHHIJyBnb2AAHFer+K9IvNY8MapZafMltqE8DJBK/3VfHyk47Zrxctw2MeKxOa4mnyymkowvraPVva7Zz0YVPa1MTKNm1oi/FJHcHdGyyKTjKnI968N+HGoReE/jL4o0S8cRSXrl4hIcHO4uoH1DN+Vd58H/Buv8AgzwvLZeIbyC8vXuGkU2rsyKpA4ywHfJ6d6j+KXwjj8ffZtRsboaX4itF2Q3oBw6ZyEfHPB5BHIyfWtsVRxmNoYfHRhy1qbvyPqno1f0HWjVrU4V4q0o9DstR1G30vTZ72Z1SOFSzFjjPtXjf7Ntg8h8T648e06jeHD9mAJPHt81N/wCFMfEDxPDHpviTxZBFpKffexLtcSf7JJUAfXJr2Pw54ZsfCujWul2EQitLZdiDv9T6k5yTU06eMzDM6WLr0vZ06SlZNptylp06JXJXtsTVhUnHlUTyP9rXj4P3XtdW5/8AIgr1XwI2/wAGaE3rYwn/AMcFeVftaToPhk0C4eR7uAbR6Bsn9BXqXw+GPA3h4DoLCAf+OCowjjLP8S09oR/NipS5sbUt2R0dFFFfXnqhRRRQAUUUUAFFFFABRRRQAUUUUAFFFFABRRRQAUUUUAFFFFABRRRQAUUUUAFFFFABRRRQAUUUUAFFJmjIoAR+lcL8amx8JvFvP/MNm/8AQTXcueK4L41n/i0ni7/sHTf+g1w5gr4Ot/hl+TMq6/cT9H+R86/sVf8AI/8AiD205P8A0MV9jpXxz+xT/wAj74gP/UOj/wDQxX2MlfLcG/8AIoh6s8bI1/sMfV/mPopCcUA5r7c94WikzQCDQAtFFJmgBaKKKACiiigAooooAKKKKACiiigAooooAKKKKACiiigAooooAKKKKACiiigD+X3x3/yO/iD/AK/5/wD0Ya/WP/giV/yR74if9h6L/wBJ1r8nPHf/ACO2v/8AX/N/6MNfrH/wRK/5I98RP+w9F/6TrSA/R+iiimAUUUUAFFFFABRRRQAUUUUAFFFFABRRRQAUUUUAFFFFABRRRQAUUUUAFFFFABSMCVIBwfWlooA+Kn/4JlaT42vrjVfip8XPH/xC1qedpWcagtlaIpPyqkAD7NvP3WC88KK+bv2nPhHH/wAE0/Gvw38e/Crxf4mmh1PU5rfUvDuq3wmivbdFR2i2qqhlILA7wxDMjKQy5r7o/aW/aD+IXwd1HTLDwL8FNe+KL3cBmlvdPn8m3tjuKhGIjdi3GSMKACOTyB8Q/CPXbP8AaT/bAtdf/aebUPBPivS5YB4J+Hup2c9haSYkLAl5UAlIcI2C4Mr4GCoEdAz9H/ixo/jHxT8PtV07wDrtr4Y8S3scaWmtXtuZls1Z08yQRY+ZxGX2g4G7aT0r5Vsv+CTPw21ZWv8Ax54y8b+OfFNzGpvNZu9UEe+X+J41KMwBOfld3+tfcgAVcelcn8SfiN4f+Fvg/VfFPibUotJ0HS4fPu7uY4CrkAADqzMxCqo5ZmAHWgD8/v2YNY8Vfseftyy/s3za9e+K/h/4gge80ZtQlDS2f+jyzq4xwDmGWJwMBjtcAYwf0wr88f2EPAnib9oD9ofxp+1L4y0+TT9K1NJLDwlZXXLCDIj81OeFjjQxhsYdpZTxjn9DqBBXw/8A8FhVz+yAT6eIbE/+Oy19wV8R/wDBYFc/sfSn01+xP/oygD8OFGWr+mr4EHPwP+Hh/wCpd07/ANJo6/mXQfOPrX9NHwJGPgh8PB/1Lunf+k0dAHc0ma5r4n61c+G/hr4s1eyfy7yw0i7uoHxna6QuynH1Ar51/wCCY/xE8VfFH9lfT9e8Y6/e+I9Xl1W9jF5fyeZL5auAFLHkgHdjPQHA4AFAH1hRRRQAUUUUAFFFFABRRRQAUUUUAFFFFABRRRQAUUUUAFFFFABRRRQAUUUUAFFFFABRRRQAUUUUAFFFFABRRRQAU0nDCnUxvvCmhnhfiUZ/ak8Pn007H/o2vdhXhPiXj9p/Qj6WAH6S17qvSvm8nd54v/r7L8keNgH+8r/4h1FFFfRnsBRRRQBFIcmvgmD/AJOlUf8AUyt/6NNfeshw9fBcIx+1Qn/YyN/6MNfBcVL97gP+vq/Q+azx2VH/ABH3ui9adgUi96dX3p9KJikKDninUUAeLa3+zDpWreJtS1qHX9W06e+mad0tpAoVm5OOOme1d/8AD/wGvgLSXsV1bUdY3Pu87UphI49hgDArqqK8yjlmDw9Z4ilTSm92vP8AA5KeEo0pupCNmwooor0zrCiiigBMUtFFACYpaKKACq9/ai+s5rcu8YlQpvjOGXI6g+tWKKBNKSszxS+/Zh0vVwyX/iXxBeQsdxSa6DjPsCvH4V7BpWmxaRpttZQAiG3jWJATk7QMD9Kt0V5uFy3CYOpKrQglKW76s56WGpUG3TjZsKKKK9I6QooooAKKKKACiiigAopruE6nH1ry3V/2hvD+nSXAgtNT1GCCRoXurS0LxblOCN2fY89K48TjMPg4qVeajfbzMalWFK3O7XPVKTNcN4F+L2iePria30/7QlxFH5jpNEVwP5elTeJPinpHhbxDpmj3az/a9QKiLYoIG44GefWsXmOEVBYp1EoN2v59ifb0/Z+0b0O0oqv9pBIx3rlbz4ladZ+PoPCMqSjUp7c3EbYGwqM++e1dNfE0cMoutLlUmkr9W9kaznGmk5O19jsc0tYHiHxZY+F9N+36hN5FuJVi3kZ+ZjgD865HX/j/AOGNAufs7SzXdxt3+VbR+Y2PoK5MVmuBwU3SxFZRklezetu9jOrXpUXactT02ivPPBfxv8M+N7e6aC6NlNbS+VJb3mI5FOM5256Yrntc/ai8JaJrNzpyLeagbdtktxaQb4kYdQWz2+nrWEs7y2FGNeVePK9td/lv+BCxVFx51LQ9iLAHFcb4x+KuheBby3t9WkmieeMyoUiLgqDg9Ku+DfHuj+PdLOoaPdLdQq21lGQyH0IPSvF/2gLaO8+J/gSORQ8Un7tl9Q0m3/GufNcylRyx43AyTvaz3Tu7GWLruGG9tRd9j0/wX8c/CPj3X5NF0fUhc6nFGZXg8pwVUY6kjA6jjOa7ma8ht4mllkWKJeWdzgAVR07ToLCGNIYI4VCgYjUAV518TPAGveOfEsEbNCnhq3gDALOVd5TnOVA+nXiuxzxmFwfNUXtatuismXKVWlh3Nrmkdd4e+KHh3xXr93o+lX4vLy1QyShFO0AEDg9D94dK6nzOcV87fA/RItF+Lnie0iG37HarETjBOdpP9K+g9pIDZrk4ezGtmuC+sYiCjLmkrLydiMvrzxNH2lVWZxXjH4z+GvAur/2bqly8d0EDlVQkAHpWHH+014IcEm7nRR3aB+fyFcdbeGNO8bftJeJX1azhv7O1s4/LinUMjSKqDOD1xuNesj4beFZYyr+GdNCkYO22QZHvxXk4evnOYzrVcNUhGnGcopOOrS03uc8JYrEczpySSeh0eia3aeIdJtdSsZPNtLqMSxPgjcp6HBq9njNZ1hZW+k2VtZWcC21pboI4oYxgKoGABXJ6T8Z/DuseNm8KxTOupjeFDDCsyfeUH1Hp7V9XPFUsN7KniZpTnovN9bHoyqRpckar1f5nY6jqtppdlPeXtxHaWkCGSWaVgqIo6kk9K8lvv2t/hxY6h9lbV3lQHBuY4WaEH/ermf2s76416Twp4CsnZW12633BViMIuNu72ySfwr1PR/hf4c0vw3b6Muj2ctkIhHIjwKRLxglhjknrk14OIxePxeMqYXLnGKppczkr3b1SXy3OOpVr1a0qVBK0Vq33N/w/4s0vxZo8GqaPeRX9hN9yaBtwPtXEeI/2kPAHhjxFeaHe6/Eup2TiO4gRHYxtgHBwPQivMfhFCvwm/aD8YfD6yVotA1KJNT0+HcSsDFAzKo9Cdw4/uivd9X0jT30y+lksLV5BC8jyeSu5iFJ5OOauljMbj8vlPDOMK1NtSTV1ePT5msKlWtQbjpON79tBfBfxD0L4h6XNfaDerfW0MhhkdUZdr4Bx8wHYisX40sD8JvFvPH9nTD/x2vPP2Qm3fD/U2AAZtRffjudif416H8ZFJ+FfilR1Ony/+gmnh8bUx2QvFVVaUoSvbvqiIVpVcDKpPezPnf8AYpP/ABX/AIgGMf8AEtT/ANGV9jpXxt+xa2PiNro7NpY/MSL/AI19joQK4ODV/wAJEPV/mcmSa4GPq/zFkbb7fWvO9A8XeJNd8V+I7eKKw/svTbj7NECGEjsEUn5hkDr6V6DMQyNz2rzz4ZxGPxT47VsfNqO8f98D/AV7mYKpOvhqcajinJ3t1tFu33npVub2lOKdk9x/jD4j6n4XtrGRtOjjE15DbOZmYgB3C5BwB3rd8Z+Jrvw5pCzWkEc97NMkMKTEhAxySTjsADXL/HFUl8E28TkFpdTs0UMcZPnK2P0rsPE+hQ+IrJLWeSWEpIJo5YfvKwBH9a54xxini6EKnPJJON0lZtMnlrJ1IJ3fQxvCuo+NrnUVbVTodxpTIdxtI5oZ0btjczq4/wC+fxrs1kLZ9jg+1ecXmo6v4L8Y6BaPdx3ujao72zCZQJYpQhdcEdQQjV2TWKTXVzcwh0u5IjGxVsb8Z25GcEj1PrWmV1qv1eVOo3KrT+K9t/J9isPUbi4vdHLQ+N/EOs3d7Jpmn2sOmW0skaTXTszTbGKsQFHyjKn1+lHjT4gatpPgOXXtGtrO4mjhW48udi8bp3AKkc+h9qn+EVwkngyzSV1W7tt8V4h4ZJgT5gI7cnOD2Iri/C8LTfAjVEDia3mOpG3bqPJNxLsA9gOntXnVKuKjgJYtVXeV3093fRehxN1FRc+d3av6HrfhPXH8ReGtL1OREje7to5mRDlQWXJAPpWxXI/C/anw58N7T8osIcZ7/IK6tWBFfT4WcquHp1JbtJv7j0aLcqUZS3aQ+ikyKWug1CiiigAooooAKKKKACiiigAooooAKKKKACiiigAooooA/l88df8AI66//wBf83/ow1+sf/BEr/kj3xF/7D0X/pOtfk545/5HTXv+v6b/ANDNfrH/AMESv+SP/EX/ALD0X/pOtJAfpBRRRTAKKKKACiiigAooooAKKKKACiiigAooooAKKKKACiiigAooooAKKKKACiiigApGYICTwBzmlrL8U+HLHxh4a1bQtTjaXTtTtJbK5RW2lo5EKMAexwx57UAWmkEqBlzIjDIKnIIPf3r86P8AgtF4j8L/APCofBXhuX7Pc+NbjW1urG3RQbmG0WGRZm4BYK7tCuONxXIzsOO0m/4JZnQoGtvBHx6+IvhSx6R2v25pEjX+6BE8IPPtXe/AH/gm18Lfgf4wh8ZXk+q+PvGULCaLVfEsqzLbzg586KIKAHzyGcuykAqQeaAPX/Cvi6X4Z/s6eGtf+JesJp13pPh2yl8QanqDldk6wIJmfqSxkyMDJZiAASQK+R/CnhzXv+CkfjS18YeLLO80X9nPQrwyaH4ckyk/iS5QshubgryIx8wwDwCUXJLufqT9qz9mjTf2q/hgvgzVNf1Lw7bx30V+txp20h3QMAsiNw6fMTjI+YKe1fO1r/wS4WHRbLSn+P8A8ThYWUQgtbODURHbwRjokcXIRfYYFAz7h0ywttIsbeysrSKysreNYYbe3jVI4kUYVFVeFUAAADgVcByK+I/Av/BMDTfBnxA0DxS3xj8f6nJo95FexW896o8xo2DBWbB+U4wQByCRX24BgUCFr4l/4K/f8meXP/Ydsf5vX21XxL/wV+/5M7uv+w7Y/wA3oA/DhPvj61/TR8Chj4I/D3/sXdO/9Jo6/mXXhq/pq+Bv/JFPh/8A9i9p/wD6TR0ASfGmMy/B3x2gOC2g34z/ANu71+XP7Bv7UvxRi+Cul/Bz4N/DmDxD4rtbqe6u/EerTMNN06GeUuryqoGTy4GXGdnCv0H6lfGBBJ8JfGyHo2h3w/8AID18ef8ABGfR7Sx/ZU1S+hWM3d94lumnkUfN8sMCqpPoACQP9o+tAzmvHH7RH7WP7Hc2neJfjBYeGfiL8PbmdIL298OxeVLZFj8oDbYtpJ6F42U4A3AtmvvP4c/ELQvit4G0Xxd4avl1DQ9Xt1ubadRgkHgqw/hZWDKynkMpB5Fcn+1D4a0zxh+zp8StI1eGOaxn8P3rMJRkI6Qs8cg90dVcHsVBr5b/AOCMmtXmqfsq61a3M0ksGn+Krq3tVdiRFGba1kKr6DzJJG47uT3oEfelFFFABRRRQAUUUUAFFFFABRRRQAUUUUAFFFFABRTDIBnJAx60nnx/3x+dGwm0tySioxcRn+NfzpRID0I/OldME09mPopozS5pjFooooAKKKKACiiigAooooAKKKKACmP1FPpj9RTQ0eFeJf8Ak5rRTj/lzX+Ule7J92vCfEf/ACc1o/8A15qf0kr3ZOlfNZMrTxf/AF9l+SPFy/8AiV/8Q6iiivpD2QooooAgl+/XwdGMftVR/wDYxn/0OvvCX/WV8HR8/tVx/wDYxH/0OvguKv4uA/6+L9D5nPtqH+JH3unenUxTzT6+9PpgooooAKKKKACiiigAooooAKKKKACiiigAooooAKKKKACiiigAooooAKKKKACiiigDD8bW1/d+E9Xi0pQ+pSWkqW6lsZcrgc14V8KfiHonw58M2Oja+Z9GuoBtna7t3QCQsSdxI9TX0VcuI42YkADqScVzWu+GtN8W2slrqdnDd2zjLBwPzz6ivnsyy2eLr0sVQq8tSmnZPZp9/wDM87EUJTqxrU5JSS2exfsrmxuYVutPFvLbzgMJ7YDbIOxyOteJfGi3CfGLwRPtJysaf+RD/jVD4e/bPh/8cZPCWk3Mlx4cuIZH8iRy4jwu4Y54IORn0NbXx3c6d4u8F6m6kxxyNHyOhDg9foa+Wx+YwzXIKlb2aThNKSW11JJv9TjxleOIwLbVnGSv8me3xqFERzk4FeIeIUFx+1No7BctForEse3Lc/rXtGnXkV5awzJKjRsoYMDxivE5tVt7/wDaZtjE4ZV0xoFYfxsOcfkDXscRVqU6eCp8yvKrTtr0vqdWLnCdKlr1R0Px9Jb4Xajgbm8+EgHnpIDWz8N/BulWPhzStSXTrU31xaRs9w0KmTkZxuxmsn47rt+Hk64yWuYuB/vV3Pgkf8UjoYHT7JEP/HRURw9GtxRWqVI3caUUr+bd9PkKMYVMwkpK9oo8A+OPhOEfGLRzZxi3n1my8uR1X+IMUDe+AQf+A17x4e8NWXh/w9Y6Za20UdtHCEZRGMPxyW9SfevOfi6qv8WPA0ndFkUj0yeK9hU/ugT0A/pUZPhcM85x9VQV4uMfS6u/xFhadNYmqktDwj4S2Y8MfHnxnolsiw2bwtMka8AYZSMD/gZFL8bGEXxH8EO2N29Bz6CetXwpCB+0Xr8w5JsXGfXmKsf4/oU8feCHBwWlCgfSZf8AGvnUv+MbrQj0rO3laoefUfLgZx/vfqfQcAzEmf7opXTOR2xRHxEn+6KcehNfrcdkfSRdoHh/w1IPx48bkcbgR+WwV7ah4xXiXwxX/i9PjGQjBZn2k9xuWvbl4HNfIcLW+pVLf8/Kn/pTPNy13pSv/M/zPD/FPwM8Y3fjG+1zw742g0Rrh2YIbLeQGIO1iTgjgdu1c7r2i/HD4d6VeazJ4t0nXLOzjM0kX2P5ii8njA7Z6GvopNRtppHSOeN2U4YKw4PvXK/FnXrXQvh7rjysJJJrSWCKEHJdnXaB+tcWNyrKsNhquKpVPZtXldTe++17blVMPRjCU4St10Y74UeP4Pid4NsNcjRYbhhsuLdWz5Ug6j+R+hFa1t4H8PabrJ1W00Wyt9Ucnddxwqshz15x3ry79ljR5tI8A3VxIrJHeXjSRbhjcoVVyPqVNesQ+KdKn1p9KjvoJNSRPMa3VwWAHXivZynErFZdhcRjkueSVr2vfuvNrXQ0w1T21GnUrpX6HiXxPtxP+0h4Mdhny4UCk9MZkJ/pXvpA3L6V4T+0DHJ4Z8ZeGPGAVmtIX+zynHyowbIye25WYfhXtOjavaaxpltf28yPbyoHD7hgAjNcWUVFRzHHUKukuZSXnFpanPhJ8mJrQnu3f5HgPjdVtP2tvDt2gJkksI48DqM+YMn8K981JANL1DPeCTP/AHwa8J0CZPiN+09eanZ7pdM0S38qS425RnXKhQenVifote7eJCsHh3VpicKtrK3Hb5DWeRyVSGOxUfgnUk4+aSSv83c0wrv7afRs8Z/ZKTZ4F1MdP+Ji/H/AEru/jQ/l/C3xMe32KQfmMVw37Ju4eCNXzxjUmA/79x123xwfy/hP4oYdfsbCs8rX/GML/BL82YUv9wlbsz5f/ZS8WaR4S+I+rXGsapZ6ZaPpxRJLudYlLF4zjLHHY19Zt8XPBEak/wDCVaS3ut2jD8wa+Rv2XPh9oHxA8YazZ+I9HtdWtoLNJYo7qIMFbzMZGehwa+qLf4FeALeMRw+D9JhUcfJbqD+eK87heOYRyuKw/La73v8AoceUe3WEXs7bsv8A/C3vBhAdfEdg6nusu7+Veb+Dvidouh+NvFNzcXm7TtQnEkM0YLAEZBBAyec8HHau8b4FeA3Jz4X085/2KaPgP4EXO3w3aJnrtBH9a9XE4XPcRUpVFOnHkd9E9dLdWdtWljakoyTSt6lDxH408AeJ7CCDU9RSaKK4S6jVd4O9Dlc8evar2pfEbw9qunXEVn4khtLl1+S5jZQ0R9QH4P0NA+AXgAkk+GbQk9yW/wAaf/wofwIeD4et2X0Lvj+ddjhnWrTp3e/xG7+uv+X8TmNK8QeEYNUh1HXPF663qVtkW891NGsUBIIJRUAUEhsZOT710S/FPwrDM7f25aBNgUSCZWQnnP3STU7/AAJ8BumxvC9gy+jJmmxfAPwBCMJ4U01F9BFXNQwudYWPJRlTS3fxO783uZqGLgvcaucZq138L9W1yTU28ZSaZcXpAuo7DUnt4rvA24kXp06kYJ707xr8UPCUfhp9A8NX1rdARmERWZ/dxKf4c9B1rtD8CPARIP8Awi+n8cYEXFQL+z98PUfenhPTkb1CGubF5fnOJw1TD03Thz7u0vmRVo4upSlTi4q/a5U8BfEPwvpfg3RLG71ywtLi2soopIJrhVdWCAHjPr3rYk+M/gWHIPinS+OuLlTiqM37Pnw6uHDz+DdHncdGktVJH6VMvwK8AoML4T0tMf3bdR/SvRpwzylSjTj7LRW15uhrCOMhBQVtPUH+Pfw5i/1njbQoj6SX8an9TXQeGPiD4Z8ZvJHoOv6brLxKHkWxukmKA9CQpOK5u4+BngSYH/imNOV8cMIQD+leefBjRbXQfjr43tLOBLeGOBIkSNcAKoXgD6tWUsdmmFxNCjioQcajteN9NL9X5EyrYilVhColaXY+iKKanSnV9aeoFFFFABRRRQAUUUUAFFFFABRRRQAUUUUAFFFFAH8vnjj/AJHPXf8Ar+m/9DNfrH/wRK/5I/8AEX/sPRf+k61+Tfjf/kctc/6/pv8A0M1+sn/BEn/kkHxF/wCw9F/6TrSQH6QUUUUwCiiigAooooAKKKKACiiigAooooAKKKKACiiigAooooAKKKKACiiigAooooAKKKKACiiigDN8SeItN8IeHtT13WbuPT9I0y1lvby7lzthhjQu7nHOAoJ49K8J/Zo/bg+HH7V3iHWdI8FprNvfaVALqaPVrRYfMiLhA6FJHGMkcNg89OteE/8ABX74/t4A+DOm/DnS7lY9X8YyM15sb549PhZSw4OR5khjUHoVWUetWf8AgkR8ALj4bfA++8f6tF5Wq+Nnjlto2TDRWEJcQn/tozO/upjNAH3rRRRQAV8Tf8FfR/xh3de2u2P83r7Zr4m/4K+uF/Y8ugSAW12wAB78uf6UAfht3z6V/TV8DP8AkiXw+wc/8U9p/X/r2jr+ZhR8w4zX9MvwGaRvgd8OzN/rj4d04vj+99mjzQAvx11aLQPgn4/1ObPlWfh+/nfb1wtu5OPyr8sf+CcP7ZuhfsseF5/BHxK03UtG8NeILsazpviJYGkgjZ4443DqBu2ERoQyBuW5GCCP2EliSeJ4pUWSN1KsjjIYHqCO4rI1zwT4d8TaCND1jQNL1bRRGIv7NvrOOa22AYC+WylcAADGO1Az4B/bc/4KD+DfGfwlvfhx8GtTk8c+MvGSto+3TLKZhb28oKSgBkBeWQExqqgkByxI2gN9I/sEfALUf2cv2ZvDfhfW1WPxDctJqmpwrgiGeYg+USMglECISOCVOOMV6X4I+Anw0+GuqHU/Cfw/8M+HNSIZftul6TBbz7W6qJFUMFPpnFd5QIKKKKACiiigAooooATpXG+G/jL4I8XeKdV8M6T4n0668RaXM1veaSZgl3C6/eBibDkD1AI967Ovjr9vT9g7Tv2kNDl8WeEo4tI+J2mwMYZ4cQrqygDEMz9nABCSHpnax2n5QD7Epa/nl8A/tlfHz9nHVJ9Ds/F2tafJYytDcaH4hVrtYGB+aMw3G4xkdwuwj8TX118JP+C1upQvDbfEzwHBdx5w+o+GZDCwHqYJmYMenSRe/HagD9YKK+U/hV/wU4+APxUvIrJfFcnhO/k+7B4ot/sS/jNloR+Mgr6W0XxZoviWCObR9XsNVhkG5JLG5SZWHqCpIoA1ScV5P+0P8Rtf+G3goajoVvBJPLOsBnnQusGeclQRnOCOteqkk1z/AI28L23jfwvqWg3q4gvoWi3jqjH7rD3Bwfwrjx1GtXwtSnh5cs2nZ9mc+Kp1alCaou0raHkWna9P+0V8DkurK6OleJBuTzImwsV3GSMMM8K4wfbcD2r5Vt9d8W6hqa6YmqahBqpk8jyp7mRcOOMcnI5HevQ/2ePENx8Mfive+D9VRoDq8htLlZGwIrmNW2HGcfMQVzznK81f/au+H9xofiPTfGFhvt49UJtbkxjHl3CfMrg+rrnn/YzX5NmkHm+VQzS7jVovkqau+mlz43EqWPwEMY2+em7TSdjnoPhf8bfLV1068kRuR5WrIT+OXBFI9v8AGfw6+6Sy8UwrGMnymlmQfUqSDX158G/EyeOfh3o2r5/0h4RHcf8AXVPlb8yM/jXciAd+T7179LhPBYijCth681zJO931PYWUYapTVShOSutHc+GdI/aQ+Ivh2QC8vZXA/wCWOo2i4P1OA3617V8PP2u/D3iKeOx8RQnQL0kL5+7fbMT/ALXVe3UY969r1vwtpPiO0a21XTba/gP8FxEHA9xnpXzn8Vv2QIJYp9T8FzvFOqknSriTKP7RueVOOzZz6im8BneUfvMLW9tBfZlv95i6GZYJc1Kp7RdnufTdvdR3MSSwuskTgMrocqwPQg1ODmvgL4SfHXXfgdr76PrUdxc6Gkvl3mnMCJbQ5wXjU8g9yvQ89DX3XomtWWv6Xa6jp1zHeWNzGJIZ4myrqfSvqMpzejmtNuK5Zx+KL3T/AMj18FjqeNi7aSW6Zp0UgOaWvdPREJxSbxTJzge2DXnXg/UdW1fxP4kSS8YW1nOsUSEAj7ua87E4xYetRocrbqNpeVlfU56lZU5xha/Mek5wM0m8ce9eZap4i8S6d8StE0u4khOj3aSvvSPBYqvT9RWn8SfEF9ofhtGsHCXNxdR26uT90NnJ/IVzf2pSdCvXUH+6bTVtXbXQX1iHLOX8u53YIPQ0tch4esdVsry3kl1Z7y0eI74JI1OHOMFXHOOvBzWhd+LLGyGqB5vn02PzJ1IxgbSw/QV20sVGVCNasuS/RtP8UaRneCnLQ36ilzuGBxmvMbnxN4pbwzJ4pEsFvZx2xvV08R7i8QXdhm7EqM8e1TfEnxPqWl+G7LWNJvXt8XEHmxhVZZI5GAzyD6g8dq5Y5nF0qlb2crQV7W1a7ozjiFyudnZHLeIVz+1Boy4yf7PDZ/CSvdF718/LcNe/tO6NJIcs+kyMMexYf1r6ATvXJk1SNVYipDZ1H+SPPy2aqOtUS0ch9FFFfRHshRRRQBWl++a+DoTj9qVGP/QyH/0Ya+8JT+8r4Otz/wAZOAnqPEbf+ja+B4s0qYB/9PF+h83nquqP+I+91PJqSqyyDcad9qiWQRmRBIRkJuG4j6V982luz6VrRE9FIDkUtAgopCcUUALRRRQAUUUmaAFopM0tABRRSUALRSZozigBaKTdS0AFFFFABRRRQAUUUUAFFFFAGZ4i0ODxFpNxp9w0scUwwZIH2uhHIKnsQa8wuvgHeOrpbeOtcgiOeC+SR6HBAP5V7FSYrgxOBw+LalWjdrza/I5auFo12pVI3aOB+Hnwe0f4ctPcWrz3+p3H+u1C8bdK/qOBgDPatbxx4B0zx7ow0/UlkCq4ljmhOHjcdwa6miqhgcNTw7wsaaVN7ro773L9hS9m6XL7rPHIP2dLKBlX/hJNZeBTxAZvlI7DpXRaJ8GtE0LxPa+IImuZNQt4WhRXkGwAjBOABk+5r0GiuClkeW0ZxqQoLmi7p72flfYyhhKFO3LE5bxx4Ds/HmgyaXeT3FrEzrIJbZgHBB9wa2dK0qPR9NtLGEkw20axIWOSQBgZ/KtCivUWHoxrvEqPvtWb62XQ6VCMZuaWrOP8SfDXTvE3iPTdbuZbhLqw/wBXHGwCNznkYzXTi34xjtgCrNFKlhqNCc6lKCUp6yff1FGnGEnKK1e5x+lfDmx0fxrqPiWG4uXvL2Pymgdh5SDgnaMZySAeteR/tDzi08aeEZnGVgcPz2/eqSfyFfRdcx4s+HGheNJ4p9UshcTxLtSQkggeleJmWURr5dUweDSg5Pm8r3u/vODH4edeg6dHR3TL+j+ItP1dVS2vIZpQoJRJAWA+lau3KkYzXM+FvhvoXg+6e502wjt53XYZRksV9K6nGK9nCOv7FfWUlLy2Oyj7R00qq1ON8PfDSy8O+KdQ1yG5nmuLwtuSQjagJyQMe+K6/Z7VJRVYfDUcJFwoR5U23p3e7Lp040k1BWPGfEv7O8Wpa7e6jpXiTUNGF5IZZbWP5o956kYII/OqemfssaSb0XGt+INV16JWDi1kkMcbH/a5JI9sivccUYxXmSyPLZzc50U23fXVX9NjlWCw/M5curKmn6bBpllBaW0Kw29ugjiiToqgcAVwPh74JaZ4c+JOoeMLe9u5Lm78w/ZJGHlIXxuIGPr+delUV6NXC0KzpucU+R3j5NdjpnShPlcltsZPiHw1p3izQrzSNWtVu7C7TZLE3GfQgjkEHBBHIIBFeNr+yVpcam3i8W+IYdO3ZW2juAoXPUdNv/jte9UVhi8twmOaeIpqTX9dCKtClWfNON2c54K8CaR4A0OPStHtRbwBi7uTl5XPV3Y8lj61X+IGr2+neE9WiZgWa1kTbn1U11VcJ4g+CnhXxPrdxquoWc0lzcf64JcyIj/KByobHQCssZh68ME8PlyjF2sk9kvkTVhONL2dFHC/srKG8B6i69X1Byw9DsQfyArrvjoP+LR+KT2+xPXW+GfCWmeD9JGn6VZx2VqGLCOId/UnufeuY+OUf/FpfE+P+fNzXnUsHLLsh+qVHeUINNrvZnOqTo4FwlvZnz/+xeM+OfEJ9LCMfm9fYCgV8ffsWHPjjxEP+nGM/wDj9fYS9K5OEHfKKfz/ADOXJXfBr1YUtFFfZnuBRRRQAUUUUAFFFFABSYpaKAInAAJrw34ZkD4/+N1HXYSfyjr3KX7prw74ajH7QHjc+sf/ALLFXzObr/a8C/7/AP7azy8W/wB9R9T3RPu06mp92nV9MeoFFFFABRRRQAUUUUAFFFFABRRRQAUUUUAFFFFAH8vfjb/kcdc/6/Zv/QzX6yf8ESf+SQfEX/sPRf8ApOtfk141/wCRw1v/AK/Zf/QzX6y/8ESf+SQfEX/sPRf+k60AfpBRRRQAUUUUAFFFFABRRRQAUUUUAFFFFABRRRQAUUUUAFFFFABRRRQAUUUUAFNckKSo3HsKdRQB+I9z8Of26klmlj/4Wl5bO2DD4hlAP/ATNnHTtVf/AIQf9u3O0L8WR7/29MM/j5gr9wKKAPxCbwH+3cImkP8AwtcL3/4n0rN+Xm5rM1nR/wBtnRNJvdU1S4+Kthpun28l1c3dxrVxFHBEilndmMo4ABJ+lfuhX5v/APBYT9pP/hEvBOl/CLRpwmq+IlF/q7Rn5o7BH+SI9x5sinOD92Ig8PQB+Z3hrwh8T/2pviJcrpNnrnxE8TvAbm4knuXuJhCrAbnklfhQXUckD5vevotvhj+3FoFhaaZBa/E20sbGKO0trXTtYlWGCKNAiIiwy7QoAAHH419mf8Eh/wBn7/hX3wTvfiLqak6140cGBXXmGxhd1jx7yPvfPdfL9K+98AdqAPwzPgb9uSXgp8XXB/v61e//ABymH4f/ALbhB/0P4sEdOdXvCf8A0ZX7ojpS0Afhl/wrz9t2FGl+x/FdAOSY9aui35eYSfyrzH49+Gf2kNM8Dw3fxXg8eJ4UN+ixDxLd3EtutyUbZhZGOG2h8Ej1x1r+huvhz/gsQ7L+yIm04B8R2Qb3GyY/zxQB+IanL819jeCfCv7YaeD9El0G1+KL+HZrKKXTlsdUu1g+zsgaMoiPhV2kYXA44r43jH71fTNf0ufs6pt/Z8+GK46eGNMB/wDASKgD8dZ/DX7aivn+zvi4CT2u75h+hqBdA/bTDf8AIN+LpxxzNqB/m1fuqoxS0AfhU3hX9syaMq2j/FhlHZpr/wD+KzTl8F/tjrx/YPxUIPP+uvP55r906KAPwvPgr9sd8Y0D4pj63N5/jSr4H/bJH/MC+KX/AIFXf+NfufRQB+GQ8F/tkj/mA/FL/wACbv8Axpf+EN/bJx/yAvin/wCBN3/jX7mUUAfhoPBH7ZUh50H4oHP967uh/M0//hAf2ygMnw/8TCOnF9c//FV+5FFAH4bx+B/2xQwP/CP/ABPU5z/x93XH6/pVa/8ABX7YzWxZNI+K8EkIz5i3V7n8MNz+Zr90DwOa+Iv2+P8AgoFafs/Qz+AvAYh1j4oXkexzs8yPR0dfkkZcESTHIKRdvvNwArgz8g/j2PiQ3j6RvisNVTxeLaJJV1wBbsRAfu9469DwW5IrzbPHtX0j4G/Yg/aE+Pevy6ingjXPMv5PtNzrfiXNlHIXJLStJPhpSTydgc+1fXPws/4Il3bXUNx8R/iJDHbKf3mn+F7Ys7j2uJgAv/fpqQj8uFfbgg4x3r3X9lbwH411L4p+GPE2heCvEniXS9Kv472ZtIsJ5I38tgwVnUFcbguQeoyK/Zr4V/8ABO/4A/CSS3udO8AWes6nEoH9oeInbUXZgch9kpMSN7oi19HhAqhQAFAwAB0FZ1KftIShe11YmUeaLV7Hyj4L1n9ozVtMWWPSbWylmZn26/Kg8sMxIGFBfAHY11zp+0tBCWgPw8nlxwLsXQGf+AYr6AK5PaoplOM9a8LD5L7FJPEVH/29Y46OE5Hd1JP5n56/E/TPHWk/Ew6r4pg0rSvE8kkV3CdLmeWAsmFjkUOMgEp35G3Fd38W0+POveBtV/4Tex8BX3hG2WO58/w/Jdx6hbMpyJ8S/K3XBAxwT9a0P20LIL4t0W4LlGl0xo85/uyn/wCKr1LWpW8RfsszXbHD3fhFriRu5Itdx/lXxOAy1xx+ZYFTfJy3S73V7s+ewdBLE4zDNvZv70Y37E+qNc+BNcsnkL/ZdSYrn0aND/PdX0bXyF+xBq8aar4gsC372e3huAM8YXIPH/AhX14OlfU8J1nWyijfpdfc2ejkc+fAU/LT7haTFLRX157x4z+0F8AbL4paS9/p0cVr4mt1JhnxgTj+457+xPSvAf2YPi/cfDPxbN4N8QyPb6PeXHkosxwLG6ztIweiu3BHZjnjmvuCU7QT19q+NP2zPhZbadf23jLTttvLqcotb2IcK0yrlJR6EhSD7qp6k18LnuDngZLOsHpOHxLpKJ87mNB4V/X6Ojj8Xmj7KVsYIOQak3cV8vfCr9rnQIvCWk6d4le7GtWtskM8iIrLKygAvndnJxnpXeJ+1P4LeMsJbjjt5fX9a9qln+XVacajqpXV7anpwx9CcIzvuewSHdkV5/8AD6IL4l8Xjpm6X9A1Ya/tN+EGUPmdc9C20f1rg/B/x00PQfG+uXM5lNpqJMgK/NyCTx6DB74ry8ZneXPFYapGqmouV3rpeNvkc9bGUVVpyT0uepeMp0j+Ivg23kcmUid4x68Yb+YrovF3hfSvGGkPp+sO8NskiyiaKbymRxkAhvxrzqb4+eA9UurW+kgee8tNwgkZAXj3dcHPGeKXVvjX4E8Q6fLa34+220334biHcv44q1meVqWIlVqqUKltEnrZWNliMOnOTknzGumm23hTx74bsdI1Oaf7Qk/2m0kuGlLRLHkSHk4w20e+6uv8S6fFrvh/WrGJ0e+ntJECxsPNGVYKfbnpmvLNC+Lnw38LJ5emGOy3ZBFvbMDj0PGat2nxo8C2Go3+owyeVdXqoLiZYm3SbAQv5Zrnwea5RRoyoufLGfTWyMqdbD04STktToW8XaPZ/CyT7ZfWqyRab9nmgaVd4l8raYyuc7s8Y61j+PLKTSvgJp0UxJube309JC33sh4wc+9Um+LPw1XVo9QuhaNf87bs22XXt97HXtXMfF/436H4p8MLo+jStO01xGZJHUgBVYH+YqXnmAp4WrL2qelklu+m3zHLE0lSfvX0N23iMX7TuhIOA2gzsRj0kr3pT8xr5SuPidY6R8eNN1i5R5LeLSntQVwGyzBv4iOwr1yD4+6PMgZLOc57EjNGTZvl9ChNSqWvKT1+RyYHE0KUJKTs2z1WivL1+O2msOLGb/voUf8AC99NGc2E/wD30K93+3ct/wCfy/E9D6/hv5z1Cm7wWZQcsvUDtXl8nx/0SFQ0tndKPXKY/UivFfit8SdRm8QTeI/CGsXekCZFSdI5UZJmUYBMbZXdgAZIPSuTG8SYDB0fbKXN5IjEY+lQp+13XkfWTkmUDpXwnZRh/wBqN8jI/wCEgfr/AL5rpfDP7W3ijQQsfiG1i8QxLx9oTZbSjrydq7T9AK43wjrUXiD4/adrKr5SXurify8527zwK+QzvO8Bmywbws7tVI6WaaPEzDH0MXCl7Le595jtXz/eLIf2x7Rt58pdL37cnrscHj8RX0AnzY9zXyf8YvEuoeF/2ko7/S0829itEt0jK5DF0PGPxH419XxPW+rUsPWa0jUi3Y9jM5unSpT7NH11ESy5p5JFfPD/AA5+NWt2/wDaf/CyrTSrxl3x6bFp4eBfRWY9/fBrf+BnxU1nxDqGteD/ABgkUPivRWxK8WAs6/3gB9QeOxFd9PN068KNelKmp/C3az8tNn6nVHFXmozja+xR/aF+JXijwZr3hLTPDdxDBNq7SxuZohJ8wK7eD9cV0fw40T4n23iE3fizxNol9o3lEJZ6fYPHKzHoWdmOMc9K4b9oqIXXxI+GMuQuy8K59f3sZx+gr6Et0BijIHYV5+HpPEZziXOcrU+Wyu7arXQ5qSc8ZUUpOytZdDkPiJ8UbLwBHDDIn2zVLnm3tFcAkZxk+g6/lXn3wc+J/irxf8Uta03WpYhp8VoZoYI4wvlElMDPU8FuvrXquq+BdC1TXRrtzp0c+rpCIEuHZjtXngLnaD8x5xmvK/hrClt8fvGMSgYS2VFI7ABKwzWeYUszwjjUtSnO3KvRvUxxKxCxdOXN7j6Huu7mvBfiB8RvHN18UNQ8LeE/s6/Y4o3/AHgGTuQEkkgjgkD8a95XlRXzZJ4y0nwd+0R4o1DVZ/IgngEBY5IUqsWPoDg80+Ka6p0sPTdV04zqJNq60s29jqx83CMUna73N2HS/jhMhZ9T0uAkcABX/P5K9h8J/wBrQ+HNPTXnik1jyx9oMAwm/viuL0749eBbm5W3Gv28Mj4CmYlAfxIxXogYShWRgVYAhgeCPUGuzJqOD5pVMJiZVVbVOV7edma4anT5nKFRy9WWg2RxXCfF74kr8MfCcmqLALu9kcQ2tuTgO57n2HU1m6Lp3jiHx+91dzxroB3qYS4YkY+Ujjg571x3xthbxD8XPAujzjfaQN57J2ZmJHI7jC1njM2rf2dOvSpuE3Lkipd27J+nUxq4mf1eU0uWWyuR2SfGfW7SLVf7V0qwWZQ8Vj5BPGMgMx78V13wm+KF94sl1nRdet0svEejSKtxFH910YZDgZ6f/Wr0dLdVjVcZIUDIr5w8UTyeF/2ytAaDKW+taWUuFHAYhXAJ9eQtcFXC1sinRxMa8pxclGak7p82l121MXTng3Cq5tptJp+Z3PjO3+KtxfXd5pOraHaaWp/c2/2eSSUIO7MSAScenepv2c/H2u+OtB1WbXriG5nt7vyonhiEY2bQeRk9ya77Vl26RqLLwVtpdp99hryT9kuNYvDusqMlvtQJJ/3RW9ajLBZ7R9nVk41VK8W7rRX0CvGVLHU3GbtJO66HvdFIOlLX2h7AUUUUAFFFFABRRRQAUUUUAFFFFABRRRQAUUUUAFFFFABRRRQAUUUUAFFFFABRRRQAUUUUAFFFFABRRRQAh6VwnxvGfhP4p/68ZP5V3Z6Vwnxt5+E3ir/rwk/lXnZl/uNb/DL8mcuK/wB3n6P8j54/Yt48c6/76en/AKGK+wlr48/Yv/5HzXP+wev/AKGK+wlr5vg93yin8zysjd8FH1f5jqKKK+1PfCiiigAooooAKKKKACiiigCKX7prw74bHPx88a/7v/ssVe4y/dNeG/DT/kvnjX/d/pFXzOb/AO9YL/r5/wC2s8rGfxqXqe6p0p1NTpTq+mPVCiiigAooooAKKKKACiiigAooooAKKKKACiiigD+Xnxof+Kv1r/r8l/8AQzX6y/8ABEn/AJJD8Rv+w7F/6TrX5M+Mv+Rt1n/r8l/9DNfrL/wRJP8AxaP4jf8AYdh/9JxSQH6RUUUUwCiiigAooooAKKKKACiiigAooooAKKKKACiiigAooooAKKKKACiiigAooooAKKKZKhkjZVdoyQQHXGV9xkEfnQA4kAc8V+Z/7UP/AATP+Ifx9/atvvG1x4n0oeCtbuYVuJBJIL2xto4UTy1iKbGJEZVSHHLgkdc+zWv/AATJ8L65cyXvxC+KHxI+IeoyuXdtR11ooAc/KVRQWBAyPv4weAK+YP2svhFD/wAE4fFHw58e/C7xr4nK3+ryJeeHNU1EzQXUCKrvHgBQyEEowcMf3ilSGGaAP1W8PaLYeF9B07R9Lto7LS9Pto7S1toxhYYY1Cog9goA/Cp9R1iw0hEa/vrayWQ7UNxKsYY+gyRmuS+LnhfxT46+G+s6N4L8V/8ACEa/qESR22vfZBcPaKZEMjLGSPmMe9QcgqWBBBANfLek/wDBJv4UXGnSSeNNf8XeOPE9yqtda/f6qySGXHztGgBwrNltshkPP3jQM+245UlRWR1dGAZWU5BB6EU+vzF/ZgvfFP7G/wC3lN+znHr994p+HniCB7vTE1CQNJaf6NJcLKABhWzFJE+3aH4fAwAP06oEFfD3/BYVf+MQs/8AUxWP/oMtfcNfEP8AwWDGf2P5P+xgsf5SUAfh2pw4+tf0y/AEY+BHw4H/AFLem/8ApLHX8zKj5h9a/pm+ABz8B/huf+pa03/0ljoA72iiigAooooAKKKKACiiigAooooAQjIrmtD+GXhLw1r2o65pXhrSrDW9RkM15qVvZxpc3DnqzyAbmP1NdNRQAUUUUAFJS18+ftR3monWvAmm6fqV9pw1C5mhleyupIOP3YBYoQeMnH1NebmWNWXYSeKlFyUei3etjnr1fYU3Utex9A7h6imsA/Qgj618/p+yxJKyyD4l+NYgQD5Z1WV0Q/7OW4FTy/stXMsgWT4t/EBIzwEttXaP8zzxXKsXmDaawuj/AL6JhVrSs/Z/iebfttXTSeLNBskUuRp74wM/M8h/wr2TxHpreE/2ZL+wdcvp/hWSy6fecW3l8fU18k+OfD9unx2t/B2l63qOsTyXttp0up6lOZ7jewAf5hj7oyeBxzXpvx1+EemfDH4a32uXfjXxhrlxM8VnbaVrOpC7tjKzjkKUDcDcfvYGK+HwWNxKrZlmapabbreKs159/M+Vw2ImquNxfLotN/IufsGaatwfEuqsOUWGzQ9xxvb+a/lX18OlfO37EHh+fTPhHPfTIqjUNRmmjIGCUAWPk9+UavokdK+u4bo+xyqirb3f3ts9fI6bp5dSvu1f79RaKKQnAJPAr6Y90ZIu7r0FfDX7UPxLufiR48t/DGiwvd2Om3H2aCKIZN3eMNuR64Pyj8TXpX7R37SMNpBfeFPC9wHnYeXfarC/ywg/eSNh1bGQT2zgc9G/sr/A6bT5ovHHiC1aG9ZWGmWkww0SMMGZgejMMgegye9fnub4qed4hZRgneKf7yS2S7X7+R81jKzzCf1Gg/d+0z1n4T/CbS/AXgLSdLuNNs5b/wAhWvpHhVzLMRl8kjnB4HsK65fCeiIPk0XTk+lon+FbCj2pa+6pYejRpxpxirRSX3H0MKVOnFQjHRGDL4Q0FmO/Q9NcnqTZx/8AxNeEfF3RLSH46/D22jtIYbOZQJIYolCk+YQMgDHcflX0oVBI4rwH4uEf8L7+HxPPGB/33Xh57GnHBpKK1nBffJHDj+SNFadV+Z7IvhTSUAVtKsXA/vWyH+lIPB+hhs/2Lp2PT7Kn+FbgGQKMV9B7Kn/KvuO9QhZe6jGHhLRMY/sXT/8AwFT/AAo/4RLRBnGi6fj2tU/wraopOlSe8F9yDkh/KjEXwhoagqNG04Keo+yR4P6VG/g/QU4TRNOQ+q2kYI/8drexTWQFhT9lSv8ACvuQ1CHY+dfFHh2xk/ab0Gxezhe0udOLPCYwVyFkwcdOgr2iLwJ4ehXYNC04KOwtkA/lXl/iYY/ai8Ptj/mHkD8pBXuSgGvncpo0JSxN4LSpJbeSZ5uEhTc6t11Od/4QLw4f+YFYKPQQKP6Uv/CA+GyMHQrA/WBf8K6PAoxXvfVsP/z7X3I9D2VL+VHPJ4H8OwMPL0LT1Pr9mQn9RXj/AMWvgZrvxE8YJDpS2ejaFDaoouXPDOSdwVF54464FfQOKCOK5MbluGx9H6vWj7t09NNjOrh6VaHs5LQ8A8N/sh+ENDeKfUZr7XbxRz9okCRFvXywP5k14PpVpFp/7SEFnCgitotdEcaAfdUNgCvvBlwd3evg+2P/ABktGc5I8RyfrMa+G4jwOEwX1GGHpqP7xbeqPAzWjSoxpKnG2p91Rpjivm/XdOgvP2urZ7kgoEjZVPTcsJI/UV9KIOfxr5Y+LmleJ5v2iGvfDGkyX11YW0F0xPEeACCCeMkgEYzmvoOKHOOHozhFy5akW0le6XkelmLaoQdr2aPqJ1O9cdOlfO97a/Yv2zop7b711pH74A/fYJjJ/BB+Vbf/AA05aafaKl9oGoQ6tGNr2pUgK/5bv/Haf8IPB2sa7491T4keILeWwmuoWtdPsZhh1iJXLkEZXO3AHB5Oa4MyxtPOa2GwWCu2pKcmk/dS7t9Xe1i61aOK9nCl3T9LGP8AtFP5HjP4eSE8LfMf/H46+ibcYhj/AN0V87ftNxbvGXw3hX7xvGJ57GSL/GvotB+6THTAr1MA+bN8c/8AB+ROGbli6/k1+Q5uh+leEfDdi/7QPjMjpskH6x17u33G9cV4R8NInX45+KZTG4WRJNzEYwd64/QVGdf73gNP+Xn/ALaycb/Go+TPdIxxkVian4C8Nazfvfah4f029vHADzT2qO7D3JHNbi5AwOteMax+0ZD4U8RX2keIdGurO5gkIjMQDK6dmy2M59s162YY3C4OMXi/hb7X1O/EVqVJXrbGt8Rfgr4R1HwfrX2PQrHTL0WkskNxbQiPZIqkg4XA61h/sleItQ1f4aNZai5lOmXLW8MjZ3GMqrAH3BYj6YrmfFf7RM3xGsLnw74R8P6pfXV2pidoYjlUPBJPRR2yTjmvUfg18PZfAPguC0uMJqV05urtQ24I7AfKD0OAAMj0r5HB1aePz2NfAU3GnCLU5WspX2S81uedT5auLjUoK0Und9GegsvmNweK8P8Aif8A6L8bvC87kqhSLBPQ/Ow/ma2fDPxY1DW/jBqvhOTT/s9raJIFlwTkrjBJ9wwq58cfAt94p8ORajpCtLrOlM00MKdZkOCyD/a+UEe4x3zXpZpUeb5fOeDT5qU1o1u4NXX+ReKl9boN0vsv8j0hWJK+hr5y+I9sdZ/as8EwQnLWdruc/jIxH5D9a1dI/afsrTR4YtU0i/i1mMbGhMRCFhx16j8RWl8HfBmrav4s1H4h+IIZLa8vVaGys5RzFCSMNz0JxwPT61x47HQzueHwWETd5RlPRpRjHWzb6t6aE1a0cZGFOnvdN+Vj1TWMx6PqPHAgk/8AQDXkH7J/Oga2QcgXSrz/ALoP9a9i8SqT4c1QjhzbS4+uw149+yZHs8Lay/UNe4B9cRrXpY/XO8H6T/IeJa+uUV5M95HSlpB0pa+qPWCiiigAooooAKKKKACiiigAooooAKKKKACiiigAooooAKKKKACiiigAooooAKKKKACiiigAooooAKKKKAEPSuF+NXPwn8Vf9eEv/oNd03Q1w3xp/wCSUeKv+wfL/wCgmvPzH/cq3+GX5M5sV/u8/R/kfOv7GH/I+a1/2Dh/6MWvsJa+PP2L/wDkfNZ/7Bw/9GLX2GtfMcG/8iiHqzyci/3GPq/zHUUUV9ue+FFFFABRRRQAUUUUAFFFFAEUv3Wrw34af8l78a/7v9I69ym+41eHfDYY+PXjT/d/pFXzOb/71gv8f/trPJxn8al6nuidKdTU6U6vpj1gooooAKKKKACiiigAooooAKKKKACiiigAooooA/l38Yf8jXrH/X3L/wChGv1l/wCCJB/4tL8SB/1HIf8A0QK/Jnxh/wAjVq//AF9S/wDoRr9ZP+CJB/4tR8Sf+w3B/wCiKAP0looooAKKKKACiiigAooooAKKKKACiiigAooooAKKKKACiiigAooooAKKKKACiiigAoopksqwozuQqKCSxOAAO5PagDwX9p344fFT4RTaYnw7+DF78TreeFpbq8ttQEQtmDYEflBGdyRzkYHbk9Phn4R+MvCP7QP7WMWtftSWviDwf48trqGPwf4Q1uCSz0ZEBykZ3oGaQSYb52VZGxndkRj9VYb2HUbZLi1lW6tpBuSWFw6OPUEcEV+dn/BZjxX4TPwj8I+FHNre+OrnWorqytIlVru3tVilWRiACyq7PEoU43nkZ2HAM/R5RtXHYVxnxY+Knhz4OeBtW8XeKtQXTtD0yLzJ5jyzEnCIg/idmIVV7k1zvh7xx/wp/wDZo8OeJPinrK6bc6N4csX8QalfsdwuRBGspbqzSNKdoUAszMAASQK+UfBHgrxB/wAFHvGNn8QfHttcaJ+z3ot203hvwnK2yTXZ0yjXd0R/yzzvGM8AlF43s4Az9gD4b+KPjZ8bPGn7U/juyaxTxAJLPwvp83zGO23KvmrnoqRxLEjYG/dK2BkE/oTVGx+wafb21laC3t4I0EUFvDtVURRgKijgAADAHQVdByKBC18Sf8Ff13fseXB/u69Yn/0Ovtuvif8A4K+f8mdXf/YcsP5vQB+Gy/fH1r+mL9n05+Avw2P/AFLWm/8ApLHX8ziH94v+8P51/TD+zz/yQH4af9izpn/pLHQB6DRRRQAUUUUAFFFFABRRRQAUUUUAFFFFABRRRQAV89/tNDHivwCQcETy4PcfNFX0JXz3+03keJfA7Dqs0uP++o6+W4m1yqr/ANu/+lI83MHbDv1X5nviDdCnbiuF+NHxET4X+A7zWFj8++b9xaRE43StwCfYck/Su8hGYV+griPin8HtF+L1hYWmtS3sC2UrTRPYzeWxJGCCcHjGOmD717WOWJlg5xwbSqNaXOqp7SVBqk/etofMn7JXgH+2fFuo+OtRjmmuLdpIre5mHyzXDnMzgnrtBAyO7e1YXxv8YSfHP40WXhLTbpBoOmOYEmcgLJNt3TS+hCgYH0PrX034o+HOreFfgdceEPh/BbnURAbW2kuZvJ8tWYl5CwBywBPuTyTXzGn7GvxEisVQLpfm4IO29Ynnr/CBX5zj8DmGDyynleFpOblrUku7d7X/AAPlcZQxGGwdPB4eDk3rN9z7T8EaDpfgzwdpGi6c6Jp9jbJDEzEAuAOWPTknJJ9Sasap408PaJGX1DW9PskHUz3SIP1NfDa/sWfEbILfYXx0U37YH/jtbGlfsQ+NpiPtV9o9intNJIwP4Jj9a9iGbZqoKlQwLVlbV6aHfHH4vSEMM1bz0PozxN+1F4A8OwyGHVf7ZmUZEenL5gP/AAP7v6185+Ov2j/G3xcuv7F0Gyk0/TrkbRY6apmuZxznc46DgcAKOuSa9C8OfsOafFIr6/4jur9QOYLOMQrn/eOT+WK948CfC7wx8NbT7P4f0mCwyMPKoLSSf7znLH8TWP1TPs1ThjJqjD+7u/ncylRzLHNwrNU4eW7PCfgZ+yu1lc23iHxtArTxkS2ujlw6xPnIaUjhmHGFGQO+e31AqgAADAHFOxS19jl+XYfLKCoYeNl1fVvu33Pdw2Fp4SHJTQUUUV6R1jSeRXz/APFs/wDF+PAZ9Cv/AKMr6Ab7wrwD4tD/AIvl4HPoyf8Aoyvm8/dsLT/6+Q/9KR4+aO1GP+JfmfQC9KWmrTq+kPXWwUUUUDCmnrTqY3UU0B4b4n5/ad8Pf9eH/wAcr3ReleG+J+P2mfDzf9OGP/Rle4p0r5vJ37+L/wCvsvyR5OBd51v8Q6iiivoz1gooooAhk718FWYLftLRAHH/ABUrf+jjX3rJ9418E2PH7T0Q/wCplb/0aa+A4sX73Af9fF+h81nejo+p97InX3pwgXcW2jccEkdT9acnenV+gNn0m6syI28ZcOY0MgGN5UZx9acYwTmn0VKSWw1pseF/tDeBvEHiPXfCuq6LYfbTpUjSsN4HzblZRj/gNdd4D8R+MtX1JYNZ0CDS7ARZ877RvcsOwA7c/pXopANJsA6ACvDWVKGOljqVRxcrcy6Ox5sMG6eIlXjN67oAvBpogQOW2AN6gc1JRXutX3PRavuNKjNVrvTLW+4ubaC4HpLGG/nVuik0nowaUtyC3soLVCsMMcIPGI0Cj9KlCAdqdRQklohrTREQtoxK0ojUSMMFwvJ+pp4UCnUU9tgWmxEbaIyeYYkL4xu2jP508r6cU6ikklsJJLY8p+I3ibxWZdT0vT/C9zPbNG0cV3FIrLICvXHUdT+VN/Z18F6t4L8G3FtrEC21zLctIsauGO3aBzjvkGvVtgpQoB4rwo5TBZh/aE6knJJpLor7nnxwdsR9YlJt9gpaKK949EKKKTNAC0UmaMigBaKKKACik6Um8ZxQA6ikyKWgAooooAKKKKACiiigAooooAKKKKACiiigAooooAKKKKACiiigAooooARvumuI+M3Pwq8Vf9g+b/0E127fdNcT8Yhn4W+Kf+wfN/6Aa8/Mf9yrf4Zfkc+J/wB3qej/ACPnH9jH/kfdY/7B3/tRK+w1r48/Yy48fax/2Dv/AGolfYa18xwb/wAiiHqzx8h/3CPq/wAx1FFFfbn0AUUUUAFFFFABRRRQAUUUUARTfcavEPhvx8efGf8Au/0ir2+b7jV4j8OR/wAX48Zf7g/9Bir5jN/96wP+P/21nk4z+NS9T3FOlOpqdKdX056wUUUUAFFFFABRRRQAUUUUAFFFFABRRRQAUUUUAfy7eL/+Rq1f/r6k/wDQjX6x/wDBEc/8Wq+JX/Ybg/8ARFfk54v/AORp1b/r6k/9CNfrF/wRH/5JX8Sv+w1b/wDoigD9J6KKKACiiigAooooAKKKKACiiigAooooAKKKKACiiigAooooAKKKKACiiigAooooAKyPF/hbTfHPhXWPDms2wvNI1a0lsbuAnHmRSIUcZ7cE89q16KAPgq8/4JOaJoVu0PgD4xePvBkbZHlfbBNGAewWIwe/UmvRv2ff+CbHwn+A3iq38Wv/AGn438YwOJotW8RzLMIJ+vmxRKoUPnkM+9lPIYHmvq+igDx39qX9mnR/2qfhpF4M1vWdS0Syj1CHUBNppTLtGGGxwwIZSHbj1CntXzhqX/BIvwT4j03TrPXvil8Q9Xh06FLezhmvbYwW0ajCpFG0LCNQD0XAr7xooA+Ivhl/wSg+HHww+I3hvxfZ+MfGWoXGg38Wo21nd3UHlPLGwZN5WIHbkDIBGRxX24oIABOT60tFABXxP/wV8/5M5vP+w5Yf+hPX2xXxR/wV7H/GHN7/ANhuw/8AQmoA/DRPvr9f61/TD+zx/wAkB+Gn/Ys6Z/6Sx1/M8n3l+tf0xfs9jHwD+Gv/AGLOm/8ApLHQB6BRRRQAUUUUAFFFFABRRRQAUUUUAFFFFABRRRQAV8/ftLru8TeBR63Dj83jr6Br5+/aW/5GbwL7XDn/AMfjr5jiXXK6nrH/ANKR5OaO2GfqvzPfLf8A1S/QVLUVt/qV+gqWvplsj04fChpUHqKNgp1FMsbtp1FFABRRRQAUUUUAFFFFADT94V4D8Wh/xe/wQf8AaT/0ZXvx+8K8D+LY/wCL1+CP95f/AEYK+Y4idsJT/wCvkP8A0pHjZr/Bj/iX5nvi06mr0p1fTHsLYKKKKYwpjH5hT6jb71NDR4h4p4/aT8PH/pyA/WSvcU6V4d4r/wCTjvDh/wCnT/4uvcU6V8xk38TGf9fX+SPGy/8AiV/8Q6iiivpj2AooooAgkPzmvgy0GP2oYv8AsZG/9GGvvKQ/vDXwjAu39qWMdP8Aioz/AOh18DxX/FwH/XxfofM57p7D/Efea9TT6Yv3j9afX3p9MFFFFMAooooAKKKKACiiigAooooAKKKKACiiigAoopDQAFgvWuM8SfFrw54avXs579JryMZeCFgzJ7Hng0/4q+Kn8GeAdb1iEbri2t28oH++eFP4E15t8EvhVpN54SsfEGr2ialqmpR/aZZbn5z8xLDrkd+tfNZljMW8RDAZdb2jXM3LaMb2+9s87E1qiqRoUPieup6J4Y+Lfh/xXqY06zucXrIXWJ+CwHXFdBq3iLT9C0973ULyKytlODJM4UZ9OaoWXhHRLG8iurfTbeG7iB8uWOMBlGMYzivHvHVkPib8arbwre7m0LTLc3EkKsQJX2jOcf74qcTjsZluEiq6U685KMUtE2/0W7HKrWw1H97Zzb07Hd/8NB+CBKEOswgE4DckH8QK7mw1u01W0S6sp47m3cZWSJgwNcxP8NvC8+njTpdEsxbhdoSOIDHGOOK8p+GMjfDf40a94H3yS6Zd2y3NoztnYAuQPyJB9dormjjsyyyvShmfK6dR8vNHTll0T8nsRCpiqFWKxCTjLS66HtWt+N9M8O3Vhb3sxSW/fZAAOp963ftIIGO4yK8D+N02zxR4Dmcnal68eMepWvcI/wB2sXc4H8q9jCYmvVzPFYWolyU+Xl76q7uddKrKpi6tFrSOxm6l470nTvEth4enuhHqt8rNbwkffCjJrn/if8QYvB+j+Uj/AOn3KFYlBwRnjd+hrzv4hln/AGl/BZQfOunyvzxjKycj8hW38bNDg1HwVfag0Q+22pTbNjkrvwRn/gRNeBjMwx1XAZl7FqM6Lai/Kyf3nn1q1eeHxEYaOLtfyLPgL426FZaVpum69q8dtqBVIke5k5lJ4/PNeyKwYZByD0Irzn4UeF9MTwvo+pnT7U3b2qETNCpkXI5w2MjpXoy8jNerw/HFrLqMsZNSk4p39V17nTgVV9hF1Xe6HUUUV9Ed4UUUUAFFFFABRRRQAUUUUAFFFFABRRRQAUUUUAFFFFABRRRQAjfdNcV8YP8Akl3in/sHT/8AoBrtW+6a4r4wf8kv8U/9g6f/ANANcGYK+Drf4X+RhiP4E/R/kfOH7GnHj/WP+wcf/RiV9hrXx3+xof8Ai4Osj/qGn/0YlfYidK+X4N/5FEPVnj5D/uEfV/mOooor7c98KKKKACiiigAooooAKKKKAIpvuNXifw4H/F+PGX+4P/QYq9sm+41eJ/Dgf8X38Zf7o/8AQYq+Yzf/AHrBf4//AG1nk4z+PS9T29OlOpqdKdX056wUUUUAFFFFABRRRQAUUUUAFFFFABRRRQAUUUUAfy6+LTnxPqv/AF8yf+hGv1j/AOCI3/JLfiX/ANhq3/8ARFfk14qOfEmqf9fMn/oRr9ZP+CI3/JL/AImf9hm2/wDRBoA/SiiiigAooooAKKKKACiiigAooooAKKKKACiiigAooooAKKKKACiiigAooooAKKKKACiiigAooooAKKKKACiiigAr4o/4K+f8mc3v/YcsP/Qnr7Xr4o/4K+f8mc3v/YbsP/QnoA/DRPvj61/TH+z9/wAkG+G3/Ytab/6Sx1/M4g+cfWv6ZP2fjn4C/DYgY/4prTeP+3WOgDvqKy/FPifS/BXhrVfEGuXsenaNpdrJeXl3LnbDDGpZ2OAScAHgAk9q+Nl/4Khab4mFzeeAfgp8TPHegRO0Q1rT9IIt5HU84K78Dp97DeqigD7dor5t/Zq/bXsP2jPGOo+GP+Fd+MvBmqWdmb1pNdsQlsUDqhXzAch8twpUZAbnitbxx+1daeCv2tPA/wAD28PTXt34o0xtRXVo7kBbbAuTtMZX5uLVsncPvDg4oA98oor500/9sWxvf2y9X+AJ8N3C3Vjpy3o1xblWRm+zx3BQxbQQNkmN248r05yADm/+Chf7V3ib9kzwD4T13wvpun6ldanrItJ49RV2TyViaQqoVlILFQM84GeM4x9VWspntYZTgF0DHHuK/Oj/AILTky/CD4cSLzt8QyZUnjP2d/8AA12up/8ABUDTdUmSz+E/wl8Z/FiGyhj+33+n2clvBbsVB28RSMSDkElVGR8pYc0Afc9FfJ37Nf8AwUM8MfHTx7L4A8ReGNV+Gnj4ljbaLrOW+1KE3lVcojLIFDNsZBkAFS3IH1jQAUUUUAFFFFABXz7+0uceJ/BHtLIf/H46+gq+fP2mP+Rj8GH/AG5f/Qo6+Y4k/wCRZU9Y/mjyM1/3V+q/M99tf9Qn0FTVDa/8e8f+6Kmr6WOyPUh8KCiiiqLCiiigAooooAKKKKACiiigBp+8K8D+LX/JavA/++v/AKMFe+H7wrwP4t/8lq8Df76/+hivl+I/9zh/18h/6Ujxs1/gx/xL8z3xadTVp1fTnsIKKKKYwqN/vCpKjb71NDR4h4s/5OL8Of8AXr/8XXuCV4f4t/5OL8N/9e3/AMXXuCV8xk38XGf9fX+SPEy746/+L9B9FFFfTHtBRRRQBWk/1hNfC8K5/amh9D4jJ/8AH6+6pB85PavhewBm/ajiIJwfELY49JP/AK1fAcWXdXAf9fF+h8znurw/+JH3YPvH60+ogcsakBr9APp2LRRRSEFFFFABRRRQAUUUUAFFFFABRRRQAUUUUAFFFIaAPOvj/o8us/CbxDHCrNJHB9o2r1IQhiPyBrO/Z78W2viP4ZaSsboJ7WMW8sYPKlen5jB/GvUZVDAhwGUjBU8givFr/wDZ5bStTnvPB3iCbQY5zlrJyxjVs5ypBBx7HNfMYzCYjD4+OZYWHO3HklG9tL3TV/M8rEUa0K8cTRV9LNHs6bBwAMmvAJtVg8HftOTWt5+7Gr2fmRSSHC84GB9WTH5V3ngn4eeI/Dmt/btV8WSaxAI9q2nlFRuIxksTzj6CtXx/8MdH+JNhDFqYkivLUlrS/t22zW7HqQfTgcewoxeGxeZ4enXdP2dWnLmim73t0bW1zSvSq4qmp2tKLukdIhWY7+AF5Zuwr5+0WX/hMv2p7+/ssvYaXYGOWUAkFgNqrn3LH/vk11LfBPxRLYtYS+P7hrXGBIIT5h+uWwa7H4e/DDTPhrpM1lpzPPLcyme6vJzmW4kPdj2HoBwK569DG5ziKEcTR9nSpyU3dpuTWyVvxKlGtipQjOPLFO7+R5r+0M62D+D71k3LHqRz7fdNe1Ws6XUUDowZSoII6EVg/Ef4cad8RvD0WmXtxNZPBOtxDcwY3RuOM4PXgmuUsvg9r9lClunjec20Ywi+Tkgf99dq2qwxmBzOti8PQdSFVR2kk046dSHHEUMVOrThzRkcv4zuorv9pbwuUcMIbQw7vUlZOP1rufi7bmP4dauSMjdHnHb5xTdI+CVhp/jCw8S3GqXuoahaKwWObasZJBGSAOozXa61odr4h0i80y/QvaXaGOQKcHB7g9iOoNcuCyvGVsBjqeLShPESk7J3STSS/IdPDVpUqyno5mD8H9Qjvfh/o2Dh1gVWUnkYzXdqMCvIdF+EPiHwvOi6R4tT7Erg+XdWu5io7cMOcY54r1tAQAM54xXp5IsXSwkcPi6fK6aUU73ulon5GmDdZUlCtGzj+JJRRRX0B2hRRRQAUUUUAFFFFABRRRQAUUUUAFFFFABRRRQAUUUUAFFFFADW6VxXxfyfhf4p4yf7Nn/9ANdpIcCuO+K6l/hj4qPppdx/6LNceNV8JV/wv8jKur0J+j/I+bv2NQf+Fha16DTT/wCjEr7CQ18gfsZ/P441twOP7NHP/bRa+v4jla+V4NT/ALHp37v8zxch/wCRfH1f5j6KKK+2PfCiiigAooooAKKKKACiiigCKb7jV4n8OP8Aku/jP/dH/oMVe2TfcavFPhv/AMl38af7o/8AQYq+Zzf/AHrBf4//AG1nk4z+PR9T25Pu06mp92nV9MesFFFFABRRRQAUUUUAFFFFABRRRQAUUUUAFFFFAH8uPic58Rakf+nh/wD0I1+sv/BEX/kl/wATP+wzbf8Aog1+TPiX/kYNS/6+H/8AQjX6zf8ABEX/AJJd8TP+w1b/APog0AfpTRRRQAUUUUAFFFFABRRRQAUUUUAFFFFABRRRQAUUUUAFFFFABRRRQAUUUUAFFFFABRRRQAUUUUAFFFFABRRRQAV8Uf8ABXz/AJM5vf8AsN2H/oTV9r18Uf8ABXvP/DHF9/2G7DP/AH01AH4aDhh9a/pl+AKmP4E/DhT1Xw3poP8A4Cx1/Mz0/Cv6bPgcpT4K/D9T1Hh/Tx/5LR0Ac7+1f8LtW+NX7OvjzwToNyLXWdX05orRmYKryKyuI2Y8APs2E9g5r42+Af7elv8Asr+EfCHwl+N3ws8Q/DI6ParpsGupbGazuRH964ZQAxzkFjCZssxIABwP0N8TeKNG8G6PPq+v6vY6HpcBRZb7UblLeBCzBVDO5CjLMqjJ5JArJ8S+FvCPxh8FyWGu6fpXizwtqUIkC3Cpc280bDKyI3I6HKupyOCCDzQBoeDPG2gfETw3ZeIPDOsWWu6Lepvt76wmWWKQdDgg9QeCDyCCCARXwx8dnMH/AAV1+BUhOA3hplA+serg/wAxXAfsKajpvwz/AOCgXxV+GXww1K71n4StayzrHFM1za2s8YhO8SHskjTQB8kuCuS+A1dB+3J4lh+EH/BQ/wDZ7+ImtyrZ+G1svsM95KNscSiaZJXZvRFvA59BQM/SGvzS8NXSr/wWs8ZKRuMmiLGvsRpVsf6H86+/PEXxj8B+EtEl1jWvGeg6ZpccZla6udRhVCuM8Hd82ewGSe1fl3+zl8UtH+L/APwV11jxbo1w11o+qrfRafcGNlFxFFYCJHAYAhWWEsMgHGOKBHpn/Bam6eH4P/DuNThX16ZmHqVt2x/6Ea+6fgJ8MtI+EPwh8KeF9GsYLGCy06BZvIQL58/lr5krnqzM2SSeea+Hv+C11rGfhJ8OWYEAa9Mu4DoDbnP8v0r7I/Zp+P8A4Z/aE+Fuja9oOo289+lpAmqaejYlsLoxqXidTzwc4bowGQTQM+M/+CvvhtPBH/CrfjNoLLp3i3RdYFgLuJcPLhWuLcsRyfLeBsf9dDX6N6Zfx6rptpew58m5hSZM/wB1lBH6GvzU/wCCjvj3Sv2pfil8Mf2efAF/Hr2strhuNbuNP/fR6fhNnLD5WMcbzyOAfl2AHnIH6XWNnFp1lb2sI2wwRrEg9FUYH6CgCeik6VFBdwXPm+TNHL5TmOTYwbYw6qcdDyOPegRNRRRQAV89ftN8a/4PPo0p/wDHo6+hDXz/APtMp/xO/CQ7gynPp80dfMcSf8iyp6x/NHkZr/ur9V+Z75a/8e8f+6P5VLUNqf3Ef+6P5VNX0sfhR6sfhQUUUVRQUUUUAFFFFABRRRQAUUUUANP3hXgXxb/5LZ4F/wB9f/QxXvrfeFeBfFv/AJLb4F/3h/6GK+Y4i/3SH/XyH/pSPFzb+DH/ABL8z31elOpqdKdX0x7KCiiimMKjb71SUxvvU0NHh/i3/k4rw1/17f8Axde4J1NeH+Lf+TivDX/Xt/8AF17gnU18zk/8XGf9fH+SPEy346/+L9B9FFFfSntBRRRQBE65zX58a74iPhX416jrCqJJbHWZpVRjjdiQ8fz5r9CmFeY65+zn8P8AxBq1zqd54fWS9uJGllkFzKoZmOScBsDJPpXynEGUVs2p0vYT5ZU5cx4maYGrjow9jKzi7nlkP7ZzOMDw7EMfxNd9fyWpV/bGmJ/5F+H8Ln/61d5J+y98PCcjRHX2W7lH/s1Qn9lzwET8um3CewupP8a8l4LihaQxEPuON4XOHtVRxn/DYkv/AEL8X/gT/wDWpP8AhsWYdfD8X/gT/wDWrs/+GXPAf/Phcf8AgS/+NH/DLngQ9bG4/wDAl/8AGp+p8Vf9BEPuRP1POf8An8jjP+Gx5f8AoXov/Ar/AOtR/wANjSf9C9F/4Ff/AFq7P/hlvwH/AM+Fx/4Ev/jR/wAMueBP+fG4H/by/wDjT+p8Vf8AQRD7kH1POP8An8jjD+2NL28PRf8AgV/9al/4bFl7eHov/Ar/AOtXZf8ADLngX/nyuP8AwIf/ABo/4Zc8C/8APlcD/t4b/Gn9T4p/5/w+5B9Tzj/n8jjP+GxZv+hei/8AAr/61H/DYs2f+RfhH/b1/wDWrsv+GXPAv/PlcfX7Q/8AjSn9lzwL/wA+Nwf+3hv8aPqfFP8Az/h9yD6nnH/P1HF/8Niz5P8AxIIR/wBvX/1qQ/tiXPbQIP8AwK/+tXaf8MueBf8AnxuP/Ah/8aX/AIZd8C5/48Lj/wACH/xp/U+KP+f8PuQfU84/5/I4r/hsO67aDb/+BJ/wo/4bBuz/AMwK2H/byf8ACu1H7LvgT/oH3H/gS/8AjTv+GXvAnfTpz/28v/jR9S4n/wCgiP3IPqecf8/kcR/w2Bd/9AO1/wDAk/4Uf8NgXf8A0BLX/wACD/hXcj9l/wAB/wDQMm/8CX/xpR+zB4CH/MLmP/by/wDjR9S4m/6CI/cg+pZv/wA/kcJ/w2Bdf9AS0H/bwf8ACj/hsC6/6Atof+3g/wCFd5/wzD4B/wCgTKf+3mT/ABpf+GYfAP8A0CJP/AmT/Gj6lxM/+YiP3If1LN/+f6+44H/hr66P/MFtcf8AXwf8KUftdXJznRLM/wDbc/4V3o/Zi8Aj/mESf+BMn/xVL/wzH4B/6BEn/gVJ/wDFUlgeJv8AoIj9xf1PN/8An+vuOGX9rabbk6Lag+054p//AA1tJgj+xbZces55rtx+zP4DH/MIf/wJk/xo/wCGaPAXfR3b63Mn/wAVR9R4ovpiI/cCwmb/APP5fccMP2tpD00a0Lf9dzS/8NcORg6FEX54E5/wruD+zT4AwR/YrgH/AKepf/iq8y+Nfwo8P+ALHQ20SyeJry6MUokdpBtxnuc+1cGYQ4nwOGliXiItR6JfIxxFLNcPT9pKsml5Gi/7XEzDMehQMR/C1xg/1pifta3TOf8AiQ2i8dfPJz+Qrurf9m3wOyxyyaU29kBbZcOoJx6ZqU/s0eAycjSpR9LqT/Gu2GA4olFSliYp+n/AOh4TNWlKNda+Rwv/AA1nd4GdCtfceeaT/hrS6P8AzALc+32g/wCFd0f2afA3/QNm/wDAqT/Gmn9mjwR20+cf9vL/AONDwHFHTEx+4j6pnDX8ZfccN/w1xcq+D4ftivr9pOfyxTv+Gu7of8wG2Ht9oP8AhXbf8Mz+CDybCcn1+0v/AI0h/Zl8EH/lwn/8CH/xpLA8U9cRH7kR9Tzn/n8vuOIP7X92D/yArb/wIP8AhTD+2DeD/mBWv/gSf8K7n/hmPwN30+f/AMCH/wAaX/hmLwJ302c/9vL/AONWsFxR1xEPuQfUs4/5/L7jhR+2Fd/9AK1/8CT/AIUo/bDue+hW3/gSf8K7n/hmHwH/ANAub/wJf/GgfsxeAh/zC5f/AAJf/Gq+pcTf9BEfuQvqWc/8/wBfccP/AMNiTjroNv8A+BX/ANaj/hsaUddBg/8AAr/61dyP2Y/AX/QKl/8AAmT/ABpf+GY/AP8A0CJP/AmT/Gj6lxN/0ER+5D+pZz/z/X3HC/8ADZEg/wCYBD/4Ff8A1qT/AIbKf/oX4f8AwK/+tXd/8Mx+AP8AoDyf+BMn+NH/AAzH8P8A/oDv/wCBMn/xVP6lxL/0ER+5D+pZx/z/AF9xwf8Aw2Y4/wCZeh/8C/8A61H/AA2a/wD0L0P/AIF//WrvP+GYvh9/0Bn/APAmT/4qj/hmH4ff9AV//AmT/wCKo+pcS/8AQRH7kH1POP8An+vuOC/4bPb/AKF6H/wL/wDsaT/hs9/+hdh/8C//ALGu+/4Zg+Hv/QFf/wACZP8A4qj/AIZf+Hv/AEBW/wDAmT/4qj6lxL/0ER+5B9Tzj/n+vuOA/wCG0H/6F2H/AMC//saT/htJ/wDoXYf/AAL/APsa9A/4Zf8Ah5/0BW/8CZP/AIqj/hl74d/9ARv/AAJl/wDiqPqXEv8A0ER+5B9Tzj/n+vuPPv8AhtN/+hdh/wDAv/7Gk/4bUcf8y7D/AOBf/wBjXoX/AAy98O/+gI3/AIEy/wDxVH/DLnw7P/MDb/wJl/8AiqPqXEv/AEER+5B9Tzj/AJ/r7jzw/trMP+Zch/8AAz/7Gj/htg/9C5F/4Gf/AGNeh/8ADLfw5/6AJ/8AAmX/AOKpw/Zd+HA/5gGf+3mX/wCKpfUuJv8AoJj9yH9Tzj/n+vuPOx+2yD/zLkef+vz/AOxp4/bXTv4bU/S8/wDsa9C/4Ze+G/8A0Lw/8CJf/iqcP2YfhuP+ZdX/AMCJf/iqPqXE3/QTH7kP6nnH/P8AX3Hn3/DbNoAS/hwqB3F2D/7LWJ4u/a7g8S+GtT0hdCW3W9t5IDKbrJAYEdNvv6166P2X/hqxy3hpG+tzN/8AF0H9lf4YSZDeGE2n+H7XPj/0ZWdXLeIq9KVOeKik9HaIPCZrKDhKstfI8f8A2LQlx4n8QSRsCIrNYzg5PLgj9BX11GMCuT8D/Cnwp8NvPPhrRbfSjcACZoc7pAOm4knOK64DAr6bI8vllWBhhZyu1fX1dz1MtwssFhY0Ju7XUWiiivdPSCiiigAooooAKKKKACiiigCGb7jV4r8OP+S7eNP91f8A0GKvaZuUb6V4v8OP+S7eM/8AdH/oMVfM5x/vWC/6+f8AtrPJxn8ej6ntqfdp1NTpTq+mPWCiiigAoorwj46/ti+DfgV4v0/whcaR4l8ZeMr61N5F4f8ACWltfXSw5IDuMqACVboSQBkgAjIB7vRXxxef8FL9C0h8ar8E/jFpaAZLXXhlU47nDTCvon4l/F2z+GvwW1z4jXOmXtxZaXpTaq+nsBFcMgQNsIPCtzg56c0Ad9RXnf7P3xo079oX4R6B4/0nT7rTLDV1lMdteFTIhjmeF+VJBG+NsHjIwcCqH7S/x80/9mj4P6x4/wBU0yfV7XT5IIvsdtIsbyNLKsY+Y8ADdk9elAHqdFcb8IvibY/GL4Y+GPG2mWdzY2OvWUd7DbXgUSxq46NtJH5GvmKP/gq58GYdD8QahqMPiDT7nSNUbS10s2SSXN8wLfvIQH2hAFOTIyYyBySKAPs+ivgy2/4K/fDqDW7O21zwB448OaZcYJ1K/sodsUZOBIyCQkpnrtyfQE8V33xq/wCCmXwf+Et3Y6ZpV5d/EXXb2OOSKw8Kos6qHAKb5SwUMQfuLuYd1XIyAfWtFfF/wQ/4Ki+BPir8TLDwHr3hbX/h/r2p3CWunjV0Vo5pnJVY3Iw0bM21VypBJxkcZ+z6AP5cfEy7PEGpKeouJB/48a/Wf/giMf8Ai13xM/7DNv8A+iDX5MeJG8zX9Rb1uHP/AI8a/Wj/AIIjLj4WfEs+utW4/wDIFAH6T0UUUAFFFFABRRRQAUUUUAFFFFABRRRQAUUUUAFFFFABRRRQAUUUUAFFFFABRRUN7c/Y7Oe4KNJ5UbPsXq2BnAoAmor8Nrj/AIKu/tD2s8sR1vR8q2CJNJg3Ke44A/UVGf8AgrJ+0R21nRP/AAUQ0AfubRX4ZD/grJ+0T/0F9GP/AHB4aD/wVl/aJ/6C2i/+CeKgD9zaK/DL/h7J+0Uf+Yvo3/gnhph/4KwftFt01rSB9NGg/wAKAP3Qor8K2/4Ks/tGt08Qaav00W2/+Jpv/D1T9pD/AKGOxH/cEtf/AIigD91q+Lv+Cuig/sa6oTjjWLA/+RDX5+f8PUv2kGB/4qSxU+v9iWvH/jled/HL9uL4x/tBeAz4T8ba5b32hfa47to4NOggZ5EDbAWRQcDOceo9qAPncKGPPQ1/TT8DpHm+Cnw/kkwJH8P6ezY6ZNtHmv5lx8xwelfWvhf/AIKY/tD+HPDmnaTp3iq2/s7TbaKzg36NaOUjRQqBmMfJ2gcnk0AfuX468C6D8SvCmo+GvE+mQ6xoeoII7mznyFkAIYcgggggEEEEEAg5FfJ3iP8A4JTfB7XTNDb63460XTZDxpljrwa3QegE0cjYzk8seSa/PYf8FUf2kkbJ8U2Lj0OiWmP0QUq/8FVv2kcf8jNp5Hr/AGHbf/E0DP2G+BP7OPw9/Zt8OyaN4D0CPSo7gh7u8kczXV2wHDSysSzY5wowoycAZrQ+NXwG8DftD+E18O+O9Cj1rT45RPA29opreQcb45EIZTjg4OCOCCK/G3/h6h+0hIPl13TzjuNCtz/7JSf8PUP2lVP/ACMNgPb+wbf/AOJoA/Q7wZ/wSj/Z/wDBuoteXOi6v4qAYPFa67qjNBEQSR8kQj3jnGJNwwOle1+HP2WvhZ4R+I2k+OPD/gnS9A8RaXZvY20+kw/ZYliZSpBijwjHaxG4gnB61+Qo/wCCqf7San5vEdgc9joVsP8A2Spf+Hq/7SO0j+29NP8Atf2HBn+VAH7GfGb4DeCP2gNH0vSvHWhrrun6Zfx6lb27zPGomQEDdsI3KQzAqeCDzXjHxG/4Jt/CLx1qD3+jDXPhxeSn/ST4Ovhaw3A/2oXV41OMjKqvU5zX5s/8PXv2jVGG13Sh9dEgH9KP+HsX7Rm0L/bmjk/3v7Fhz/hQB+tXwA/ZI+F/7NVs48F+HI4dWmj8q512/b7TqFyOMhpW+6pIUlIwqZAO2vZ6/C5/+CsH7RDA41rSFPqNGg4/Smj/AIKwftFAn/if6Ufb+xrf/CgD91K+Bf29/wBmfx/puqX/AMZPgV4i13Q/FwiU69oeiXbw/wBpRxqFWaNFIDyKqgFCDvUcDcMP8Tj/AIKxftEoct4g0fB7NpFv/hTD/wAFXP2gWCiXXNAmAbLCTR4MMPQ47fTBoBHWfCX/AILCfFvwOkdn4x0/SviBaxgAyzJ9hvPb95ENh+pjJOOvr9dfCb/gsL8HPGkSR+MLTVfh9eE4LXERv7X8JIVL/wDfUaj3r8gfi58R9R+LvjvVPF+q6bpemajqbCW4i0e3MFu8gGGkCFmwzYyxB5bLHkkni80Az+mP4bfHv4c/GGPd4K8baH4lcDc1vYXqPOg9WizvX8QK83/ahvIrXxH4HR+tw88ar/eP7s4r+e211O6spUlt7ma3mQ5WSKQqy/Qg5Fe4/D39sj4l+FLjTRqviPUfFVvp0pmsYNaunuGgcjbhHfc6r0+UHBwOK8TOsLVxuBnRoq8na3yaZ5uYUZV8O4Q30/M/ogtebeL/AHanr4i/ZX/aw/aE+Nuv6Xb6t8D49F8JuEa48RXss1hGIiCQ8QlXM5OBxGpAzyQOn24DmvYhflVzuh8KFoooqywooooAKKKKACiiigAooooAa3UV4F8W/wDktngb/fX/ANDFe+t1FeBfFv8A5LZ4G/31/wDQxXzHEP8AukP8cP8A0pHjZt/Aj/iX5nvqdKdTV6U6vpz2FsFFFFAwpjdafTH600M8O8Wc/tF+G/8Ar2/+Lr3FK8P8U8/tG+HP+vX/AOLr3BK+Zyf+JjP+vj/JHiZb8df/ABD6KKK+lPaCiiigAooooATAPajaPSlooATaPSjaPSlooATaPSjaPSlooATaPSjaPSlooATaPSjaPSlooATaPSjaPSlooATaPSjaPSlooATaPSjApaKAExRilooATFGB6UtFACbR6UbR6UtFAEbIDXin7RjAJ4TJGV/tLGP+A17c3SvEP2jzi28MH/qJD/0E187xFrlVZPy/NHn5hK2Gl8j2eBAYIgf7oqcIKiteYIv90fyqevoY/Cjug/dQm0elJtFOoplDdoo2inUUAN2ijaKdRQA3aKNop1FADdoo2inUUAN2ijaKdRQA3aKNop1FACbR6UbR6UtFACbR6UbR6UtFACbR6UbR6UtFACbR6UbR6UtFACYFGKWigBMUYpaKACiiigAooooAKKKKACiiigAooooAKKKKAIZvut9K8V+HB/4vt4z/ANwf+gx17VN91vpXivw3/wCS6eMzjqg/lHXzGcf71gf+vn/trPLxn8ej6ntydKdTI+lPr6hnqsKKKKQgr84/jhf/ABE/Za/b18R/HJvhnrXj3wBrOiQ6U9zoqtM9jGIrfzJCFDbGV7duH2qwf7wJ4/RyqYnS7kkSCdXMTbXEbglT6EA8UAeO/s+/tlfCr9peIxeDvESjWVTzJdB1Nfs1/GvOT5ZJDgAZJQsBxkjNWv2y7b7V+yZ8YEx08K6i/wD3zbu39K+RP+Cp/wAHvA/w18F6N8YfDM0Hgn4pWWsW6Wl5pbi2n1HcSWJCj5pIwN4k6hVIJI2gfT+v67rHxn/YV1bVL6wltNf8SeAJ5rizMDIwuJrBi6qh5wWY7R1wRQM5/wD4JnSrN+xN8OSvRf7RT8RqV0K57/grC2P2KPFi/wB6+04f+TcdYf8AwSW+Juj67+yTpfh99RtYtV8PajeW9xavKqyBJZmuEfaTnafOYA9Mow7GuX/4K/fF7wzD+znD4MtNdsLzxDqmsWsjadbXCyTR28Yd2ldVJKruCAE4yW4zg4BH0V+w3Pn9kf4RLgD/AIp62H5Aj+lfG3/BKX4faJ4l+NXx78T6ppdpf3um6rFFYPdQJKbYyXF2zshYHa37tBkYNfX/AOwXIl3+yD8JZEOdmiRxnI6FXdSPwIIr5u/4JCRoLz4+OHDSHxHEpA64DXJB+mSfyoGfT/7dWhWPiD9kL4sQ39vHcRwaBdXkQkAOyWJDJGw9CGUV4h/wSP8AhH4e8NfsvaV41j0y0fxL4hvL2SfUmiDTrFHcNAsSueVT9yW2jAJbJr6D/bKKj9k34wbiAP8AhFNS6+v2d8frXnn/AATCQJ+w/wDDjbjGdT6f9hO7oDofNX/BaXQ49Ii+EfjWwUWut2t5d2QvYlxKVCxyxfN1+Rldl9C5NfplZXf22wtbkDAmRJMemQD/AFr88P8AgtbAW+Cnw+mwMJ4iZM+5tZT/AOy1+g+hbRoGmbTlfs8WD7bRSA/mA8QArruoA9RO4P8A30a/W3/giQo/4VJ8SD3Ouwj/AMlxX5L+LE8vxRqyHqt3KD/32a/Wb/giP/ySf4k9cf25B/6TimI/SWiiigAoryb9pn9o7w7+y98M5fGXiOKe7hN1FZWtjakCW5mfJCKW4GFR2JPZD3wKz/2Wf2qfC/7WHgq+8ReGbLUtOWwuhZ3dtqMSqUl2K/yujMrjDDuD6qMjIB7TRRRQAUUUgINAC0UUUAFFFFABRRRQAUUUUAFFFFABRRRQAUUUUAFFFFAFQ6VaZJFtCMnJxGOT608WFuP+WMf/AHwKsUUAVv7Ptv8AnhH/AN8Ck/s22/54R/8AfAq1RQBV/s22/wCeEf8A3wKUadbD/ljH/wB8irNFAFf7BB/zyQf8Bo+ww/3F/KrFFAEaQIgwFGK+JP8Agr/Ag/ZBlcRKXXX7EhsDK/6wZ/Uj8a+36+KP+CveP+GOrzP/AEHLDH/fT0AfhtHjfg9DxX9KX7NekWlj+z18NI4bOC33eGdMaRIowoLfZIskgdTX81iffH1r+mP9n/8A5IP8N/8AsWtN/wDSWOgDtRplp/z6wf8AfsU4WFsvS3iH0QVPRQBF9mhxjykx/uikNnbn/lhH/wB8CpqKAIfskH/PFP8AvkUv2SD/AJ4p/wB8ipaKAIDZQHrDH/3yKPsVuOkEY/4AKnooAgNlbkYMEeP90Un9n2v/AD7Q/wDfAqxRQBX/ALOtcY+zQ4/65ivm79tH9rXwR+yb4KSW802y13xnqSN/ZGgbFBkxwZpjj5IVPfqx+Vf4iv0zXgt/+w/8IPEXxS1f4h+J/DbeMfE+pXCztL4huXuoIQqqqxpAT5WwBRgMrY6A44oA/B/Wrj4gftN/EzV9bj0rUfF/irV5jc3EOi2DzNnGAqxxg7UVQFA7ACvpn4Vf8Eivjb48SG68RLpPgGxfaxGq3Inuih7iGHcAf9l3Q9jiv200fRdO8PafFYaVYW2mWMQxHbWcKxRIPQKoAH4VdoA/P34a/wDBGX4T+G/In8Y+Itf8a3UbZeGN1060kGOhSPdKPwlFfWvwv/Zn+FnwYhiTwX4E0XQ5YxgXcdsJbo/WeTdIfxavTaKAE20dKWigAooooAKKKKACiiigAooooAKKKKAGN94V4F8Wefjb4I/3k/8ARle9u3zCvBPiyD/wu3wQMfdaPP4yf/Wr5viFf7JD/HD/ANKR5GbL9xH/ABR/M9+XpTqavSnV9IeuFFFFABTH60+o2Pzimho8R8Sjd+0hoHtaj/2pXt8fSvEtfBf9pTRh2Sz3fpJXtsfSvmsnXv4v/r7L8keLlqtKv/iH0UUV9IeyFFFFABRRRQAUUUUAFFFJmgBaKr3N7DZxNLPLHDEvLSSMFVfqTUWnaxZatGZLK8t7uMdWglDgfkalyiny31E2k7Nl2ikBBprSBOSQB6mqGPorKg8T6Tc3At4dTs5bg8CJJ1LH8M1pCQVMZxmrwdxJqXwu4+imhs0u6qGLRSE4pN3tQA6img06gAooooAKKKKACiiigBG6V4j+0af9G8M+2oD/ANBNe3N0rxD9ozm38M/9hAfyr5ziL/kVVvl+aPNzL/dZfI9ptP8Aj3i/3R/Kp6gtP9RF/uj+VT19DH4Ud8PhQUUUVRYUUUUAFFFFABRRRQAUUUUAFFFFABRRRQAUUUUAFFFFABRRRQAUUUUAFFFFABRRRQAUUUUAFFFFABRRRQAUUUUAFFFFABRRRQBDN9014p8N22/HbxiP76HH4CIV7bJ0NfLP/Ceah4I+M3iy/s9BuvECFtjQWbAOg+TLYPXpXymeVY0sRgpSenP+jPHx9SNKpSnLoz6mTNSV4TH+0dqm0F/Aepw56B9wP/oFTj9oXVzyPA2osPZ//sa9GWc4OLtd/wDgMv8AI6HmGH7/AIM9vorxD/hoTXM/8iBqhHs//wBamn9onWU5Pw91cj2df60v7Zwnd/8AgMv8if7Rw/8AN+DPca+Vvix/wTe+E3xU8aap4rNz4l8J61qk7XV9L4c1QW6XEzfekZHR1yTknAGSSe9dx/w0hqSnn4d6449Ukh/q4rkvib+1xrfhnwp9r0/wNf6XqL3cFqsniFPLtU8x9qlpFJB57A1SzbCtXTf/AIC/8i/r+Htfm/BnHeCP+CU3wX8J+LLTxBq134n8b3Fo4kjtPEeopNbFlOVLJHGhcA/wsSp7givsqJURFRVCoowFAwAPTFfk146/4KufGf4f+PvEnhqfw94DvDpF9JYGUx3A3PEdjkEXOCCwYg46VjN/wWO+L0Tc+DfAzL3Ktc//AB+vVhONSKlHZnapXV0fXnjz/glD8BfHPiOfWYbHXPDEs7mSS20LURFASeu1JEfYPZcAdgBxW7pH/BMP9nLS9KksZPAB1Jpdplvb7Vbx7h2XkEOJQE99gAPfiviBv+CzHxfUnPg7wMP+A3R/9uKP+HzvxZOMeDPBPv8ALdf/AB+rKufrB8OfhroHwm8F6T4T8L2b6foGlRmK0tWnkmMali2N7szHlj1Neefs4fsleDf2YLrxdc+FbrVru48T3a3l9JqlwspBUyFEQKi4Uea/XJOetfnEf+Cz3xaz/wAiV4K/75uj/wC16jP/AAWh+LYB3eDfBIPbEd3/APH6YH6yfFH4c6V8Xfh7r/gzXHuo9I1u0ezumspfLmEbddrYOD9Qay/gf8FvDv7P3w10rwN4V+2f2HpplaH7dP50pMkjSOS2AOWdjgAD2r8rm/4LP/FwgFPB/ggf70V2f/bgVGf+Cz/xe3n/AIpXwKB6eRdZ/wDSmgZ+l/7Sf7LHg/8Aao8NaTofjK51aGw0y9+3wrpd0sJaTYU+bcjAjDMOmRk4Ir1q0sYtPsLe0gXy4II1ijXJO1VGAMn2Ffjz/wAPn/i4F+bwp4GXPQm3u8f+lNNu/wDgsz8XngIi8LeBgSD86wXTEfQfacfhzQB8EeMCT4q1gkYY3kxI9PnNfrJ/wRJ3D4U/Egfwf21AQffyOf6V+RWoXkl9ez3MrbpZnMjt6knk19Jfsl/t2eM/2SfD/iDR/DWl6DqlrrF1HdSf2zFKxidV2Hb5ciHBGOvTb7mgD+gekNfjoP8Ags38WznHhbwM3+5bXbf+3VV77/gs78W5rC9t4/C/hCG5kheOK4gtrgNA5UhXw87qdpwcEYOMHrQIqf8ABUv47X/x2/aI0z4U+Ft+oWPhmX+zktbZixvNXnKrIuAcEp8kIBGQ3m84av1I/Zb+Bdh+zn8DfDHgi0ji+1WluJtRuIx/x8XsnzTyE9/mJUZ6KqjoBX4CfB744az8LvjNp/xOaOx8ReI7G8m1ArrbM0dxcyLIGlk2kMW3SF8hh8wGc19gyf8ABZ/4wklo/CHgVV7AxXTfr9pGaBn7I0V+Nrf8FnvjEM58IeB1HbNvdn/26po/4LQfGE8Dwp4Fz/163f8A8l0CP2Ur5T/bI+AnxI1mCX4j/BPxpr/h74habAPM0O3vybDWIlA+TyJCYhMAPlJXDY2sMkMPhxf+Czfxh4J8I+B8f9e91/8AJVWR/wAFlvi2IGc+CvBrn+95V2F/9Hn+dAFHwF/wWE+L3gLU5NN+IHhjSfFYtnaK4Qwvpd8jg4KllDRgggjBiByOfSvqv4W/8Fgfgr40MNv4og1nwFeMPmkvbf7ZaBvRZINz/i0aj3r8of2kvjpd/tIfEmfxxqXh7RvD2qXNvFFdx6KX8u4kQbRK+92O4oEXggYQcZyT5MTQM/p28BfFTwb8UtP+3eD/ABTo/ie1ABaTSr2O42ezBCSp9jg11Vfy1abq17o95FeWF5PY3cR3JPbStG6H1DKQRX0v8L/+ClPx++F8UFtD40fxJp8WP9F8SQLfbgOxmYibHsJBQI/f6ivzy/Zv/wCCpviX4vXtlpupfBDxBqjFxHc6t4NSW+hjPGWMJTKKM5OZTX6DWV0L21inEUsO9Q3lzJtdfYjsaAJ6KKKACiiigAooooAKKKKACiiigAooooAKKKKACiiigAooooAK+KP+Cvf/ACZ1ef8AYcsP/Qnr7Xr4p/4K9DP7HN8fTW7A/wDjzUAfhonLD6iv6Yf2e23/AAD+GrevhnTD/wCSsdfzPx/6xf8AeH86/pd/Z1Of2ffhifXwvpf/AKSRUAeh0UUUAFFFFABRRRQAUUUUAFFFFABRRRQAUUUUAFFFFABRRRQAUUUUAFFFFABRRRQAUUUUAcd4s+Jll4U1SPTnsb2/vHjEgitIwx2nPPJHofyrHHxqhD7ZPDWuRt6G3XP5bs10Xi2fTtB8rWryFTIrJamcLllV3AH4ZOfzraF0ke0M6qCQqljgEnoBXhyhjZ4ioo11GKtZct2k+7v3uclqk5tKVkcfZfFvTL6/htZNN1S1eQgCSa2IUfU9q4D4qNv+OngZRnDEE+wDnH869W8WZWPTw/Blu44x7dT/ACFeT/FMhfj/AOAlzxtbA9TuavKzSNeNFU69RT9+m1ZW+11+44MwU1RSm76r8z30dTS01elOr7E9oRm2jNchr3xItdE1KWxSxur+4ixuS2ALDIB6E57115Ga5vV4dN8NzXuuyW376by0mkQZY8hRx+P6V5uPWJdJPDVFCz1bV9PJdzKrz29xmAvxjh3bW8PawpHX9yn8t2av6N8T9P1rX4dI/s/ULW8kjMqmeDaoUYzk546jtXUi6UAZkCg8DccZNY+qbT4n0kPjzDBOV45GDHk/rUQw+NhJOeITS3XKl+pKhUjq5nmurSb/ANpTTlx92wzn8H/xr2uPpXiGrHZ+0zpi5BLaaSB+Dj+le3R9K4cm3xX/AF9l+SOLA/FW/wARJRRRX0Z6gUUUUAFITilqORhwCcUxrUjnv7e1x508cOf+ejgUsV7DcLmGVJR6owNfKfiT4V/FrxX4w1KbUbiG008zOYZnvN6+XuOzbGvI4x1xXnHi+Tx58DPE9vGmsskkircIY2LRzqDggg+n9a/P8XxNiMFUbr4SSpJ25rr8j5rEZrXwsuarQahe1z71Z8VGZl6Zwfc1yfh3xpBr3hDR/EEzC2gutPS+lDH5Yxs3N+XNfJ3in4oeL/if4yng0q4uEjndls7GCcxqEHc8jJwM17Wb59QyqhSqqLnKrblitG7npY7MKeCp05W5pT2Xc+m/jxbSXvwh8TqFJKWxkHqdpB4ryD9iIq2neJpEGA7Qc5J/hbj/AD61wt5dfEfwNp1/YeJPtk/h7UYHh8ySZpUibtyclSfTNdr+xjiy0rxNDGSVF1GBnrjYP8a+To4+WZ8RYa9KVOSi7p9rOx4Lr/W81oSUXFpO6Z9SxzAgknAHemTgXMMkbYKOhUkHsRXy5+0v8Z9Y0/W08M6HdNZ29tFvvLi3cq7yHnYD2wP51wlt4V+M2l6UniC2ku7rTjD9oKxXzvNsxnJVjzx2ANe3ieKYwxdTC4ehKoofE01oetVzWKrzoU4OXLu0WfhS/l/GHT7cjfLFqEkBc/xbWIJ/SvsfV9atNC0+61HULhbaytkMkkr9AB/WviL4Q6it38U/DlzuyZb9ZCe5LHJz9c19cfE74fJ8SNFGl3F/Lp8IlErtCMl8dBXi8IVascuxlTCx5p88uVN+lvzOXJU40arpatvQ+fPiP+1d4h1DUHtPCgj0iyVyoupoxLLIOxweF/WvXv2bPGuteNfAt5d65f8A2+7iv5IklCKnyBVIBA9ya8W+Nvwo0z4daNox0+SSbzZXSWSbG+Q4Bzx6V6b+yiAnw81PAwDqT8Dv8iVGT181XEbw2YT15G7L4VtscuEeMWa+zxEuj06HsniPxRY+E9BvNZ1ScW1laoZJHPfHQD3PSvlPWv2g/iB8QtTki8KWcsFqh4t7OPdJtzwXfBwcfSum/bI8QSyWvhzwpbuSbt2up1U/eVRhc+2Tn/gNZHh749eDfhFo9j4f0TQ77W5reFZbyS2CqvmMASzueSefTiujOcwWNx88FLEexo0kuZr4pN9FbsbY3EVMVi3hoT5IRWrW50/wfuvilH42szrNteNo8yMtyb+ThPQrnkt9PevpFD171498Kf2hdB+J2pSabHbSaTfqu6KGeQMJR/sn19RXsEYwK+m4fp4eng7YWu6sb7t3foevl9OnTo2p1XNX3Y+iiivpT0QooooAKKKKAEbpXiH7Rv8Ax7eGSP8AoIr/ACr25/u14n+0WQLLww3Uf2ko/wDHTXzvESvlVZLy/NHnZiv9ll8vzPZ7X/URf7o/lU9QWwxDF/uip6+gj8KO+PwoKKKKooKKKKACiiigAooooAKKKKACiiigAooooAKKKKACiiigAooooAKKKKACiiigAooooAKKKKACiiigAooooAKKKKACiiigAooooAhnJCNjrivDPhpCn/C+PGII5MZx+DIf/Zq90m+61eH/AAxAPx38aZ6qD+ojr5vNf97wX+N/kzysZZ1qXqe4KmRjr9ad5Ypy9KWvpT1LLsM8v6UoTHpTqKLhZCBcVmeJPDGleMNGn0nW7CDU9Mn2mW1uU3RvtYMuR7MoP4VqUVLSaswsnocTF8Evh9BZR2ieB/Dv2ZBgRvpUDj9VOfrR/wAKQ+HRYMfAPhcsOh/sa2yP/HK7aihJLRDOKHwS+HgGB4C8MAeg0a3/APiKU/BP4eHr4D8MH/uDW/8A8RXaUUwOK/4Un8PD18B+GD/3Brf/AOIpR8E/h2owPAXhgD0Gj2//AMRXaUUAcWPgp8PAcjwH4YB9f7Ht/wD4iph8H/AajA8E+HAPQaTB/wDEV11FAHIx/CDwHCxaPwT4dQnqV0mAf+yU6X4R+BZ5BJJ4L8PSSDgO2lQEj8dldZRQB/Lp4ziih8Xa2lvAttAt7MI4V6RrvOF/AcV+pP8AwRk8BeG/Evwy+Id7rGhaZq10uswQrJfWkc7Igg3YBZSQMselflz42bzPGGtuBgG9mOPT5zX6wf8ABEY/8Wt+Ja5GBrVucd/9QaAPva6+DfgG9QLc+B/DdwoGAJdIt2wPxSvxd/4KNeO9B+I/7SEfgD4beHdPstN8Ov8A2OlroljHB/aGqO4EpCxqN5DbIVzn5kbH3uf2p8R/FfwR4Qu47TXvGOgaJdSNsSHUdUggdm9ArsCTXxb+y3/wTJ0r4MfHS2+JGo+OLfx7Z2aPd6Q32PY8lxKGBndvMdSUBOCCdzOGwhQbgZ7/APsx/sjeDPgZ8FvD/ha78NaPqWs/ZUl1i9ubGKZ7q6YbpMswJKqxKqM4CqK9Ik+CHw6lcs/gHwu7Hu2jWxP/AKBXZvMkUTSSMERASzMcAAdSTXlDftbfBRNeXRW+K3hBdSZ/LEJ1mDG7ONu7dtznjGc54oEdAvwH+GiHK/DvwoD6jRLb/wCIqdfgr8PEGF8B+GVHoNHt/wD4iuyBDDIOR7UtAHGD4LfD0dPAfhkfTR7f/wCIriPi/p3wP+A/gTVPG/jDwj4U0zSbFRulGiWzTTyHhIo12Zd2PAH1JwASPaq+efjZ+xZ4V/aQ+Itnr/xH1zXde8P6agTTvCMF0bTT4SUxJI5jxI7sedwdSAAvIHIB+J37UX7R1/8AtJfEE6u2jWHhnQbUNDo+hadCiJaQnGdzIq+ZIxALMR2wuAAK0PhR+wv8cvjJcW/9hfDzVrTT5lWQaprUR0+08tujq823zB3xGGPtX7yfDT9nn4Z/B2KNfBfgXQvD0qLt+1Wlkn2lhjHzTEGRv+BMa9DoA/KH4X/8ETNSmmgn+IvxFtbWBWBl0/wzatK8i9wLiYKEP/bJq+wfhf8A8E2v2ffhattJB4Eg8R6hCu033iWZr9pOc5aJz5IPusYr6dooAr2Gn22l2UNnZ20NpaQoI4oIIwkcajoqqOAPYVYoooAKKKKACiiigAooooAKKKKACiiigAooooAKKKKACiiigAooooAK+Lf+Cuq5/Y21M+ms2B/8iGvtKvi//grkM/saav8A9hew/wDRtAH4YRf61P8AeH86/pa/ZwOf2ePhcfXwtpf/AKSRV/NLF/rk/wB4fzr+lj9ms5/Z0+Fn/YqaV/6RxUAej0UUUAFFFFABRRRQAUUUUAFFFFABRRRQAUUUUAFFFFABRRRQAUUUUAFFFFABRRRQAUUUUAc9470ObxB4Zu7W1WN7wFZoElbCM6MGAJ7A4xn3rzjX9N8feP8Aw+mnnRYPDtzaTJOtzcX6P57LkgKIwSvODk9MV6zrmqwaFpVzqFz5nkW6b38mJpGx7KoJP4CuA/4Xz4ZIXjUwG6M+l3AB/wDHK+ezKGB5msTUcHNWdm1dL07HJWUL+87XI7HSfHniPVNKPiK10nS7DT5hOz2t08ss7BSMAbQFHPOTXI/FWJm/aA8BOOAkZJH1Zv8ACu00v4y2ut+JbbSbTQtYljmOPtv2KRYo+OrEgYHvXGfFWf8A4v74CQA4aPk/8CbH9a8TF1cJWwaqYWTl78E2730em5w41Q+r3i76r8z31OlOpqdKdX3h7CCsDxvptzqfhy6isYkuLwbZIoZG2rIykHaSemcVv1neINatvD2k3Go3fm/Z4BucwxNK3XHCqCT1rCvCnUpThW+Fp39BTScWmeU6pbePPFVlBGnh9LBrWQPm6vY/3mM4xjJGPfFbvhzSfGN54tg1TxBbafZ2VvZvbxww3LTTF2ZSWJ2gAfKO9J/wvTw85UBNRAbkM9hMB/6DUnhf4waf4n8YnQrewvo2MBmS5lt3VDgjI5UY6559DXyOFllMMXGVOtKVSVlvJp22utjhpxoqXxNs5TWYSn7TujuM86U2fzevbo68U1qTd+01oq9B/ZpH/ow17XGMV6OTb4r/AK+y/JE4P4qtv5iSiiivpD0gooooAK5L4meOIfh14Pvtemt/tRt9qxwb9nmOxAAzg49enausPSuD+NPhG68dfDfWNK0+ITagyrJbxs4UO6kELk8DPIzWGIdVUZuj8Vnb1Ma7nGlN0/is7HzZF8Ufi38cten07wvqtn4Uhij895Y4t4jTOMbsZLE9Olcl8VPBniXwle2EXifxIfFN3cQs8d46sCo3YZfmJPb171seB3+JHwpl1OHSvAl7ezXYSORLiFhhkztIcfLtyTn1z1q94v8Ah78RPElifEPiSylvr9os/Y7NQ/2cf3FRPT2zX4pjKtbGZLUhiqc5Ylyvs7Kz2Phq054vKpwqKTq310elj0rw5dTL+zQkpzM6eH5I1HXHyFf0HNeTfs33VsvxWgEjKS1lKI/dvl/pmvoj4LeHpF+D+g2er6fJbM9vJDNZ3KFH2F3HzA8jI5/GvnbxZ8KPFnwn8cST6NZXt/ZJIZNPv4It+9D/AANtHDjkHIwcZHt9DnVGvDD5bmUYOSpRXMtui1/rqepj4ThDB4txuqaV/wDhj6F+NMC3Xwp8SLOAB9mby9397IxXmX7GUbjRvFJY5xfoM57+UtZp034mfFPwxrF/4hsZ7G0s7dntLIx+XJcsAcgR9fTrW/8Asc6Fqmn6T4rGpaddadE19GYTdxNG7sI8NhSM4GF56ZzXZQxs8z4hoYyFKUaag1dq2tm9zqlXeLzKjVjBqLT1seJ/FW/STxbrs9wpLtfTZ46gPt/kK+77FIntLQwENaGJSHU/KVxXzh+0x8Eb6S+h8UeHdNlvopyU1Kzh5KNkbZUUdQeQ3oQD6kc54a1P4xa9pVp4V06wvLLTYohA15dRiFY4sY++w3M2MDAzXjZZUnwzmGKw+IpSn7V3i0r33/pnLhZf2bjK0Jxb59tNzkPhRDHF8XNFjtyGgTVAqnsVEnBH4CvvK4H3q+O/CXww17wt8Z/D9kmj3s1rb3sbSXyQMYBGAWLF8YH+JxX2PPgsa97gmFWnQxDqQcb1G0mraaHbkcJw9rzK3vHzv+1fHmx8PgdFaY49Tha0f2UAT8P9UB4ZdUcf+Q4zS/tQ6ZdX9joQtbWW5O6XKwoWIPy9h6/0q/8Asw+H9S0XwDqSarZT6fLNqTyxRXCFHKbEAbB7ZB/KppU6v+uE6nK+X2e/ToZRU/7acmnax5R+1yjR/EGzmZcj+zEWNj/vvnH513fwJ8A6DD8NNKvIbGC4uNUgE93Ow3GRznKn2GSMe1dn8dvhGfin4WjWwZIddsC0lm7nCyZHzRsewPGD2I9M186eFde+JvwgsrnSR4dvzbuxCx/ZGlER5yV25zknsa8nFUP7Dzqtj8VRdWjUW6V7N9LGdSP9n46decHKMvK5zniS2j8LfG26g0MGCCx1CIQCM8KTsLKMdt2R+lfoFayGS2hdvvMgJ/Kvj/4G/AvxJr3jKHxX4otZdO05Lk3ghuyPPuZdxIyn8C5559uK+wYgAMDoPSvZ4QwdahSr16kXCNSV4xfbua5PQnD2taS5Yzd0iaiiivvz6IKKKKACiikzQAjdMV4r+0Uf9E8IxhQS+tRoQT2KmvYNVjkudNuoreYwXDxOscg6oxBwfwNfD/jP4j+K1uodO1+cyalpd0sv75F3RyIeDkDv2NfH8T5h9Swfs3TclPS/RW1/E8TNsXTw1Dlqp2kfc0JBjXB4AxU1eGfs5+JfEPj+61XxDqs7DTkRbO3t1b92ZM7nbHqMgZr3FTX0GX4pY7CwxCVlJbHoYTELFUY1oqyY6iiivQOsKKKKACiiigAooooAKKKKACiiigAooooAKKKKACiiigAooooAKKKKACiiigAooooAKKKKACiiigAooooAKKKKACiiigAooooAim+6a8Q+GIx8dvGx9R/SOvb5vuNXiXw1GPjn4z9x/SOvms2/3vBf43/6SzycZ/Gpep7ivQUtIv3RS19KesFFFFABRRRQAUUUUAFFFFABRRRQAUUUUAFFFFAH8u/jMbfFutD/AKfJv/QzX6f/APBJD4eWfxL/AGbPjR4dvry/06012/TTp7rTZvKuI4zbYJRiCAcOex4PNfmB40/5G3Wv+vyb/wBDNfrV/wAES8j4M/EQ9j4gjwP+3ZKAPdPAn/BMb9nvwToMmnT+DD4ommXbNqOvXck1w/XkbCiRnk8xqpr53+GfhHSv2Rv+Cn2kfDL4cG5j8G+L9A8zU9Je5edbV1iuZUOWOQVaBCCxOFncD71fQf7RXjn9rrRfH1xp/wAIvh14Q13whJbgQavfXyfao5GQbmZJLmEAqxbACuCAMnnFeRf8E+LvwZp3xd8Uf8LDXW7H9qLV/Pk1pPFkCwNLHu3sunhAI2j2IjHbg7V+UeWvAM+qP2l/2b7b9prwtpHhjVfFOr6D4ch1BLzU7HSmVP7UiXpBIx6Luw3Q8gHGQCOQ8R/8E7vgD4g8HS6Cvw803TMwiOLULAyRXUTBcK/mhtzMO+7IPfNfSdfOH7b37USfs6/DWOz0KM6r8SfE7nTPDOj26+ZNJcOQnnbByVQuuBj5nZF43EgA8D/4JK/EXxPNB8U/hXrupy63p3gW/ig028kdn8tWluI3jVmORHmBWRe25/Wv0Lr5k/4J/wD7K837LfwVFnrRSXxr4gmGp63KjbvKcriO2DZ+YRgnJ6FncgkEV9N0CCiiigAooooAKKKKACiiigAooooAKKKKACiiigAooooAKKKKACiiigAooooAKKKKACiiigAr4w/4K5f8mZ6x/wBhew/9G19n18X/APBXM/8AGGmrf9hiw/8ARtAH4YRf65P94fzr+lf9mr/k3L4V/wDYqaV/6RxV/NRF/rY/94fzr+lf9mr/AJNy+Ff/AGKmlf8ApHFQB6RRRRQAUUUUAFFFFABRRRQAUUUUAFFFFABRRRQAUUUUAFFFFABRRRQAUUUUAFFFFABRRRQBna9rNr4e0u41G9kMVrbjMjYzjJA/rUljeR32nw3kLl4JoxKh24ypGQcfSp7uGOe3eOVEkicbWWQAqR75qHzo40ADIFXgAdhWTfLK8pKwddWOjlFxCkqMTG6hl4xkEV4T8WBs+O3gJgOOFJ9txxXr3/CY6RDr0WivdLFeyJmJG4WT/ZU+vtXkPxZZW+O3gP0cDjHTDt/jXzmc1IVsInTknacE7d+ZHl5k1LDrld9V+Z78nSnUi9BS19OemgqjrOrW+iWEt7dMVt4sbiBnqcD+dXqhu4o5rd45kR4mGGWQAqR75pSTcWouzB7EMUyy2a3CsWidN4GOoIz0qRDvVSD8pGR9Kj8+KKMDegVRgAHoPas218V6VPrn9kJeIb7y/MERBG4DrtPQ4yKx9tSjJRc1d6dCuZLdnl2u8ftL6Icf8uLAfTa9e1x9K8T19v8AjJ3QlGCG0wnHof3nP5V7bH0rxcnTUsUn/wA/JfkjzMH8Vb/EPooor6I9IKKKKAGsQOtYl/4v8P2EzQ3Wt6fazL1SW5RSPwJrXmPBFfnR4w0GXxH8WdZ0q3RZL+61WWCLzDj+M4/QV8vnuc1MnjSlTp87m7bni5nmMsv5OWHM5Ox94Hx94UkbaPFOkMemPt0Wf/QqenjXwurFl8SaVnHJ+2R9Pzr49h/ZK8ZOgZILBuhys4wf++gDTv8AhkvxqMj7HZAn0nT/ABryf7azqOrwVjj/ALVzFLXCP70fYh8YeGSu46/peOuRdpj+dN/4Tzwsg58S6SF/2r2P/Gvjg/sjeN+D9kszz3uF4/Wm/wDDJHjUbs2Nrk+k6HP61P8AbucPR4L8w/tXMX/zCP7z7KXxl4YyH/4SHSvqLyP/ABqRvGvhknP9v6X/AOBcf+NfF/8AwyT41PB0+0x/12T/ABpv/DIvjMNlbC1A/wCuy/40/wC3c2W2D/MX9q5h/wBAj+9H2g/jzwvGMt4j0pAfW8jA/nTB428LzD5fEWkEeq3kf+NfGa/si+NADmwtB/23X/GnJ+yV4zQAfYrU9MnzVo/tzNW7vBCWa5hfXCP70faCeN/DCgD/AISHSuOn+mR/40j+OvDAOG8Q6WCfW8j/AMa+MH/ZI8XNz9htt3qJR/jR/wAMk+NMACytiPedf8aP7dzX7ODD+1cf0wr+8+zP+E38Mcn/AISLSce95H/jSr4x8NAZGv6Zg9xdx4/nXxi37I3jFyd+n2jA/wDTZT/WkH7IPi8ciwtVx0AmAx+tV/bubb/U9R/2rmG6wrv6n2f/AMJz4XzgeItLB9Ptkf8AjR/wm/hhmwPEekk+n2yPP86+MT+yN4yI+axtT7eeP8aB+yL4wU8afZ9P+eyn+tL+282kvewYv7WzDrhH959pN4x8Oc517Tfwu4/8acvjbw4ox/bum/8AgWn+NfFi/sleMVXH2G2/CZeP1p4/ZO8YZ/48bc/SZf8AGp/t3N1osFp6kPNsx/6BH959p/8ACceHB/zHdN/8Ck/xo/4Tnw7/ANB3Tf8AwKT/ABr4uH7JvjA9dPt/+/y/404fsl+L/wDnwt/+/wAv+NV/bubf9AL+8n+1Mx/6BH959n/8Jz4c/wCg9pv/AIFJ/jR/wnPhz/oPab/4FJ/jXxl/wyZ4v/58bb/v8v8AjR/wyR4vP/Lna/8Af4VLz7Nl/wAwL+8f9qZh/wBAj+8+yz468NDrr+mj/t7T/Gmnx74Z/wChg0wf9vaf418b/wDDIni4j/j2s/8Av8KUfsheLcc21mD6icVUc7zmW2Af3lf2nmH/AECv7z7DPjjwzJgjxFpZ/wC32P8Axr47/aVutP1D4s3tzYX1rcW0lpb/ADwTKwaQBs5I69E/yKJv2QvGIBIhs5FPbzxkCoE/ZO8W2WD9lhw3GfMHX8K8nOMVnOZYX2H1Tl1T77HHmFfG47D+zlh2tT6X+Cus+FPC/wAL/DthFr2nBvsyyzM1wikzP879T2ZiPwrvB438O7QRrum49ftSf418Yn9k/wAWbty2NsrHuJhyKcP2XfFyn57OIeyyCvQo5xm9GnGksA7RSW51wzDG04qEcLovM+zP+E58OH/mPaaf+3tP8aX/AITjw7/0HdN/8C0/xr4yP7Lni7tYQEf9dKP+GXfFw6WEP/fytP7ezXrgX95LzXMP+gR/efZh8deHB/zHtN/8C0/xpP8AhO/Df/Qf0z/wLj/xr4zP7LvjD/oHwn/toKYf2W/GR/5h8H4yirWe5o/+YJ/eL+1sw/6BH959n/8ACd+G/wDoP6b/AOBcf+NL/wAJz4cP/Me03/wLj/xr4tP7LHjPtp9v/wB/RSf8MseNB/zD7f8A7/L/AI0/7czP/oCf3i/tbMP+gR/efaf/AAnHh3/oPab/AOBcf+NL/wAJx4d/6Dum/wDgWn+NfFf/AAyz41/6B9v/AN/l/wAaP+GWPGv/AED7f/v8v+NH9u5n/wBAT+8P7WzD/oEf3n2n/wAJx4d/6D2m/wDgWn+NH/Cc+HP+g9pv/gXH/jXxb/wyx41/6B9v/wB/l/xo/wCGWPGv/QPt/wDv8v8AjT/tzM/+gJ/eP+1sw/6BH959pf8ACc+HP+g9pv8A4Fx/40f8J14c/wCg9pv/AIFp/jXxZ/wyv42P/Lhbf9/l/wAaX/hlbxr/ANA+2/7/AC/40/7bzP8A6An94f2rmP8A0CP7z7S/4Trw5/0HtN/8C0/xo/4Tnw5/0HtN/wDAtP8AGvi0/sreNf8AoH23/f8AX/Gk/wCGVvG3/QPtv+/y/wCNH9t5n/0BP7w/tXMf+gR/efaf/CceHf8AoPab/wCBcf8AjR/wnHh3/oPab/4Fx/418V/8Mr+N/wDoH23/AH/X/GkP7K3jj/oH23/f9f8AGj+28z/6An94/wC1cx/6BH959q/8Jz4c/wCg9pv/AIFx/wCNH/Cc+HP+g9pv/gXH/jXxT/wyr44/6B1t/wB/1/xoP7Knjj/oG23/AH/T/Gl/bmaf9AT+8X9q5j/0CP7z7W/4Trw5/wBB7Tf/AALj/wAaP+E68Of9B/TP/AuP/Gvij/hlTxz/ANA22/7/AKf40n/DKXjr/oG2v/gQn+NL+3M0/wCgJ/eH9q5j/wBAj+8+2P8AhOvDf/Qf0z/wLj/xo/4Trw5/0H9M/wDAuP8Axr4o/wCGUfHR/wCYba/+BCf40o/ZN8dH/mG2n/gSn+NT/buaf9AT+8P7VzH/AKBH959rf8Jz4c/6D2m/+Bcf+NL/AMJx4d/6D2m/+Bcf+NfFP/DJXjk9dOs//AlP8aUfsk+OR006x/G6T/GpefZt0wL+8f8AamZP/mDf3n2kfHvhpeviDTB/29x/404eOfDrMANd00k9B9qT/Gvi0fslePAeNPsh7i6T/GsfxT+zT4t8NaHe6tqNlbx21pEZppEnViFHU4Bqamf5tSg6k8E0l5jeaZjFOUsLZLzPvjTtc07V9/2G/trzZ94W8yvt+uDxV6vjv9ieH7P4v8QoMYexjbK9PvcV9hL0r6fJsyWbYOOKUeW99PQ9zAYp43DxruNr9B1FFFe2egFFFFABRRRQAUUUUAFFFFAEUv3GrxT4cD/i+PjH6f0jr2uX7jV4p8OT/wAXy8Y/7v8ASOvmc3/3vBf4/wD21nk4z+NS9T25OlOpqfdp1fTHrBRRRQAUUUUAFFFFABRRRQAUUUUAFFFFABRRRQB/Lx41x/wl+t46fbZv/QzX6rf8EaPFuieGfgh8SZ9Y1Sy0i3g1+B5bm+nWCJA8CqmXcgDLIwHPWvyq8cH/AIrHXD/0+zf+hmv0r/4JNfB7wb8avgJ8V/DvjTQrfXdIvNatPMgmZlIKQsUZXUhlZSzYKkHk0Afp9bePPDN5ZG8t/EWkz2gGTcRX0TRgf7wbFfmp+0t4+0r9o/8A4KF/BTTfg1qEWta94XuI31jXtNJe2iijuEmkUyrw6JGJASMoxn8vJJIr3F/+CQ/7P8l9NObXxJ5Mn3bU6uTHH/unZv8AzY19DfBH9mL4Y/s6WVxB8P8AwlZ6FLcrtuL3c891Ouc7XnlZnK5GdudoPQCgZzH7XP7WGhfspfDi31m/tjq3iXVpDaaHoSPtkvJxjcT1KxpuUs3+0q9WFeNfst/AePT/AB6/xt+PHizSdZ+NGrKfsemy3sSweHoSpAt4Y9xHmBWIOMhcsAWJZ29q/aD/AGNPht+05r2jat46tdTurnSbeS1tls797dAjsGOQvU5A59h6CvHj/wAEif2eSpA0vXwT/F/bD5HJPp+H4UAfXmj+MdB8Q3ctrpeuabqV1Cu+SCzu45XRc4yVUkgZ45rYr50+CP7Anwe/Z88aW3ivwfpGpW+u28UkMdzc6rPKArrtYFC205HqDg8jtX0XQIKKKKACiiigAooooAKKKKACiiigAooooAKKKKACiiigAooooAKKKKACiiigAooooAKKKKACvi7/AIK6H/jDXVf+wxYf+jDX2jXxZ/wV2/5M21P/ALDNh/6MNAH4Zxf62P8A3x/Ov6V/2av+TcvhX/2Kmlf+kcVfzUxf62P/AHx/Ov6Vv2av+TcvhX/2Kmlf+kcVAHpFFFFABRRRQAUUUUAFFFFABRRRQAUUUUAFFFFABRRRQAUUUUAFFFFABRRRQAUUUUAFFFFAFHWbBNV06a0kZ41lXG+M4ZT1BH44rkR8M9Ok2+bd6hJIOjrcup/Qit7xpq0uieG7+8gkSKZFCRySDKRszBQzewLAn2FcLqfgSY20Nzc+LdXS+YrGZWvNiSSMcABMbRk9FAr57M50ozT9g6soq+jtZfN6nFiI0t5xuzprP4a6FZX9vfiy8+/gOY7qdi0i/QkmvLfilET+0B4Fb+7GCB9XbP8ASul09vFHw+8UabBqGonXdC1OQ2wuHX95by4ygYejcjI4yOQM1z3xUdf+F7/D88gkOOeuA1eNjatOeDVNUXSkpwun5ta3W55+LcFh0oxtZr8z39fuilpF6UtfcnuIKz9d0yLWNNms5mkRJMfPEcMpByCD9RWhWJ4x1KXR/DGqXsMqwywW7OkrAERnH3iDxgdeazrShGnKVRaJO/oErWfNsc+Phpp0oAkub6Vum4zsD/Orul/DnQtI1aHUorJX1KNGjS5kyXRT1wc965XV/Atw2n29xceJtWe/cpGc3pVXc9gowOvYCl8JN4m8IeNIdJ1KaXWtC1C1kmt9QbBNvLGV/duevzByQRnO09K+Tws6VLExisFKMd1PRpX+bZ5tP2MamkDD1xcftP6GQckacw/Rz/WvcU6V4ZrTFv2ntDbs2nMevoHFe5rXbkzTeKt/z8l+SHg2nKrb+YdRRRX0h6QUUUUAQSdfevhCxjA/alttvUeIn6n/AGyP5Gvu6X79fCNudv7U0XH/ADMh/wDRlfBcVaVcB/19X6HzmdWToP8AvI+6xbKrEKAKf9nBqQcsakr9A5mfTOTK/wBmHpR9mHpViilzMXMyD7MKPswqeijmYczIPsy0fZVqeii7DmZB9lWj7KtT0UczDmZB9lWj7MtT0UczDmZB9mWj7KtT0UrsOZkH2VaX7MtTUU7sOZkP2ZaPswqaildhzMh+zij7OKmop3YczK5gHak8g+lUfE3iax8JaJd6vqUvkWVqm+RsZPXAAHcknFeJWvxY+JHjwSXfhjw/ZW+msSIJLtjlxkgHOfb0rx8wzajlzjCScpvaMVd/cctbGQw7UZavstz3fyAzcsBXG6BqviO++IGtafqOmJa6DbxAWd2D80r8H16YNVPh/r/jK7FzD4v0u2s5VUNBLavuV/UH9Kr+DviZfeIfij4k8N3VrDFbWMKyQSx53N93Of8AvquarmkJ/VZKbp+0lazWrsno+w/rUZqDvbm6M9HWAdsUotyfSvN/i58Sr/4eS+GpbSOB7W+1IW10ZgSQm3PHoevPtXOat8TviTq1658NeGLT+ywAY7meTcZM99oIIqsZn+EweJeDk26qV+VK7aIrY+lRm4O7a7I9tFtR9nFeQ/Db4y61qvjO48KeLdNg0zVFiEkTQkgP3IwSe3PXsa9lU5Ga7MBmVHMqbq0HonZ3VmmujNaOJjXjzQZCLYUv2Zamor0+Zm/MyH7MtH2ZamoouwuyH7MtH2ZamoouxXIfsy0fZlqaii7C5D9mWj7MtTUUXYXZD9mWj7MtTUUrsfMyH7MtH2Zamoouw5mQ/Zlo+zrU1FF2F2Q/Z19qXyBUtFF2F2ReQKPIFS0UXYXZF5ApPIFTUUXYczK7xYHFcF8bYj/wqPxdz/zDZh/46a9DccVwnxsx/wAKl8Vjt/Z8o/8AHTXDmErYOs/7r/IwxM2sPNrs/wAj57/Yt2/8Jv4hxniwjx9PMNfYC18efsXH/iu9dHY6ch/8iCvsJa+V4O/5FFP1f5nj5J/uUfn+Y6iiivtz3QooooAKKKKACiiigAooooAil+41eJ/Dk/8AF8/GH+7/AEjr2yb7jV4j8OD/AMX18Y/7p/lHXzGb/wC94H/H/wC2s8nGfxqXqe4p92nU1Pu06vpz1gooooAKKKKACiiigAooooAKKKKACiiigAooooA/l38bc+L9b/6/Zv8A0M1+sn/BEhB/wqb4kN3OuwjH/buP8a/JzxwMeMNcHpezf+hmv1h/4IjPn4U/EpfTW4D+cH/1qAP0mooooAKKKKACiiigAooooAKKKKACiiigAooooAKKKKACiiigAooooAKKKKACiiigAooooAKKKKACiiigAooooAK+K/8Agrv/AMmb6l/2GrD/ANDNfalfFf8AwV3/AOTN9R/7DVh/6G1AH4ax/wCuT/fH86/pW/Zp/wCTcvhV/wBippX/AKRxV/NTH/rk/wB8fzr+lb9mr/k3L4V/9ippX/pHFQB6RRRRQAUUUUAFFFFABRRRQAUUUUAFFFFABRRRQAUUUUAFFFFABRRRQAUUUUAFFFFABRRRQBymu+JdMt9WXRL8CT7ZASY3AKFTkEMO4IrmNO8DeE7XXjqrXNxf3Ec/nWlvdXZljtTjGI484AHbOcYGK7HXfAeh+ItRiv7/AE6Ge9iTy1uDkOF54yO3NUT8LPC7DDaRDJxjLsxP868HE0MbVqysoOP2b3uvWxxuFSVRuSTXQzfEfimxOs6To8ciXF1cTrIVVsmNVIIY1578W32/tBfD2Nfush4+jGvW9N+HPhrRrxbqy0Szt7pek6xjf+deS/FsBfj38P5cchdn5uc/zrzMx+uRoe0xbi7zhZRT0V+tzkzDnWH997tfmfQCdKdTU+6KdX2B6yEPSuR1PxNpF9quo+Hr1VnXyvKnjlxsYMmSpHcEH9a64jNc/qfgHQdY1JtQu9NhkvWUK04BDOB0zjr+NcWMjiZU7YVpSvrzK6a6oxqqo4/u9zktE8CeHNGvoLhdUv8AURasTZ2l/fedHbcEZVTycAlQWJwK1R4m0258V2uiJOst28TzYVs7QMcfjmr7fDDww+d2jwN25yauaV4M0TQLjzdO0q0s5sbTLFEA2PTNedSo5lCcVBwjDrZNu3ZBCM1pojyXX5Cn7UfhyID5f7Lb/wBqV7snSvC/Ew8v9qHwyw6nT3X/ANGV7onSssm+LFJ/8/H+SOPBO8q3+L9B1FFFfSHphRRRQBBL9+vgyNsftSw5/wChkP8A6Nr7zk+9XwUD/wAZSRH/AKmX/wBq18DxX/FwH/XxfofM55/y5/xH3yvWn0xetPr73qfTBRRRTAKKKKACiiigAooooAKKKKACiiigAooooAKKKKACiiigDwr9rKd5PBOn6amSt5fIJAD1VVJ/nivUPCulW+l+FtItYQvlQ2kSDA64UVyX7Qfg278U+DBcafGZ73TZRdCBfvSxgHeo98cj1xjvWH8NfjPpEnhyztNUuvIubdBGHcYWRQMA59exr4x4mll+dVauLfKpxjyye2m6v6ni+0jQxspVtmlZnrMkKt7AA14t8Ooy37RHjJ+ii2IHvzGK9P8ADvjzR/Fs13Fpdx9pNsVEu0cDOcfyrzD4dYj+PHixeTIY3Bz/AA5KHFLOMRTxGJy2pTd4yqPX/t1nRjKkZVKMlqrjP2n7db3S/C0DE4bVBwOpyuP617RpWnxWenWcaIAEiUAAdsV5D+0CFS/8EpIMh9S2qD/e4xXtVquIoh/sj+VdWCgnnmMqtaqMEvSzFh7SxlVtbWPnr4rhtO+P3hy7iyhlhtwWH/XVlP5jivo+E5jU+1fPPxkkQfGLwtGTiTbCVHr++P8AWvoWAbYlB7Cscn/5GOPSWnOvy1M8I74it2uSUUUV9geuFFFFABRRRQAUUUUAFFFFABRRRQAUUUUAFFFFABRRRQAUUUUAFFFFADW6Vwvxq5+E3iof9OEv/oNd03SuF+NIx8KPFX/XhL/KvPzL/ca3+GX5MwxP+7z9H+R87/sY8ePtb/7Bqf8AowV9hLXx5+xl/wAlB1v/ALBq/wDoxa+w1r5ng3/kT0/VnkZH/uMfV/mOooor7Y94KKKKACiiigAooooAKKKKAIpvuNXh/wANz/xffxiP9k/yir3Cb7rfSvDfhv8A8l78ZD/ZP8oq+Xzf/e8F/wBfP/bWeRjP41L1PdU+7TqanSnV9QeuFFFFABRRRQAUUUUAFFFFABRRRQAUUUUAFFFFAH8vXjn/AJHPXf8Ar+m/9DNfq7/wRG/5Jb8S/wDsNW//AKINflD44/5HLXP+v6b/ANDNfq//AMERh/xa34ln/qNW/wD6IoA/SeiiigAooooAKKKKACiiigAooooAKKKKACiiigAooooAKKKKACiiigAooooAKKKKACiiigAooooAKKKKACiiigAr4q/4K8f8mcah/wBhqw/9DavtWvir/grx/wAmcah/2GrD/wBDagD8No/9cn++P51/St+zX/ybn8K/+xU0r/0jir+amP8A1yf74/nX9K/7Nf8Aybp8LP8AsVNK/wDSOKgD0eiiigAooooAKKKKACiiigAooooAKKKKACiiigAooooAKKKKACiiigAooooAKKKKACiiigAooooAaRyK+f8A4u4Hxz8BHr84x/32K+gG7V8/fF85+O3gAejD/wBGCvnM+/3aH+OH/pR5GafwY/4l+Z9Ap0p1NWnV9EestgooopjCmkU6kNAHhXijJ/ai8Neg05j/AOjK90TpXhfiQ7v2pfDw9NNP/tWvc07183k/8TF2/wCfj/JHlYDWVb/EPooor6Q9UKKKKAIJeHr4H5/4ahT0HiX/ANq197ynLcV8Dg/8ZOheh/4SbOO/+ur4Hi2/PgX/ANPF+h81nidqPqffq9fxp9MWnZr74+lFopM0hcCgB1FVJtUtLZyktzFGw6hnANSw3UdxHvidZEzjchyKhThJ8qauJNN2TJqKj80DOSBjrk0scySruRgy+oORV9bD62H0U0uAQKryalawj57iNfqwqZSjBXk7EuSjuy1RVOPVrOZ1RLiNnb7oDDmrY5pRnGesXcIyjLWLuLRRUbzpGrM7BFXqScAVZW2pJRVKDWLO5kMcVzFK4/hRwTVrzAM5IAHUmohONRXg7omMlJXTH0VTOr2Skg3UQx6uBVsEMMg5HrRGcZ6xdwUlLZi0UUVZQjDNchrXwj8IeILprm/8P2M07HLOI9pY++MZ/GuworKpShVXLUimvPUicI1FaauY2ieE9K8NWpttK0+20+3JyY7eJUDH1OBz+NLZ+FNK0/VbjU7bT7eDULj/AF1yi4eT6mtiin7KmlGPKrR2029B8sbJW2M7U/D2naz9nN9Y2941u4lhM8YYxuP4lz0NXhGAABxin0VSjFNyS1Y0kndGTfeFNI1LU7fUbvTbW5v7f/VXMsQZ0+hPStUcUtFCjGLbS3EopapBRRRVFBRRRQAUUUUAFFFFABRRRQAUUUUAFFFFABRRRQAUUUUAFFFFABRRRQA1ulcN8af+SU+Kv+wfL/6Ca7pvumuG+M4z8KvFX/YPl/8AQTXn5l/uVb/DL8mYYj+BP0f5Hzp+xmf+Lhaz/wBg0f8Aoxa+w1r47/Yy/wCSha1/2DR/6MWvsRa+Z4N/5E9P1Z5GRf7jH1f5jqKKK+2PeCiiigAooooAKKKKACiiigCKb7rfSvDPhuf+L++Mx/s/0ir3Sb7jfSvCvhvx+0B40H+x/wCyxV8vm/8AveC/6+f+2s8jGfxqXqe7p0p1NTpTq+oPXCiiigAooooAKKKKACiiigAooooAKKKKACiiigD+Xnxx/wAjlrv/AF/Tf+hmv1h/4Ijj/i1PxJP/AFG4P/RFfk/44/5HPXf+v6b/ANDNfrD/AMESB/xab4kH/qOQf+k4oA/SSiiigAooooAKKKKACiiigAooooAKKKKACiiigAooooAKKKKACiiigAooooAKKKKACiiigAooooAKKKKACiiigAr4q/4K8f8AJnGof9hqw/8AQ2r7Vr4q/wCCvH/JnGof9hqw/wDQ2oA/DaP/AFyf74/nX9K/7Nn/ACbp8LP+xV0r/wBJIq/moj/1yf74/nX9K/7Nv/Juvws/7FXSv/SSKgD0eiiigAooooAKKKKACiiigAooooAKKKKACiiigAooooAKKKKACiiigAooooAKKKKACiiigAooooAQ9RXz78Xf+S7eAj/tD/0YK+gW618/fF3j45+AP94f+hivmeINMLD/ABw/9KR4+afwI/4l+Z9ArTqatOr6XqewFFFFMApD0paSgDwzxCwX9p7RCc/8g3j/AMi17gM5yBXgvxW8N+MLX4v6b4m0LRhqNpDZeSsnngBXJYEMvXGD1q5H47+KrEj/AIRq0hXsC24n/wAer4jDY3+zcRiYV6Uvem2mle6aR89QxKwtWrCpF6yvse4ZPpRk+leKjxn8Ujj/AIktmB7oc/8AoVL/AMJn8Ue2i2TnsCpH/s1dr4jwsXb2dT/wBnZ/aVHs/uZ7Tk5rBv8Ax7oGl+Io9BvdUgtNVkiE0dvO2wuhJAIJ4PIIx14rzV/GnxZK/uvDekkjvIzf0evGvjpeeJ9SUap4isLLSL8osCJbTMxkVSWyQeFGTwMmuDMOKqOFoe1pU5N3Wkk4r7xYnHxpUvaQX36H2I253BUZB79q+ColI/alcY3OPE5Bx2/e/wCFcvo/xt8c+Hb6KPTtX1C4MbbUt1MtwGHPG0bv1/Sr3gK+ur/456Tf3itHez6wjzo4KkOXGcivls0z+lm6wiVNwaqJ67b9H1Pn8dmMcXGnHkad0fosOlRz3cFpHvnlSJOuXbApS2FyOa4Tx/8ADOw+Id5ZTajdXaQWyFPssEhRXJOckjmv1rFSrQoSnh4c0+ivb8T7SpzqF6auzqY/FuizTCGPU7R5m6RiZdx/DNXpnDfKcg18/fEf9nvw5pngPxBqWmRSWOpWto9zFKJCSGQFgM9ecY6967D4D+K7nxX8KPD15fTGe9EJikkJyX2MVBJ9cAZrx8FmGJ+vfUMbTUZOPMmndPv9xx0MRU9t7GtGztdNHm1l4VXxp8aPGumTyvDCkrSBlJyOFHH51734P8M2/gzw9b6ZZ+c9vEWcvM+92zyST615X4CQR/tFeNBnIKk/99LGa92QfJxXh8KYTDxWIxSj+89rUTd3tfYywFGEZTqfauz57+InifxX8QLe4g0yzn0XRLdWaSaRirTAdSSO3HT866/9miR2+GFsrzGc+fKQ5Yk43n1rsPiDGD4H8QsRj/QJxkcc7DXGfszIE+HZGMYupMD05rOhg62E4ijOrXc3OEnborNWsvIwdF0sdGTndtM9J165Nto1/MCR5dtK+fopNfNvwc+GkHxH8LprGq3l9byNK6gQScthup/H+VfQ/jdbiTwbrwtYmnufsUwjjQZLnYeB6mvnL4c+MfGPw58JQ2Fv4L1K7hhZ5DI0DdS5LDpnvV8Qqi8xwksVCTpRU27XtfS17GeYKlLF0vbxbik9j1jRfgVpel63Z6nHq+pzm1YOsEsg2sw6E8ZPPPWvTTdLBG7yMEVepY4Arw/wf+1NoWs6ymma1bS6FeM6xjz1ZVDE4wcjjnA5r1/xFpMfiPRrvTGla3WePCzJzt9DXrZXUwEsPVnlEfe3s7rXpe+yZ24V4ZU5/Ulr28y/b6pb3ihoJVmXplDmvEPiBe3XxO+Jq+Cbe6kg0jToftF80EhVpJD0U47DIr0DwR4HfwLp7WR1GXUtzlt8oxtHoBXDfBy0Wb4neOr+UZl89k3HrjzGA/Ra83MquNxVLBYSvH2cq0vfSe0Y3k1fzSIrOpVhTpTXK5blDxV+z8NN8N3N74c1C8t9UtUMscbvuDlecA9c8d66r4X+Mk+MXwsKXwaG+ZDaXwiO1kb+8PqMH659K9NJBAB6NwRXgX7NQWy8W/EHT04SK94T+6u58D/PrV1MNTynNcPHCLlhW5lKOrXuq6a7PuCw8MHWiqe0tGjG+OXw7i8D+A5dQs9SurkCaKIrcNklWYDGRz+NfQvgiVpvCOiu5yzWcRJ/4CK8p/anYRfCict0+2Qf+h16r4FAXwboY9LKIf8AjgrLLcLSwWf4mlQVo8kXa7ererJoUadDGVI09FZG9RRRX3Z6wUUUUAFFFFABRRRQAUUUUAFFFFABRRRQAUUUUAFFFFABRRRQAUUUUAFFFFABRRRQAUUUUAFFFFABRRRQAjdDXD/GYf8AFqvFX/YPm/8AQTXcHpXD/Gc4+FPiv/sHTf8AoBrzsy/3Kt/hl+TOfE/wJ+j/ACPnH9i85+IGue2mr/6MWvsVOlfHP7FvPj7Xv+wav/owV9jJ0r5rg3/kUQ9WeRkX+4x9X+Y6iiivtj3wooooAKKKKACiiigAooooAjl+430rwr4cf8nB+Nf+uf8A7LDXusv3W+leFfDfj9oTxr/1z/8AZYa+Xzj/AHrA/wDXz/21nk4v+NS9T3dOlOpqdKdX1B6wUUUUAFFFFABRRRQAUUUUAFFFFABRRRQAUUUUAfy9eOf+Rz13/r+m/wDQzX6xf8ESP+SSfEf/ALDsP/pOK/J7xz/yOmu/9f03/oZr9Yv+CJP/ACSP4j/9h2H/ANJxQB+kVFFFABRRRQAUUUUAFFFFABRRRQAUUUUAFFFFABRRRQAUUUUAFFFFABRRRQAUUUUAFFFFABRRRQAUUUUAFFFFABXxV/wV4/5M41D/ALDVh/6G1fatfFf/AAV4/wCTN9Q/7DVh/wChtQB+Gqf61P8AeH86/pX/AGbf+TdfhZ/2Kulf+kkVfzUJ/rU/3h/Ov6WP2bf+Tdvhb/2Kulf+kkVAHo1FFFABRRRQAUUUUAFFFFABRRRQAUUUUAFFFFABRRRQAUUUUAFFFFABRRRQAUUUUAFFFFABRRRQA1utfP8A8Xv+S5fD/wD3/wD2da+gG6ivn74v8fHL4e/75/8AQ1r5niH/AHSH+OH/AKUjx81/gR/xR/M+gVp1NWnV9L1PYCiiimAUUUUAIRmmmMGn0UAR+UvpR5I9BUlFO4rIZs5FecePfgRofxI8R/2prV3qEsQgWAWUM3lxADOTwM5Oeee1elUVzYjD0sVD2deKlHsyKlOFWPLNXRyHhr4e6B4GsorDQdLgsIEzkoNztkn7znLHr3NfFsWE/aeaNBwPEpTbnoBJjP6V9+OoGT3r4CiXP7UhPdvE5/8ARpr4biqEIfUYQVkqisl8j57OVGMKMYq2p98L8sXXpXz1rPjPxL8S/ixqPhTT9am8OaHppcXEmn7VuJgvB2uQSOSB+dfQ0fUg8814J4v+D/izQfirP4w8GfY7y2vVzc2N1N5ZDn7w+6QQSFPXOa9niKli6lGl9WTcVJOai7Nx6pHq4xVnTj7P5+g7xP8ADTT/AA34V1zVv7e8QanNDZyMy6rfmZZMA8bSBmp/2Z02/CuwiTJVZpmVvYyNx+FR6t8OfiT8RYJIdbvtL8P6SVI/s61BlkkP+2+3+RrufhL4Bufh54ItNDvJ47q5hkkcyxrtX5mJAA/GvIy7B8+fLHUMPKnRULXl9p+jba0MoUpyxUaqVopM4bwJNv8A2jPGK5/5ZjGPZYwa94j+4K+d/hxdp/w0f4wUtg4l7/7UYr6Gj+YcV18KNfV8R/19n+ZWXyU4zd+rOf8AiTx4B10DvaSD9K439nFdvgErnJFzJn867vxtpNzrfhDVrC0Ae6nt3SMFguWIOOe1c18EvCeq+EfB/wBk1iJILwzMxjSTfgH3FdNbDV5cQUsQovkVOSv0u2tCasJvHQklpZ6noA4+tMd2zwPm7Vk+MINZn8NXyeH5YYdYKZtmuPuZyMg8HqM15Bb698X7OFoJNCgubtf4y6CNuvIIP869PHZm8BOKlRlOL6xSfytc66+Kjh5JSi3fyuUv2tNKsm8JaZdSQo2rteJHA5A3beSwPtwPxxXr/wAO5Jz4C8Ofasm5awhZ93X7o657149pvwZ8Z/EjxVZ618QL2O3sLVg8en20gYnB+6cDCg98Ek17N4ws9WPhLUotARDqohK2itIEGewyeleFlka1XG4rNXRcYySjGL0k7at28+hyYeEvb1MU42TWi7m55e5jnj+teKfC6/i0j4q+MNNmPl3NxKziNzyMOSMD3D5rrPgzpvi/TfCksXjMr/aZuGZFWYS7U7ZYe+T7Vm/Fn4X6lreq6f4o8MskHiCyBSRC2z7THnI+bpleevUEj0rXGrFY2jhsyo03GpTd3B7tPRr1tqi8QqlaEMRBWceh6VLNHDbyTuwWOJS7luAAOTXiX7ONq1xq/jPWymEv74qreuCT/wCzUl94f+K3j7Szol99i8PWcgKz3iSZldfQKuQc9eo/CvWPBPgmy8B+HLTR7EFooFw0rffkYnLM3uSadKVfNsyo4pUnClRUvi0cpSVtF2XcXNPFVIT5bKPc8w/a04+D916/a7f/ANDr1bwI2/wZoLetjCf/ABwV5P8AtbPn4YmGP5ne8h+UegJP9K9W8AqF8EeH1HawgH/jgowrUuIMTrtCP5smlJSxtS3ZfmdFRRRX156oUUUUAFFFFABRRRQAUUUUAFFFFABRRRQAUUUUAFFFFABRRRQAUUUUAFFFFABRRSZoAWiiigAooooAKKKKAEbpXC/GpsfCfxZ/2Dpv/QTXcseK4L42t/xaXxbj/oHTf+g1wZgr4Ot/hl+TMcQv3E/R/kfOv7Ff/I+6/wD9g5P/AEMV9jJXx3+xUM+O/ER9NPj/APQ6+xEr5fg3/kUQ9WePkf8AuMfV/mPooor7c94KKKKACiiigAooooAKKKKAI5eFb6V4V8Nv+ThvG/8AuD/0GGvdJT8jfSvDPhsP+MhfHBxgeWP/AEGKvmM4X+04L/r5/wC2s8vF/wAal6nuydKdTU6U6vpz1AooooAKKKKACiiigAooooAKKKKACiiigAooooA/l78df8jrr3/X9N/6Ga/WP/giT/ySL4jf9h2H/wBJxX5OeO/+R117/r/n/wDQzX6x/wDBEn/kkPxG/wCw7D/6TrQB+kNFFFABRRRQAUUUUAFFFFABRRRQAUUUUAFFFFABRRRQAUUUUAFFFFABRRRQAUUUUAFFFFABRRRQAUUUUAFFFFABXxX/AMFeP+TN9R/7DVh/6G1falfFf/BXf/kzfUf+w1Yf+htQB+Gqf61P94fzr+lj9m3/AJN2+Fv/AGKulf8ApJFX806f61P94fzr+lj9m3/k3b4W/wDYq6V/6SRUAejUUUUAFFFFABRRRQAUUUUAFFFFABRRRQAUUUUAFFFFABRRRQAUUUUAFFFFABRRRQAUUUUAFFFFADHrwD4wf8ly+Hf/AF0P/oa17+9fP/xh/wCS5fDr/rq3/oaV81xD/ukP8cP/AEpHj5t/Bj/ij+Z9BLS0gpa+k6nsBRRRTAKKKKACiiigAooooAKKKKAI5D1r4GsRn9qhF9fErn/yIa+93+/XwVYr/wAZWp/2Mkn/AKGa+C4pV62A/wCvi/Q+azvT2P8AiPvdF604oDQvenV98fSobsA6DFMMQBzjJqWii47ngmtfs5a1L4w1TX9F8XHS572d5totySoY52k7uR07dq9R+H3hbV/C2ita61r7+Ibtn3faXhEW0YHygAnP1rqqK8XC5PgsHXliKELSle+r676XscNHB0aE3OmrNibRRS0V7J2iEA0m0U6igBNoHQYoxS0UAJtGc4oxS0UAJgVX1CCS4sZ4oJvs8zoQkuM7Gxwcd6s0UPXcTSasfPniD9nLxj4wge21v4jveWpfzAv9mplW9iGHFe66LpaaLpFlYI5kS1hWFWbqQoAyfyq9RXk4TK8Jgqs69GNpy3d22/vOajhaVCTlBasKKKK9Y6gooooAKKKKACiiigAoprOExk4rhNe+Ofgfw1KY7/xFaQvuKYyWG4dRkDrXLiMVQwkeevNRXm7ESnGHxOx3tFcr4S+KHhnxzJLHomr21/LEu944n+ZV9SOtSa/8RdA8M6ppunalfpa32oOEtoGUlpCTgdB61H13DexWI9ouR9b6E+1hy8/MrdzpqKhM44x3rFuPHGj23iiLw7JeImrywmeO2P3mQdSK3q16VBJ1ZJXdlfq30LlJRScnudBRWRq/iXT9Asvteo3cdnb+YsQklOAWY4UfiaytY+KHhnQED6hq9tbAjI3P2rGvjMNhm41qkYta6tLQmpUhS0nJI6ykzXNeE/iN4d8dWs0+h6rbagsL7JFikG5D7jtWJ4k+PfgDwnqzaZqnifT7e/X78Hm7mT64zj8aieYYSnTjVnViovZ3WovbU+VT5lY9A3CsXWvGmheHHiTVdWs9NeUFkW6mWMsB1IyeafoPibS/FWnLqGkX0GoWbHAmt3DLn0r56/aP0+DVPil4Ct7iNZ4Z/wB08ZGQQ0oXn8Ca4s2zCWDwEsZh7Seluzu7dDDFV3Qoe2pq+34nvGhfErwp4o1NtO0jxHpWp36oZGtbS8jkkCjqSoOcc10PnKASSAB1J7VynhX4deG/Cd59t0zQdOsb94/Le6t7ZElZepBYDOK474n2/jfxH4jGi6TZfYvDqxh7jUWlX9/kElQA24YwB09a1+s4rD4T2uIp81T+WHX7xzqzpUPaTjeVtkek6b4t0XWdQubGw1S0vby2/wBdBBMrvH0+8AcjqK1d4zivnH4D6IujfF7xRCDmaG2WOQ4xuJKknH5V9DknINYZFmcs4wn1mcOR80lb0diMBiJYqj7SaszK1vx14f8ADt0ttqesWVjcMNwinnVGx64JrMf4ueDogS3iGxwPSUH+VePXvgqw+If7RHiODVbcXNjDaxsqMeGKrGP/AGc16Jb/AAE8ExIVi0WOHIwxyTn9a8ajmGcY6daeEpw9nGTirt3dtDmVfF1XL2MFZO2rPRNO1K11ayiu7OdLm1lUPHLGcqw9jVmsrSNMtvD+l2em2cfk2lrGIo0HOFHArL074leHtU8RvoNvqUUmqqrN9nB+Y7fvAfSvq/rEKKpxxMlGc9Er7vql3PTc1BRVR2bOlknSJS7sERRksxwAPeuQu/jR4EsdRFhceL9EivCdohe/jDZ9MZ615l+1d4iu59N8P+CNMkKXXiS42SsjEERrjAPszYB9ga3NF/Zo8C6bolvYy6BaTsIwJpnj+aVsYJPvnmvExOYYyri54TLqak6duZydlrsl5nBVxFZ1nSoRTstWz1q3voLyFJreZJoX5WRGyrfQ1har8TvCOhX8ljqHibSbO9jOHt572NHQ+hUnINeG/A+4n+Fvxf8AFvwta4ll0hFXUdGMzZMSlAzRj1GSf++T616F4g+Cngi4bU9Y/wCEcsYNVkSS5muo4vmkcAsWI6EmqjmGLxmAlXwkF7WDalFvZrdXRtGtVq0HOnH3lun5HoWh+J9I8UWstxo+p2mpwROYpJLSZZVRxglSVJweRxXJ/G1v+LR+Lef+YfKP0rz79kGRZPAusyogjMupuzBeAT5cf9OK9A+NS5+E/isDjOny/wDoNFLGzx+Ryxc48spQd18miY1nWwUqklZtM+fP2KT/AMV34jH/AFDov/QzX2GlfHH7FbhviDr4HU6Wh/8AIg/xr7GQ4rzuDV/wkQ9WcWSf7jH1f5iyNtHFcBp3xI1bWNW8QWthoUVyml3f2VGa82GUhQWPKEDGccmu+fkHHWvM/hcwTxL4/XG0pqxP1JQGvoMbKt7ahSpS5eZu+nRJs9OrzucIxdk9zSm8e+JLPJufBkqIP4o9Rib/AA/rW94d8VR+JdB0/VoIXiS7i8xYXILKecqSMjqKy/GT661mz6dLZG0WM+ZHPG3mbuxVgcY9iKzvgvHu+GHhuUbgfswVw3XeGbd+ua48NXxEc1ng6lRyioc2sUtb20a39AhKUcQ6UndWuafgf4hr4yvdWt/sRtDYOEJL7i3JB4xxjbXWtIRjqM1574GsorP4g+MYol2ndG7YH97Lf1ruxGA28ySMTwVLfL+VdWUVq9fDKWI1kpSTe2zaQsJKpOnepq7tHNS/ES2Tx2PDH2d/tOzcZCcD7u78sVreJfFNj4V0O81fUJDFZ2i75GAyeuAB7knFcf4jtYoPitodx5S+fcWrjfjk7Q/8gf1pvxkt0udL8P2VwvmWl3rMMUsZ6ONjsFPsSorzoY7FUaONdV80qcny6dGk0vO1zOFSovaKW6eho6B458S6/bi5TwfLbW0ieZCbi9RHIPTcuCVOMHHaobb4oXy+PdP8MajoB0+a9hkmSYXQkG1BzwFGeeOtWvEXjO48G634atLi2gl07Wbz+z0mVmEkUxVmT5cEFSFIzkYOPXjE8ZqW+N/gZyoKfYb4A45Bwh/w/OqlVxFKnTTrXmnHmXKtb208h1OenBNS1uj0yZ8hgK8R+Gyn/hoPxue3lj+UVe2uBlvWvFPhwMftBeNx6RL/ACjq83V8Tgrfz/ozLF/xqXqe4p92nU1Pu06vpD0gooooAKKKKACiiigAooooAKKKKACiiigAooooA/l88ef8jtr/AP1/z/8Aow1+sX/BEn/kkHxG/wCw7F/6TrX5O+PP+R38Qf8AX/P/AOjGr9Y/+CJP/JIPiL/2Hov/AEnWgD9IKKKKACiiigAooooAKKKKACiiigAooooAKKKKACiiigAooooAKKKKACiiigAooooAKKKKACiiigAooooAKKKKACviv/grv/yZvqX/AGGrD/0M19qV8Wf8Fd/+TNtS/wCwzYf+hmgD8NE/1qf7w/nX9LH7Nv8Aybt8Lf8AsVdK/wDSSKv5p4/9an+8P51/Sx+zb/ybt8Lf+xV0r/0kioA9GooooAKKKKACiiigAooooAKKKKACiiigAooooAKKKKACiiigAooooAKKKKACiiigAooooAKKKKAGNya8A+MX/JcPhyf+mrf+hpXv7da8A+MX/Jbfhyf+mzf+hpXzXEP+6Q/xw/8ASkeNm38GH+KP5n0AtOpq06vpOp7IUUUUwCiiigAooooAKKKKACiiigCGQ/PXwZZjH7VyZ/6GJ/8A0OvvKU/vK+DbXn9rBP8AsYm/9Cr4Pin+NgP+vi/Q+Zz3ah/iR97r3p1MU80+vvOp9MFFFFABRRRQAUUUUAFFFFABRRRQAUUUUAFFFFABRRRQAUUUUAFFFFABRRRQAUUUUAY3jBrqLwxq0tkpku0s5jCg7vsOP1rwf4HX/hHXPCltZaqumSXgP76C/RCxkJJzhuT14r6MmKgfMePevO/GfwW8I+O5pJ7zT2tb2RcG7sZWhY+5wcH8Qa+azXK6mMr0cVTabp83uvZ3PNxNCVSpGpFrTozodK8K6L4ceSTS9JtLF5eGeCFULD3IGTXivxvtt/xr+Hk8iglSP/Rn/wCql+Hmua58OfiqfAV3qEuu6NOD9kuLj5pol25Azntgg+uM96sfHqX+z/iP4Bu5uIVdhuPQFZFzz+Ir5zMMfhsfkdSVGnyunNRlHs1JX/zOTGVKVXBPkXLaSv8Aee8rwI+/ArwbxJbib9rrRZlXLRaCxJPY5fn8mFe7Wsy3KRMpypAOR0NeIahdxXP7Udq0ZDiPSDCSO7fMcflXtcRSg6ODi3rKrTt952YyUZUqWvVG/wDH6T/i2GoSEbzHcwMARnnzBTfB3wh8O61o2matquk299d3NrG5a4TcFBUcYORR+0ApHwzvExktcw4A7/PXoHgcZ8HaEp7WcQ/8dFcNTAYXGcT1p14KXLSja+2rfT5GUqNLEY6Smr2SPnv4o+Fo/BXxP0qx8ORLp66zZlSka7Qkm7aCMexr1rw18IfDGiaDBZ/2HYSu6Az3ElurSTuR8zMSCSSTnk1y/wAZIg/xe8ATcZUSqQfrxXseQY1JHAH9KyynK8DLNsdF001DlST1Suruy9ScLQpfWKkEtF0PCPgpE/hT42eOvC8C+XpqxC4hjBIVACuAB048zH4CmfHPEfxP8BzZ+YSRjJ9PtAz/ADrV8HwCH9pXxLIORJYN394ax/2gQY/iF4FOf+WyDH/bdf8AGvHslw3Vpw0UarS8kqhx1Go4GUVspfqfRcYzGn0pHj3Ar2pYziNfpSk/KTX63HZH0cXaFzwn4XMD+0B48I4yCAPoUFe6KcjFeEfCn/ku3jhmGNzSbCe43JmveEGBzXyHC3+5VP8Ar5U/9KZ52XO9KTfdngPiD4e/EzTvHmq654XTSAZ3fy5r2dsPGxB2soXIxgd+1ZmtfEb40/DTT7jWfE+g6NeaNagNcNpzMSq5xuGXyOvoa+kd6nIUj8K5X4p3VpafDvXxeYkilspofKPO8shUD8zXLiskw+Cw9XEYavKk1eV+bS+7uvMVTDRpwlOnUcd35FjwF410v4jeFrHXtJkEtpcpkoT80Tj7yN7g1naX8JvDGgeK38RWdiY9Vbf+83kgb/vcHjmvM/2RNPuNJ8GawzpJHZTX5MDN0fCKrMPqVP5V7st9bvdm386I3KrvMQcFgPUivVy2rTzXA4bGYyC5t1fvtdeu5vhpLE0adavHU+ffi5bLe/tM+AQ4OyKJCPT77nH6CvogqCwFfPn7QM6eEvir4I8TXBKWRP2d5D0Vlcd/UrIx/wCAn0r6Atpo7uOGWJw8bKGDL0IrlyeXLmGOpTVpcyfqmlYwwcrYitGW9/wsfNvjlhp37ZXhm5QHdPpiIwHXnzVyfwr6F1OIPpWoqf47eRSf+AGvAoSvjr9sFp7Yh7PQdOCTSAZUuu75QfXM3P8Aumvf9cAi0XU5M8C3kOR2+U1lkjUljq8fhlUlb5JX+9lYR61pLZv/ACPEv2Plx8PtT65/tJ+PT92leg/Gl/L+FXigsMr9gkB/EYrgP2QSf+EC1YHgjU3/APRcdd58cG2/CbxUT0+wvWeV68NJL+SX5swpf7hL0Z86fsZXEcfxJ1zLqq/2aBgnuZE/wr7I+12yZ3Txj1y4r4A+AHwh0f4v+J9W0/WzcpBa2iTI1pMYnDF8dR7V9CR/sZ+Co41WC61WPHUvclifqeK83hapjKeWQjRpKSu9eax5+VVcRHCpQhda9bHvD3tsFLC4jwBnO4V4/wDD/wAXWFl8SvHtnd3EVul1fRzWjO4xN+7UOBz1BHSqkX7JPhSIjN3qpA6CO7dP5GpG/ZI8GFmYSaopbk7bthzXsYv+2qtSlUo0oLkbest7q3Y6608fJxlCmlbzO9v4Na1F5YrfXtIgsJFKgfY2eZMjqD5u0/iv4Ve8KaLYeDPDOnaLa3SyW9lGEDyuNz8kkn6kmvLh+yD4RU7l1HWlfpuF83NC/sh+EQxYX2rqx7reMKqDzSFV11ho8zVvjudHt8Z8XsVf1PTNJ0u00rxPr+sLeLI+qGH5CwxGI02/qSTWhbatF9tuw08RiO3y/m6cc15RF+yX4WiYkajrOD/CL1sU7/hk3wqQQdQ1jae32xsUQqZvCyjh4pXb+LuZ+1xy2pJfM9G1HTLTVfE2jas92sZ01J1EYIxIZAFGfYDNWte0+18Qaa1rJdRwsssc8U4KkxyI4dWAPB5HI7gkd68of9kLwpMpSTVNdkj/ALhv3xUQ/Y78IqAE1HWgo/ha+citVUzVKX+zR97f3v8AgB7bGq96Kd/M9Qi0uG41K01PWb6zunscvbRrGojt5CpV5AxJOSCR14BP1rgLzx5pXiX47aRFaXaS2ekaXcmS4Q/uhLI8a7N3TcAvT3qm37InhCSLyprrVZ4+yvePge3GKef2RvBzQCAy6osGQfKS8ZVyPYV51eGeVlBU6UIqLTet27a7mdapjZxSjSX3ns3263EZkM8ZGCc7q8e+Gs0V38d/GNzCysjw8EEHOBED+oNU2/Y58F7j5V3rMAPaHUJUwfXIPP45rvfhr8FdA+F1zc3Olvez3NwoSSa9nMrbeOB+Vds6eZ4rFUJ1acYwg23rd7W0Ltiq9WnKpBRS87nfr0paKK+sPaCiiigAooooAKKKKACiiigAooooAKKKKACiiigD+X3x7/yPHiD/ALCE/wD6Mav1i/4Ilf8AJH/iL/2Hov8A0nWvyd8e/wDI8eIP+whP/wCjGr9Yv+CJX/JH/iL/ANh6L/0nWkgP0gooopgFFFFABRRRQAUUUUAFFFFABRRRQAUUUUAFFFFABRRRQAUUUUAFFFFABRRRQAUUUUAFFFFABRRRQAUUUUAFfFn/AAV2/wCTN9S/7DVh/wChmvtOviz/AIK6/wDJm+pf9hmw/wDQzQB+Gkf+tT/eH86/pY/Zt/5N2+Fv/Yq6V/6SRV/NRF/rk/3h/Ov6V/2bf+TdfhZ/2Kulf+kkVAHo1FFFABRRRQAUUUUAFFFFABRRRQAUUUUAFFFFABRRRQAUUUUAFFFFABRRRQAUUUUAFFFFABRRRQAxvvV4B8YsH42/Dkf9NW/9DSvfn614D8Xzn43fDr184/8AoaV83xB/ukP8cP8A0pHj5r/Bj/ij+Z9ALTqaOtOr6PqewFFFFMAooooAKKKKACiiigAooooAry8PXwfa8ftWRn/qY3/9DNfd03L18I25I/amB7jxEw/8iV8DxZpVwD/6eL9D5vPVdUf8SPvRTzUlVg/zGpVfI9q+/sfS20RJRSA5paQgopM0tABRRRQAUUUUAFFIDntS0AFFFFABRRSE4oAWikzmloAKKKKACiiigAooooAKKKKAMvxHp1xqujXdpZ3jaddyxkRXSqG8puxwev0rxu9+GnxgjXy7Dx9pcvUGSezKN+itXvFFeZisuw+MmqlW91ppJr8mctXDwrNSkeS/Cr4JS+BtTutf1zVP7d8S3QKtcbSI4lPUJnkk+vHHGK3vij8MLX4maDFZy3T6fe28nm214iBjG3Q8Hrmu8pMUqWWYOjhHgY017N3uu997vdsr6vS9k6PLoz56sfgl8VbMw2MPxOhttJiG0FbLzJivp83T/vo11fh34Dx+HfHVh4n/ALeu724gtXt5oJokCzO3/LQkdCB25+tet0Vx0sgy6lOM1Tu4tON23Zrtd6GUcHRjbS9jhPif4BufHfhoaba3UVlKJ0m3yqWUqM5GB9a6bQNJOi6Jp9hv8w2sKRb8Y3YAGcdulalLXqRwdGOKljEv3kkk35LY6FThGo6qWrPPvGnwwm8WeNfDuux6gtpFpm7zIDHuMucYwc8V232cgYxkY6VboooYShh6lStSjaVR3k+7tYcKcISc4rV7nnuifDM6P8TNW8VHUWmW8g8mOz8rAjztJJbPPK+nevMv2hcL498Es/CwSK7k/wAK+cpz+QNfR2BnPeuF8f8Awi0r4gXsF5dzXFvcwp5avCwHGSf5mvBzHJ08tqYPARScpc2r63u/vPNzDDzqYdww61umdbaXsNzGnlyKxwOAatbSVIrifBHwqtfBOpy3kOo3t6zx+WEuZAyoM544/wA4ruq9/CTrzpJ4iHLLsnc7qEqkqS9rGzPNPB3wsu/DPjzVtelv47mO8L7I1QhkDMGwT07V6PtxxjIqSipwmDo4GDp0FZNt/N7jo0YUE4wWjPA/Efwd+JMGvajP4V8a29nptxMZYILwyFogeqnAZSAehx0rJtP2a/HHiq8T/hPfiNc32mI28WmlARlj6FigwMexP0r6SoryZ8PZfVb54Npu7XM7fdexz/UaPM5NX+ehkaB4esvDOj2eladbrBY2cYiijHOAPUnqe5J6k15j4U+CWreH/jZrHjOfXVutLvFk8qzCsJBvxhX7ELg4/CvZaK9SrgcPWVJSjpTacbaWtsdE6MJ8t18Oxy/j/wABaZ8SvCl7oOrIwgnGUnjwJIJB92RCejD/ABHQ14JZ/s1fFbRLePStK+Kgh0RBtG6Fw4HoF+YAfRh+FfUdFYYvK8Jjaiq1o+9a102nbztuTUw9KrLnktTgvhL8ItM+EugPY2txPqV7cSGa81G7wZriQ8knHReeF7eprd8a38Vh4U1UueTaSgDpnKGt+vLvF/wDsPF/iS91iTxJ4gsjdqFks7a7AtxhccIVPXGcdM1GJoVcLgXQy2mrpWSbstepFSEqdHkw8Tmf2T4RF4B1Bud76g7SD0OxBj8gK7H45D/i0Xiv2sJP5VveAvAFh8PNCOmacZHhMhlZ5Tl3Y9ST+ArG+Ocf/FofFf8A14Sfyrgw+DqYDIvqtb4owd7d7NnPCnKlgXCe9mfPH7FSn/hPvEJzwunRjH1fP9K+xlWvjr9iU58deJv+vGH/ANDNfY46VycIO+UU/n+ZzZK/9jXqwwKMClor7M90TaKMClooATAowKWigBMCjApaKAEwKMClooATApaKKACiiigAooooAKKKKACiiigAooooAKKKKACiiigAooooA/l98e/8jz4g/wCwhP8A+jGr9Yv+CJX/ACR/4i/9h6L/ANJ1r8nvH3/I8+If+whP/wCjGr9Yf+CJX/JHviL/ANh6L/0nWkgP0gooopgFFFFABRRRQAUUUUAFFFFABRRRQAUUUUAFFFFABRRRQAUUUUAFFFFABRRRQAUUUUAFFFFABRRRQAUUUUAFfFn/AAV1/wCTN9S/7DNh/wChmvtOviz/AIK6/wDJm+pf9hmw/wDQzQB+GsX+uT/eH86/pW/Zt/5N1+Fn/Yq6V/6SRV/NRH/rk/3h/Ov6V/2bP+TdfhZ/2Kulf+kkVAHo9FFFABRRRQAUUUUAFFFFABRRRQAUUUUAFFFFABRRRQAUUUUAFFFFABRRRQAUUUUAFFFFABRRRQAxxXgPxejz8bPADD+GQf8AoxK9/avn741Xkem/FXwldTcRwKJS2M4AkBY/kK+a4iko4HnlspRf4o8XNmlQi3spR/M+gCQKUMDXFJ8WfDJAD6gu72Vj/Sn/APC2fC+cf2iB/wAAb/CvT/tPBW1rR+9HoLF4ey99HZ5FGRXGn4seFx11Ff8Avhv8KT/hbXhYf8xFf++H/wAKl5rgF/y/j96F9bw/86+87PIozXGf8Lb8Lf8AQRX/AL4f/Cj/AIW34W/6CS/98P8A4Uv7Wy//AJ/x+9B9bw/86+87PIoyK43/AIW14W/6CS/98P8A4Uf8La8Lf9BJf++G/wAKP7WwH/P+P3of1vD/AM6+87LIozXG/wDC2vCv/QTT/vlv8KT/AIW74Uzj+1Y/xVh/Sj+1sv8A+f8AH70H1qh/OvvOzoPSuKf4x+DocGXXrOAessm3+deQ/Fz42azofiD7f4Q1q1vNLNum6LatxEXBOT1BHGOh7VzYzPMBgqPt51E43tpq/uIrYylRp+0buvI+inP7zmvhS1QN+1XIuMqviF+vruNep+FP2x7I3MVv4q037OScfbLBgUz33RlsgfQmvJ/Dmp2uvftPR6jbMGs7vWzPER6MMivi89zXA5pHBzwtRSaqR06r5HhZli6GKhSdOV9UfdgJyK8IuvE+sRftfWmijUbgaKdK8/7GJD5RbawOVzj+6ea92X5iPrXyh8U/GTeBv2pxrSWjX8lvp626WsbYMjOvAzg9yO1fUcSYhYOlh60m1FVI3t21PVzOp7KnSne3vI+uEYtz2qQsRXz+2sftAaxB/aGnWngvTLR/mi027FzLPjGQGlBCg/8AAfyrpvgr8Z5/iPJrGj65po0TxTo0nl3tkr7l9Mp3xkfqPWvRp5vh6leNBpxcvhbVlL0Z1xxUJzUWmr7Gb8ffjXrvwx1jwrpmhaXband61JJGq3DlcMu3A49d3Wtr4ca/8UtX1/Hinw/oOmaCYiwnsr6Sacv2G0oBivPP2kovtHxQ+Erkhdt+/wA3r+9i4/Svoy2jCohUfwj+VeXQjWxGcYhe1ahT5bRWzutTkpc9TF1FKXux2RgePfiLo3w40c6hrN15IZtkECfNLO/ZUXuf5dTXnXwe+OOtfEj4gatpV5pkFjpkNsbi2ZCfNHzKAH5xkgk8AV2Pin4SaJ4o8Vx+ItRE91dwRCOGB5MwoQD8wX15rzv4SwJZ/HrxjaIoVILYIpHoNnH61z5ni8zoZphYQaVCcrPu9G9X2M68sUsXBJ2h+Z775nIFeE/Ef44eLdJ+JF14V8LaHZ6lNaxo7Cdm3PuQNnOQFAzjmvdNucHpXzjaa/puhftK+JdS1O4js7aWD7MJ7hwqBlSLufZTzWnE+LlhqeHpwq+z9pUSb8tWzfMZzhGCpy5bvc17fx98aJgXk8HabAhHyqZ9x/MNxXsfhG/1W+8OWNxrlrFZarKm6e3gfcsZ9Ae9ZmifETwprN0LXT/EemXl0ekEV3G7n6AGumIZm9CO1ehleG5JurDFOrFrZtNLzNMLQcG5Oq5r5E4Oa5P4mfEKy+GfhK61y9UzeXhIbZGAaaQ9FH6k+wNc/wCH/E/i678f3NleaY0OhgOomMZ6j7pDe/PauB/aDWTxP8T/AAT4ZkBey3LPKinAYuxU5+irXNis7tl88Vh4Pn5uRKS+1e33dSauJfsJVIKz2V+5BY/FL40+IYotUsfCej2umSr5kUMsrPJImM9dwwT/ALvevSPhL8X4PiVpl79otG0nW9Mm8jUdNlOWgbsRwMqQM5ruobOOCCOJECqiBVC9AMdBXzhqFwfBv7aVrbW42WviTSC06jgMVQgN9f3aj8a4JwxmSVKWIq4h1YTkozTS0v1XazOdKthJQqVJ8ybSd/P/AIJ2PjTxz8WLDV706V4W0o6JE58m5e6MkkkY/iKggg+2OM962vgD8UdW+J+hapc6xbWttc2l4YEFqGAKbQeck85JH4V3F+pTS74rn5YJCPrtNeK/scHf4V1xySXa8G4nv8gH9K3qRr4POqUVWcoVVK8Xsra6BVVWljadqjcZJ6H0NRRRX2R7AUUUUAFFFFABRRRQAUUUUAFFFFABRRRQAUUUUAFFFFABRRRQAUUUUAFFFFABRRRQAUUUUAFFFFABRRRQAhrhPjeu74S+Kwf+gfL/AOgmu7PSuG+NvPwl8Wf9g6b/ANBNefmP+5Vv8MvyZy4r+BP0f5Hzh+xIMeOfEfvp8X/odfZA6V8b/sSn/iu/EX/YOi/9Dr7IXpXzfCH/ACKKfzPKyPXAx9X+YtFFFfaHvhRRRQAUUUUAFFFFABRRRQAUUUUAFFFFABRRRQAUUUUAFFFFABRRRQAUUUUAFFFFABRRRQB/L94+/wCR58Q/9hCf/wBGNX6w/wDBEr/kj3xF/wCw9F/6TrX5PePv+R58Q/8AYQn/APRjV+sP/BEr/kj3xF/7D0X/AKTrSQH6QUUUUwCiiigAooooAKKKKACiiigAooooAKKKKACiiigAooooAKKKKACiiigAooooAKKKKACiiigAooooAKKKKACvi3/grr/yZvqf/YZsP/Rhr7Sr4t/4K6/8mb6n/wBhmw/9GGgD8M4/9cn+8P51/Sv+zZ/ybp8LP+xU0r/0jir+aiP/AFyf7w/nX9K/7Nf/ACbp8K/+xU0r/wBI4qAPR6KKKACiiigAooooAKKKKACiiigAooooAKKKKACiiigAooooAKKKKACiiigAooooAKKKKACiiigBCM1zHiz4c+H/ABrNbz6vpyXU9uCsUhZlKg9RwRkfWuooqJwjUi4zV0ROnCpHlmro86b4E+CznOjJk9/Nkz/6FT1+CHhADjS8f9tn/wAa9Bpa4ZZbgp/FSi/kYfVMO/sI8+PwR8I/9A0j/tq/+NJ/wo/wh/0Dj/39b/GvQqKy/sjL/wDnxH7ifqeG/wCfaPPP+FHeEP8AoHH/AL+t/jR/wo7wh/0Dj/39b/GvQ6KP7Iy//nxH7g+pYb/n2jzz/hR3g/8A6Buf+2rf40f8KO8H/wDQL/8AIjf416FRil/Y+Xf8+I/cH1LDf8+0ee/8KN8Hf9Aof9/G/wAaQ/ArwWwIbR0YH1kf/GvQ8UYpf2Nlyd/YR+5DWDwy/wCXaPPV+BPgbIDeHraQ+shZv0JNeR/Fv4PX13r8Ph/wR4WitbaSD7RPfkeTAWJI2l+5AHQZPNfT2BSEVy4zIMvxtF0XTUU+q0Yq2EpVoeztZeR8l6H+w9bzNHN4n8R3E0h+Z7HTVCxE9hvcZIH0Feb+F9Jg0H9paDTLZTHa2utmGJOuFAwBnrX3q0fzbvSvg2xJb9q0jr/xU0nP/AzXyGfZVg8veCjhqdv3kVfq9VueBmmFoYdUuRa3R93RAjGa+ZPEGjQal+2ZAboeZGIYpERum5YCQfwIz+FfTyDJr5H+MOuah4Z/ali1LTNOuNUuLS0guZba2Qs5i2srkAd9uce+K+i4okqdChKSulUg310R62Yu1CLa0uj60K+U6gc9s180SRnR/wBuVntRgaho2Z1XoxEYGT/3wPyrvNP/AGqPh/eaeLuTVGtHUHfDcxMjofQjHX261zfwZ0W88e/GDXPifPbTW2lyQPY6abiMo0y5UeYgYZC4QnPffXPmmNo5lVwuGwUuaXOpNr7KSd2+36l1qscQ6cKW90/SxU/aUcRfEH4XMT8q6m//AKHF/hX0jbjESf7or5p/asQjxx8K4Y+HbUWb/wAiQ/419LpxGgHpXoYCzzjHP/B+TIwzbxdfya/IcQMH6V4B8LW3ftE+OSP7sgP5x17+eVNfPvwo5+P/AIymA/1glVs9QQ6D+hrLO7fXMB/18/8AbWLGv99R9T6AQHrXBa98BvA3iTWbvVdS0CC7vbs5naV3ZXPAztzgdB0Fd+OB15rzK4/aE8LWF/e2eoTyWE9nK0MySxklGHqBk89uOa9fMa2Bpxisfazel11O7ESopL223mcT8Uv2XPBsPgjWL3w5p39jarZ2z3Vu0EjBNyDdt25wM4xx9a6D9mDxzqfjH4fvb61IZ77Sp/sv2kjDSptVlLf7QDYP0+tY3xD/AGk/DuqeH7zR/Dhuda1K9ie3WKzt3dhuGDjjnr0rpv2evh5deBfA2b5Wh1PVJjeTwP1iyAAhHqABn3Jr5DBSw1TPYvKl+7UX7Rr4X2t53PMpKm8XGWG0jZ3tseoSqztwcA14X8TUFv8AHrwtcNkKY4QpPpvcH+Yrr9B+N+leIPiXdeDrS3kN1bGVHmyOHj++CvUfWsr9ofwtfXOm6d4n0tWkutEdpJURdzGLIbIA67SvT0Jr087qLMculVwb5nSmna3WDV19xvjZqvQbpa8rT+49bJ+Zfevmj4oW39o/tfeAFhfEltYfNjr1lJB/AV2vhz9p7wdqGjw3N/fiwuQvzxSgkFh/dYDB/n6isf4Q6PdfET4nal8Sru1ltrIxvZ6d56keZHnaJEBGcEKTnvu4zXNmWYUM2+rYTBy5uecXK3SMdXfsTXrQxcIU6erun6WPa9TOzS749QIZM/8AfJrxL9jkY8Ka4Mk7b7HP+4p/rXuGuIf7D1Ej732eTGP9014d+xsp/wCEO1yQ/dfUOD6/ukrvx6vneDflP8gxLX1yivJn0KOlLSDmlr6s9YKKKKACiiigAooooAKKKKACiiigAooooAKKKKACiiigAooooAKKKKACiiigAooooAKKKKACiiigAooooAQ9K4f40jPwm8W/9g2b/wBANdwelcR8ZRn4UeLf+wZP/wCgGuDMP9yrf4ZfkznxP+71PR/kfNn7EZz478Rf9g6L/wBDr7JWvjP9h47vHXiM/wDUOi/9Dr7MWvmuD/8AkUU/V/mePkP+4R9X+Y6iiivtD6AKKKKACiiigAooooAKKKKACiiigAooooAKKKKACiiigAooooAKKKKACiiigAooooAKKKKAP5fvH3/I8+If+whP/wCjGr9Yf+CJX/JHviL/ANh6L/0nWvye8ff8jz4h/wCwhP8A+jGr9Yv+CJX/ACR74i/9h6L/ANJ1pID9H6KKKYBRRRQAUUUUAFFFFABRRRQAUUUUAFFFFABRRRQAUUUUAFFFFABRRRQAUUUUAFFFFABRRRQAUUUUAFFFFABXxZ/wV1/5M31L/sM2H/oZr7Tr4s/4K6/8mb6l/wBhmw/9DNAH4aR/65P94fzr+lb9mv8A5Nz+Ff8A2Kmlf+kcVfzUx/65P94fzr+lb9mr/k3P4V/9ippX/pHFQB6RRRRQAUUUUAFFFFABRRRQAUUUUAFFFFABRRRQAUUUUAFFFFABRRRQAUUUUAFFFFABRRRQAUUUUAFFFFABRRRQAUUUUAFFFFABRRRQAUUUUAFFFFAET9xXwTpqk/tYqvr4mkP/AI8TX3q/Wvg7TV/4y6jB/wChjkP86+F4nV62A/6+r9D5vOtHQ/xI+8ETk0yPTLVLyS7FrAt3KAsk6xgO4HQFupAqZByakr7p67n0e6szDvvA3hvVLwXl54f0u7u8Y8+eyjd8f7xXNa4gVVVVUKigAKowAPSpaKlQjF8yWoJKOx83ftR6VqR8X+BdZtbGa9h0uSWY+WpI3BkbBx/uj8q9D+G3xal8b6qdNk0HUNOaOHzDPcRlU+nIHP8AhXppGaQIB0GPpXgxyupSzCeNpVmlO3NGyadvPoeZDBzp4mVeNTSW6sAXiqcGiWFreyXcNlbw3Un35o4grv8AUjk1eor3nFS3R6bSe6GlQaw9W8BeG9euzdaloOm31y3DTXFpG7ntySM1vUUSjGatJXFKMZq0lcw9H8D+HfDtwbjS9C07T7grtM1tapG5HpuAzWz5YznvT6KUIRpq0Fb0HFKKtHQzLfwzpNrq8uqw6ZZw6pMu2S9jgVZpB6M4GT+JrRCYz706iqSS2BJLZHO3Hw58KXd01zP4Z0ia4b70r2MRZvqdvNbyRJFGscaqiKMKqjAA9AKkpCMiojThF3ikmJRUdkeO/FL4w3GgXmp+H4fC2u3Mnk7VvoLMyW7bl7EZJ6+naqf7KWh32i+ArsX1rJZmW8d4UmUq5TaoyQfcGvbdmevP1oCKDkAA+1eGsqlLMlmFWq5cqajGySV9/U8/6o3iFXlO9r6CjgUtFFfQHpBRRRQAUUUUAFFJS0AFFFJmgBaKKKACiiigAooooAKKKKACiiigAooooAKKKKACiiigAooooAKKKKACiiigBD0ri/jCM/CrxYP+oZcf+izXaHpXG/F0Z+Fviv8A7Blx/wCizXBmH+51v8MvyZhiP4E/R/kfMX7DJz448S+2nQf+hmvs5a+Lv2FTnxt4m/7B9v8A+hmvtFa+b4Q/5FMPV/meLkH+4Q+f5jqKKK+zPoQooooAKKKKACiiigAooooAKKKKACiiigAooooAKKKKACiiigAooooAKKKKACiiigAooooA/l+8e/8AI8+If+whP/6Mav1i/wCCJX/JHviL/wBh6L/0nWvyd8e/8jx4h/7CE/8A6Mav1h/4Ilf8ke+Iv/Yei/8ASdaQH6QUUUUwCiiigAooooAKKKKACiiigAooooAKKKKACiiigAooooAKKKKACiiigAooooAKKKKACiiigAooooAKKKKACviz/grr/wAmb6l/2GbD/wBDNfadfFn/AAV1/wCTN9S/7DNh/wChmgD8NYv9cn+8P51/Sr+zV/ybl8K/+xU0r/0jir+aqL/XJ/vD+df0q/s1f8m5fCv/ALFTSv8A0jioA9IooooAKKKKACiiigAooooAKKKKACiiigAooooAKKKKACiiigAooooAKKKKACiiigAooooAKKKKACiiigAooooAKKKKACiiigAooooAKKKKACiiigCJ/vV8IWK4/bAjH/Uwyfyr7uc4evhazXH7YsY/6j7n/wAczXw/E/8AGwP/AF9X6HzWd70P8SPu1epp1NU8mnV9uj6UKKKKYBRRRQAUUUUAFFFFABRRRQAUUUUAFFFFABRRRQA1mC9axtd8aaH4adU1TVrOwlcZWO4nVGI9cE1S+JPjGPwB4E13xFKglGm2klwsbHAdwPlX8TgfjXz98F/gNpnxF8NweO/HMUut6/rwN4VuJWKxRsxMaqAeBtx+deHj8ZiIVI4TBRUqslfXZLa79XoeficROE1SoxvJ/kfQ+g/EDw94mu3tdL1a1vLlF3tFFIC2PXFbE97DbQSTzypBBENzySMFVR6knpXn/hj4L+F/COvWur6XYGzvoEaNTFI3zKw5DDuOAea8w+MouPi78XdJ+F6zTwaDb2ranq5glKGbjCxt6jJTj3rCeOxmCwnPjaadVtRiovSTe25Pt61HDudePv3skj2ZfjF4Ia4EI8V6MZCdoUX0ec+nWurW5jlQPGwdCMhl5BHtXjh/Zd+Hi6cLSHQY7JljKia3dkfOMZPr+Oa5D4J6pe/DH4r618Kb+8lv7AQfbtLnnb50TAO0e3JHHGUJ71zQzPHYOvTp5nSjGFR2UovZvZNeZFPEYinVjDEwSjLZrv5nvus+L9I8Oy2EepahBZSX83kWqSvgzP8A3V9TWx5wxx0xXzh+0rMF8SfCyeQ8JrhQcdSTH/n8K+g4iVSLv8o/lXr4fFVKuYYjCTXu0+Wz9V1O2nWdTE1KNtI2K954s0mx1m10e41G1g1W7VntrOSZVlmCjLbFJy2B6elc98UPiFb/AA98J3GoSyRrfOjJZwyEAyS4+UY781458Ti3/DX/AMNHRRvTSbt2J6rlJMH8xWj+0t4SsdZ8D33iWVGGqaTsMUqn7yGQKVP/AH2T+FePjMwxcsFjnQSU6N0n/XWx59fFVvq9f2S96Dt+B6D8L/idaat4S0Ndc1W2i1uWCJJlmlRGklIHQZ6k9hXpQOa+f/hb8BPBWv8Ah7wp4q1fQrbU9X+zw3kc12GcRuVBBC525B9Qa9+TpxXXw/PG1MupTx1nNpO66p7fgdWCdadCMq29kPooor6I7gooooAKKKKACiiigAooooAKKKKACiiigAooooAKKKKACiiigBD0rjvi0M/DDxUP+oXc/wDos12J6VyHxXGfhp4pHrpdz/6LNcWOV8JV/wAL/Ixr/wAGfo/yPlr9hI58a+Jv+wdb/wDoZr7TWviv9g//AJHPxMf+ofb/APobV9qLXzXCP/Iqh6v8zxMg/wCRfD5/mOooor7I+hCiiigAooooAKKKKACiiigAooooAKKKKACiiigAooooAKKKKACiiigAooooAKKKKACiiigD+X3x5/yPHiD/ALCE/wD6Mav1i/4Ilf8AJHviL/2Hov8A0nWvyd8d/wDI7+IP+v8An/8ARhr9Yv8AgiV/yR74i/8AYei/9J1oA/SCiiigAooooAKKKKACiiigAooooAKKKKACiiigAooooAKKKKACiiigAooooAKKKKACiiigAooooAKKKKACiiigAr4s/wCCuv8AyZvqX/YZsP8A0M19p18W/wDBXX/kzfUv+wzYf+jDQB+GkX+uT/eH86/pV/Zp/wCTcvhV/wBippX/AKRxV/NVF/rk/wB4fzr+lX9mn/k3L4Vf9ippX/pHFQB6RRRRQAUUUUAFFFFABRRRQAUUUUAFFFFABRRRQAUUUUAFFFFABRRRQAUUUUAFFFFABRRRQAUUUUAFFFFABRRRQAUUUUAFFFFABRRRQAUUUUAFFFFAELj56+G9PTd+2Wg/6jkh/wDIWa+5nHJr4a0T5v2yA2eBrU2Tj/YIxXw3E7/e4H/r4v0Pms61lh1/eR9yr941JUIYbqlDZr7hbJn0zQtFFFMQUUUUAFFFFABRRRQAUUUUAFFFFABRRRQAUUUmaAPKP2pdPk1D4EeLFQMyxW63MioMnZG6u36Kaf8As5eJbPxL8HfDctoynyLVLWRF6o6KFI/QEexFemXdtDe28tvcRJPbyoY5IpFDK6kYII7givmdf2dPiD8L9XuZvhl4ksTo8rFk03VCybB2U4VlfAwA2FOPWvmMbQxGGx8cwoU3UTjyySaTWt01c8qvCrSxEcRCPMrWa6n00kfOSK+bbDU7fw7+2vq2mXI8ubV9FW6gd84YDYML/wB+3z9K7H4beGPi+njWHV/G2vaJBoiWzx/2PpAeQySHozs6Dbjr8pOeBitb4y/BlPiiNM1LT9R/sXxRpBc2GpBM4V9u6N8YO0lVOQePxNPG0q+Y4aGIjScalOXNGLa1t0utNbmmIhUxNNTUbOLTs+p6KIxJJuPGK+aorR/Fv7a8l9aOBaaJpRimZT987MY/OX/x2tttD/aDi0eTSILrwwbhgY01mS5kyg/vbPLOSfcGuy+C3wVj+EumX015qj674k1WU3Go6nIoXzHJJKKOyAkkdz+lc+Ijis4qYenOi6cISUpc1ntslZv7xz9pi5QTjaKd9fI86/atHkXHw5lPRNd3E+mApr6IikE0UO08YHPrXnnx2+EUvxb8KWVpYX8Wm6vp10t3aTXClombBVkfHIBB6jkECuI0vwr+0HYW4sY9a8Ipbou2O6uGmlcDGB0iGT9a3m8Rgc0rYlUJThUUdYtaNXWza8iP3uHxc5qDalYpfEZg/wC2B8PypDeXpc6HB5JKzV2vx9h8n4PeJmYfKFiJ9h5i1h6B+z34ob4saF478S+LrK9uNNhkjazs7AqshZGX7xbjG4np/OvWPGHhKz8a+FdW0C8d4rbUIDC0sf3kPVXGeMggH8K5cLgMVicvxsa8eSddysrp2VrK7QU6FWdKupKzk/0Mf4J3S3nwo8KsOo0+EfQbRXfKMCvnLwZ8L/jT8Mjb6No2v+Fte8OxOBHcarHPFcJFnlQkYIz6fMR9BX0WuVUbiN2OcdM16mSuvHCQw+IpuEoJR1trZWurG+ElUdJU6kbOKsSUUgOaWvdOwKKKKACiikzQAtFFFABRRRQAUUUUAFFFFABRRRQAUUUUAFFFJmgAPSuP+K/Hw08U9z/Zdz/6LNdc7ACuR+Kjf8Wz8VP1C6Vcn/yG1cmMX+y1f8L/ACM6y/cz9H+R8u/sJrt8aeJx2/s+D/0Nq+0U6V8Z/sJpu8V+J5MY/wBAtwf++2r7MTpXy/CH/Iph6v8AM8Lh/wD5F8Pn+Y6iiivsz6EKKKKACiiigAooooAKKKKACiiigAooooAKKKKACiiigAooooAKKKKACiiigAooooAKKKKAP5ffHf8AyO3iD/r/AJ//AEYa/WL/AIIlf8ke+Iv/AGHov/Sda/Jzx1/yO2v/APX/AD/+jDX6x/8ABEr/AJI98Rf+w9F/6TrSA/SCiiimAUUUUAFFFFABRRRQAUUUUAFFFFABRRRQAUUUUAFFFFABRRRQAUUUUAFFFFABRRRQAUUUUAFFFFABRRRQAV8W/wDBXX/kzbU/+wzYf+jDX2lXxb/wV0/5M21T/sM2H/ow0AfhpF/rk/3h/Ov6Vf2af+TcvhV/2Kmlf+kcVfzVRf65P94fzr+lX9mn/k3L4Vf9ippX/pHFQB6RRRRQAUUUUAFFFFABRRRQAUUUUAFFFFABRRRQAUUUUAFFFFABRRRQAUUUUAFFFFABRRRQAUUUUAFFFFABRRRQAUUUUAFFFFABRRRQAUUUUAFFFFADH6H6V+fl54ttvBv7R+pa7eCR7ay1u4MuwZbaGKnA74zX6CMM14R4w/Y68F+MPFF9r1xd6tb3V7M1xNDDcKIi7HLEKVOMnnrXyfEOV4jMoUXhpJSpy5tTw80wtXExhKjvF3HN+2B4FjUbYtTuOMlo4FA/8ecGlX9sLwNnBt9UU+hhj/pJWEP2GfBSsSup62oPYXEeP/RdL/ww54LByNV1sf8AbxH/APG68tviiKtFQZg55q9kjoB+194GIz5epf8AflP/AIuk/wCGwPA//PHUv+/Kf/F1gH9h7wdxjWNbGP8ApvFz/wCQ6P8Ahh/wj/0Gtc/7/Rf/ABqs+fir+WH4f5kc2b9o/wBfM3/+GvvBJ6W+pn/tlH/8XR/w174LP/Lrqn/fqP8A+OVgj9iDwmP+Y3rn/f6L/wCNUf8ADEXhMdNb1z/v9F/8ap8/FPaH4E3zjtH+vmb/APw134M/59NU/wC/Uf8A8co/4a68Gf8APrqn/fqP/wCOVg/8MR+FP+g5rn/f6L/41R/wxH4V/wCg5rn/AH+i/wDjVPm4p7Q/AV857R/r5m//AMNc+DP+fXVP+/Uf/wAco/4a58Gf8+uqf9+o/wD45XP/APDEfhX/AKDmt/8Af2L/AONUf8MReFf+g7rf/f2L/wCN0+bijtD8AvnPaP8AXzOg/wCGufBv/Prqf/fqP/45R/w1z4N/59dT/wC/Uf8A8crn/wDhiPwt/wBB3W/+/sX/AMao/wCGI/C3/Qd1s/8AbWL/AON0c/FHaH4BzZz2j/XzOg/4a58G/wDPrqf/AH6j/wDjlH/DXPg3/n21P/v1H/8AHK5//hiPwr/0HNb/AO/sX/xuj/hiPwt/0HNb/wC/sX/xunzcT9ofgO+c9o/18zf/AOGuvBv/AD66n/36j/8AjlJ/w134N/59NU/79R//ABysH/hiTwv/ANB3Wv8Av5F/8bo/4Yk8Mf8AQe1r/v5F/wDG6XNxP2h+Ac2cdo/18zdP7Xvg0Z/0PVOP+mcX/wAcpP8Ahr3wbnH2PVP+/cX/AMcrD/4Yk8Mf9B7Wf+/kX/xul/4Yl8MZ517Wcem+L/43T5uKOih+BXNm/Zf18zZP7Xng8j/jx1PGcfcj/wDjlA/a98FAjdbammRn/VIf5PWL/wAMR+FwR/xPtaPt5sXP/kOg/sReFSeda1k+3mxf/G6SfFPVQ/AObN/L+vmdH/w1h4JdSx+2gj+Foef50h/aw8ERkgrfcekQ/wDiq5s/sQ+FSMf23rI+kkf/AMbpP+GHPChz/wATzWuf+mkX/wAbo5uKb/Y/Aalm/l/XzOjT9rnwNIo2jUOQDgwDv9GpG/az8FAg+RqLA9xCP/ivaufH7D/hQAAa3rPHcyRf/G6D+w/4UOf+J3rOf+ukX/xuhy4p6KH4BzZt0t/XzN1/2tfBQYhrXU+M8iJOwz/fpR+1r4HYDEeo564MK/8AxVYQ/Yh8KqeNc1n/AL+Rf/G6B+xH4VAGNa1jI7+ZH/8AG6Ofim20Pw/zHz5v5f18zov+GqvBOM4vj1OPJ9vrTH/at8HKOLXUWOccRoP5vWEf2JvCzf8AMa1gf9tIv/jdH/DE3hjcCNd1oD08yL/43U8/FT2UPwJ584fY21/a38Gghfs2pDgEnykwP/H6ef2tfBo5+zakfpEn/wAXXPn9ibwxgf8AE81gkdy8X/xug/sTeGicjXtYX6PF/wDEUc3FPaH4E82c/wB3+vmb/wDw1x4Px/x5amf+2cX/AMcpp/a68I/8+GqH/gEX/wAcrC/4Yl8OZ/5GHWQPTdF/8bo/4Yl8OY/5GHWf++4v/jdPm4p6qH4BfOP7v9fM3f8Ahrvwj/z4ap/37i/+OUf8NdeEf+fDVP8Av3F/8crC/wCGJfDf/Qw6z/33F/8AG6P+GJfDn/Qw61/33F/8bp34o7Q/AX/Cx/d/r5m9/wANdeEP+fHVf+/cX/xyj/hrvwd/z5ar/wB+ov8A45WF/wAMS+Gu/iDWj/20i/8AjdH/AAxN4Y/6D2tf9/Iv/jdHNxR2h+AXzn+7/XzN3/hrvwd/z5ar/wB+o/8A45R/w154M/589V/78x//ABysL/hiXwv/ANB3W/8Av7F/8bo/4Yk8Lf8AQc1v/v7F/wDG6OfijtD8B3zn+7/XzN3/AIa88Gf8+mq/9+Y//jlJ/wANfeC/+fTVv+/Mf/xysP8A4Yj8Kf8AQb1v/v8ARf8Axqj/AIYi8J/9BvXP+/0X/wAao5+KO0PwDmzntH+vmbn/AA1/4LH/AC56t/34j/8AjlJ/w2B4L/589W/78R//ABysT/hiLwl/0Gtc/wC/0X/xqj/hiLwl/wBBrXP+/wBF/wDGqOfijtD8A5s57R/r5m1/w2D4L/589X/78R//AByk/wCGwvBf/Plq/wD34j/+OVjf8MQ+Ef8AoM65/wB/ov8A41S/8MQ+EP8AoM65/wB/4v8A41T5uKO0PwHzZz2j/XzNj/hsPwWP+XHV/wDvzH/8co/4bE8Ff8+Wr/8AfiP/AOOVj/8ADEHg/wD6DOu/9/4v/jVIf2H/AAef+Yzrv/f+L/41S5uKO0PwC+c9o/18zZ/4bE8E/wDPlq//AH4j/wDjlH/DYvgj/n01f/wHT/4usX/hh7wd/wBBnXf+/wDF/wDGqP8Ahh3wd/0Gdd/7/wAX/wAapc3FPaH4BfOO0fu/4JtD9sXwP3tdXH/bsn/xdOH7YfgQ/wDLvrH/AICA/wDs1YX/AAw54N/6C+u/+BEX/wAaoH7DXgrvq2vH/t5i5/8AIVCnxT2gVfOO0f6+Zvn9sDwFtJaLVl9jZE5/ImsHxd+1h4G8Q+FtX0q3g1TzLy0lgVZbQgMWUrjIJx170H9hjwOwIOq6+oP926iGPp+6pH/YY8FtGUj1vxHDn+NbuEsfzhI/SorU+J69KVNuCT0In/bM4OPu6+pxv7C0CxeIfFg8xWcWsAwDkj5n619hJwK80+D3wC8N/BM6g+iSX1zcX+0T3F/MJHYL0HCqB+VemAYr6bIsDVy3AQw1b4le9vN3PRynDVcJg4Ua3xLf7xaKKK989cKKKKACiiigAooooAKKKKACiiigAooooAKKKKACiiigAooooAKKKKACiiigAooooAKKKKAP5fPHP/I669/1/wA3/ow1+sn/AARK/wCSPfET/sPRf+k61+TXjfnxnr3/AF/Tf+hmv1l/4Ilf8ke+In/Yei/9J1pID9H6KKKYBRRRQAUUUUAFFFFABRRRQAUUUUAFFFFABRRRQAUUUUAFFFFABRRRQAUUUUAFFFFABRRRQAUUUUAFFFFABXxd/wAFdP8AkzbVP+wzYf8Aow19o18Xf8FdP+TNtU/7DNh/6MNAH4Zxf65P94fzr+lT9mn/AJNx+FX/AGKmlf8ApHFX81cX+tT/AHh/Ov6Vf2af+TcvhV/2Kmlf+kcVAHpFFFFABRRRQAUUUUAFFFFABRRRQAUUUUAFFFFABRRRQAUUUUAFFFFABRRRQAUUUUAFFFFABRRRQAUUUUAFFFFABRRRQAUUUUAFFFFABRRRQAUUUUAFFFFACYFGBS0UAJgUYFLRQAmBRgUtFACYFGBS0UAJgUYFLRQAmBRgUtFACYFGBS0UAJgUYFLRQAmBRgUtFACYFGBS0UAJgUYFLRQAmBRilooATAowKWigBMCjApaKAEwKMClooATAowKWigBMCjApaKAEwKMClooATAowKWigBMCjApaKAEwKMClooATAowKWigBMCjApaKAEwKMClooATAowKWigBMCjFLRQAUUUUAFFFFABRRRQAUUUUAFFFFABRRRQAUUUUAFFFFABRRRQAUUUUAFFFFABRRRQAUUUUAFFFFABRRRQB/L14158Y64f+n2b/wBDNfrN/wAESv8Akj3xE/7D0X/pOtfkx4z58X62f+n2X/0M1+s//BEr/kj3xF/7D0X/AKTrSQH6P0UUUwCiiigAooooAKKKKACiiigAooooAKKKKACiiigAooooAKKKKACiiigAooooAKKKKACiiigAooooAKKKKACvi3/grr/yZtqf/YZsP/Rhr7Sr4s/4K7f8mbal/wBhmw/9DNAH4axf61P94fzr+lX9mn/k3L4Vf9ippX/pHFX81UX+uT/eH86/pW/Zr4/Z0+Fn/YqaV/6RxUAej0UUUAFFFFABRRRQAUUUUAFFFFABRRRQAUUUUAFFFFABRRRQAUUUUAFFFFABRRRQAUUUUAFFFFABRRRQAUUUUAFFFFABRRRQAUUUUAFFFFABRRRQAUUUUAFFFFABRRRQAUUUUAFFFFABRRRQAUUUUAFFFFABRRRQAUUUUAFFFFABRRRQAUUUUAFFFFABRRRQAUUUUAFFFFABRRRQAUUUUAFFFFABRRRQAUUUUAFFFFABRRRQAUUUUAFFFFABRRRQAUUUUAFFFFABRRRQAUUUUAFFFFABRRRQAUUUUAFFFFABRRRQAUUUUAFFFFABRRRQAUUUUAFFFFABRRRQB/Lx4x58Waz/ANfkv/oZr9aP+CJX/JHviL/2Hov/AEnWvyW8X/8AI1ax/wBfcv8A6Ga/Wj/giV/ySD4i/wDYei/9J1oA/SCiiigAooooAKKKKACiiigAooooAKKKKACiiigAooooAKKKKACiiigAooooAKKKKACiiigAooooAKKKKACiiigAr4s/4K7/APJm+pf9hmw/9DNfadfFn/BXb/kzbUv+wzYf+hmgD8NI/wDWp/vD+df0s/s4Db+zx8Lh6eFtL/8ASSKv5pk/1q/7w/nX9Lf7OYx+z58MP+xX0v8A9JIqAPQ6KKKACiiigAooooAKKKKACiiigAooooAKKKKACiiigAooooAKKKKACiiigAooooAKKKKACiiigAooooAKKKKACiiigAooooAKKKKACiiigAooooAKKKKACiiigAooooAKKKKACiiigAooooAKKKKACiiigAooooAKKKKACiiigAooooAKKKKACiiigAooooAKKKKACiiigAooooAKKKKACiiigAooooAKKKKACiiigAooooAKKKKACiiigAooooAKKKKACiiigAooooAKKKKACiiigAooooAKKKKACiiigAooooAKKKKACiiigAooooAKKKKACiiigAooooA/l38Xf8jTq/8A19Sf+hmv1n/4IlH/AItF8Rh/1HYv/ScV+THiznxRqv8A19Sf+hGv1m/4Ikn/AItL8SB/1HIf/RAoA/SKiiigAooooAKKKKACiiigAooooAKKKKACiiigAooooAKKKKACiiigAooooAKKKKACiiigAooooAKKKKACiiigAr4s/wCCu3/Jm2pf9hmw/wDQzX2nXxZ/wV2/5M21P/sM2H/oZoA/DRP9Yv8AvD+df0ufs7jb+z/8Mh6eGNM/9JIq/miT74+v9a/pf/Z7/wCSB/DT/sWdM/8ASWOgD0CiiigAor4//wCCg/7cN/8Asj6X4Y03w3pVjq/ijX/OlU35ZorS3iKAu0alSxcvhfmA+Ric4xX0V8E/Hdz8UPg74H8X31qtle69olnqVxbxqypFLLCjuqhiTtDMQMk8YoA7aikJA602SaOLHmOqZOBuOM0APopKhvr630yzmu7ueO1tYUMks0zhERRySzHgAepoAnoqppurWWsWVteWF1De2dzGJYLi3kWSOVCMhlZSQwI7inJqVpJePaJdQtdIu5oBIC6j1K5yBQBZooooAKKKoRa9ps+q3GmR6hayalbIsk1mkymaJW+6zIDkA9iRzQBfoqtealaadbG4u7qG1tx1lnkCKPxPFOivYJ4YpYpUlilUOkkbBlZT0II6g0AT0VTvNYsNOljju723tZJPuJPKqF/oCeat5zQAtFNZwpAJ5NNFxE0nliRTJ12ZGfyoAkopOtGRnHegBa43WfjN8P8Aw5r82hat458N6XrcO0S6be6vbw3Me5Qy7o2cMMqwI45BB711/moS4DAlfvAHkfWvwh/4KPWkcn/BQHxYkvEFxNpXmAd1Nnbhsj6CgD94FYOoZSGUjIIOQaWmKEhiwAERR9AAKjt723uy4gnimKfeEbhtv1xQBPRTJJUhRnkdURerMcAURSpPGHjdZEPRlOQaAON1742fDzwt4gk0LWfHfhnSNbjKq+m3+sW8FypZQy5jdwwypBHHIINdmjB1DKQykZBB4Nfgz/wUcjjP/BQPxssw/ctcaV5g6AqbG2zn8K/eWNVjjCgBVHAA6AUAPoqN5444zI7qiDqzHAH40RTxzoHjkWRD0ZWBBoAkooooAKKKKACiiigAooooAKKKKACiiigAooooAKKKKACiiigAooooAKKKKACiiigAooooAKKKKACiiigAooooAKKKKACiiigAooooAKKKKACiiigAooooAKKKKACiiigAooooAKKKKACiiigAooooAKKKKACiiigAooooAKKKKACiiigAooooAKKKKACiiigAooooAKKKKACiiigAooooAKKKKACiiigAooooAKKKKACiiigAooooAKKKKAP5dvFX/Iz6p/18yf8AoRr9Zf8AgiT/AMkn+JH/AGHIP/RFfk14p/5GfVP+vmT/ANCNfrN/wRJ/5JP8SP8AsOQf+iBQB+kdFFFABRRRQAUUUUAFFFFABRRRQAUUUUAFFFFABRRRQAUUUUAFFFFABRRRQAUUUUAFFFFABRRRQAUUUUAFFFFABXxZ/wAFdv8AkzbU/wDsM2H/AKMNfadfFn/BXYZ/Y21P/sM2H/ow0AfhknDL9f61/TB+z2MfAP4aD/qWdM/9JY6/mfXqPrX9MfwAXb8B/huPTw1po/8AJWOgDvaQgkHBwfWlooA/nr/bu+EHjj4M/tD6jYePfFbeN9V1e2XVrfWZWbdPbvJIiqyNxHtMbLsX5QANvFfYv7O//BOj4pWeu/Db4pD4wwMYm0zVza/6XI32YGJzb7i+GHlbo9uNpB2/dNeY/wDBaNd37TvhLj/mUIMf+Bl5X6p/ACRJvgF8NGjZWRvDOmFSOhH2WPFIZ87/APBTH9rvV/2bfhppei+E7j7H408VSyRW17tDGxtYtvnTLkEbyXRFz03Ow5QV8AfBD/gnh8Xv2sfh+3xKm8VWdr9vklFi/iO6uZrq+KNgyFwrFULbgGJJOCcYIJ9Q/wCC1mm38XxY+G+pSA/2fc6Nc28BPTzY5gZB+UsVfor+yBrmi6z+y38KbjQpoZtPXw3ZQfuSCEmjiWOZD/tLKsit/tA0wR+WH7Mv7U3xM/Ye/aFb4bfEzUr2TwlFfJpus6TqFw08enB8bLy3c5KqFZZCFwrxk8btpX9E/wDgp3M8f7DfxHaN9u4acCV7g6hbd6/L3/gqZ4i0nxJ+2R4vfSmSRrK1s7K8ljIIa4SBd4z6qGCH0KEdq/RT9vi4u4P+CaOsf2grpfzaToMc6v8AeWX7XaF8575BoA/PL9ljxX+0d8dfBsvwF+GXin+zvD1tHLe3Ekswtmt7Z5F3xm5CtKkZdidicne4OVJFc78ev2U/jB+wxrvhbxVqerW0M9zc5sNf8PXsknk3KDdsYuiMGxyMghgD1wRX0h/wRK1Ozg+JfxQsZXQahPpNpPCp+8Yo5nEhHsDJFn6ivWf+C1niGzh+D/w90R3T7bea7JeRJn5ikMDI5HtmdPzFIR9efskfHA/tFfs9+EPHUyJDqV9btBqEUZGEu4XaKYgD7oZkLqOyutewV8Rf8EftPuLP9kJZps+Vd+IL6aDI/gAjjOP+BRtX27TAK/Cr9sj4x+K/g5/wUZ8e+MfB2pPp2u6fdQQwyFBKjA6fDGyujAhlIOMEdgeoFfurX4NftZ6cmt/8FL9dsJE81LvxbpluUIzu3LbLj9aBnr3i3/gnR+0v8dNM1P4h/Ezxnpk2tGye7h0q/vJJZ/lQssKxxRiCAHoFQ4BPIHNfP3wB/au+Oun+CrT4H/DrWJd2v362+mNGB9rtDKSJIoJW/wBSjE7i3G35iCuSa/fzVY/N0q8jA5aF1A6fwkV+Cv8AwTA00X37bnw9DLvNr9vl57Yspxn8yKBEn7UH7BnxQ/Z18DRfEHxvruka19s1CK0nayvJ7i5SaVHfdI8iLu+4QSCeSOvWvv8A/wCCP/xn1L4h/ALWvDGs30l9e+FdU8m2eZizLZzRh41JPJxItxj0G0Dha3v+CuOnpd/scapNj5rTWdPnH1MhT/2c14l/wRAtifDfxZn5/wCP3TUz24S5J/8AQqQGP/wVJ/bP8XWHxNk+CvgC+vNGS1igGtXdg5W5vZ5kSWK2jZfmVAjoTtOXMhU8Lz42n/BJ749wfD8eL4bzSf7aNsL1fD8d9Muo8ru2btmzzf8AZ39eM5rN+NWqW/hD/gqre6p4uKx2Fp41sbqeSb7sdt+5aKQ+yxlG+gr9wVuVSBpJJFjVVLM7MAFHXJNAz8xf+CWn7cfirxZ41j+DvxC1S516S5t5ZNB1S+kL3UckStJJbSu3zSKUV2VmJZdhXkFdvon/AAVr/ac1j4SeCdA+H/hXUH07WvFSyz397bTGOe2soio2qRgjznYruB+7E4/i4/Pv9njW5tb/AOCgvg7VfCeRBfeO/PhEAx/oUlyxlwB/D5Bkz7Zr27/gtErp+0z4Rdg2w+EoQpPT/j8us4/OgR518Cf2C/j78Qvh3pnxc+H+p2mnXDtJPpuzWJbTU5Cjld8bBNoyynG6QZrxv4u+KfiB4s/aEef4qpcR+OYrm0stSW5t0gl3RpHGhZUAXJQKcgc5z3r9vv2Ar+3vv2PPha1s6Oi6QI28voHWWRXH13Ag+9fk5/wUNvLLVv8AgoT4qayCsFv9KglMZHMq2tsrjjuCMH3BoA/W/wDbpiaf9jz4rqrMh/sSZsqcEAEE/oK+Fv8AgiFAjeKfi1MzEyx2WmogJz8rPclv1Va+7P26pfs37H/xYbnnQ5l4H94gf1r4B/4Il6vFD8TfiXphYCW50e1uEHciKZlP/o5fzoGe+/8ABZud4P2XNACSPGZPFdqrBGI3D7NdHB9R3/AVhf8ABFKP/iw/jy5aWR5G8SeVtZiQqraxEYH1c/lSf8FsPEVtZ/AzwJobSILy/wDERu44y3zMkNvIrkDuAZ48+m4etP8A+CKKn/hnrxy2DtPihwD/ANulv/jTEfFX/BStQf2+vHGRnMmk5Hr/AMS+1r9m/wBov40Wf7PfwN8WfEC/t/ti6Pa74bXOPPuHdYoYyewaR0BPYEntX40f8FJWx+394xIBc/aNI4H8X+g2vFfo1/wVpguZP2MtdaDcYotV097jb08vzwOfbcU/HFIZ8FfAj4HfFj/gpr4v8SeJ/F3xDmsNL0qVEeeWN5oopHGRBb26uiIoQcnI7Z3Ek1D8Y/hv8Uf+CXfxe8K6r4Z8cvqun6qjTxuqSwW98IWXzba5gLsrKBIvc43hl2uARzn7Fn7LnxS/aI0bxNqHw4+INr4O/sm5ht7q2fU7yzeTzFZlf9whBGFYDPdT6V7r4i/4JG/HHxij3PiP4oaDq95EP3DXt7fXbEeheSLK/kaEB+oPwc+J2nfGb4W+F/G+lxtBZa7YRXqwOwZoGYfPExHBZGDISO6muyrxf9jz4Laz+z1+z14W8A69qNtqmpaV9qMlxZ7vK/e3UswVSwBIAkAyQOnSvaKYgooooAKKKKACiiigAooooAKKKKACiiigAooooAKKKKACiiigAooooAKKKKACiiigAooooAKKKKACiiigAooooAKKKKACiiigAooooAKKKKACiiigAooooAKKKKACiiigAooooAKKKKACiiigAooooAKKKKACiiigAooooAKKKKACiiigAooooAKKKKACiiigAooooAKKKKACiiigAooooAKKKKACiiigAooooAKKKKACiiigAooooA/l38WceKNW/wCvqT/0M1+sv/BEn/kk3xI/7DkH/pOK/Jrxd/yNOr/9fcv/AKGa/WX/AIIk/wDJJfiR/wBhyH/0nFAH6R0UUUAFFFFABRRRQAUUUUAFFFFABRRRQAUUUUAFFFFABRRRQAUUUUAFFFFABRRRQAUUUUAFFFFABRRRQAUUUUAFfF//AAVzGf2NNW9tYsP/AEYa+0K+MP8Agrl/yZnrH/YXsP8A0bQB+Ftf0z/AZdvwN+HYPUeHNOH/AJLR1/Mx2Nf01fA0Ffgp8PweCPD2nj/yWjoA7eiiigD88v8Agql+xv42+O974S8c/D7SW1/VdKtZNM1HTYpUSdoN5kikjDkBtrNKGAO751wDg48X/ZmP7c2ieIPAXg630zX9G8CeH7u3triDWdMs4IFsFkBkQzSp5kiiMMq7SWAwFwcV+utIRkUAfP8A+2b+yhpn7Wnwjfw89zFpniTT5DeaLqkqEpBcYwyOBz5Ui/K2MkfKwBKAH8t/C3w9/bU/Zdj1XwT4S0HxjYaZfSFnGh2C6naFiCPNhmVZFhZhjLKUbhc4IGP3HC4p1AH5L/sn/wDBKrxpq/jyw8afG100zTrW6F8dBa7W7vdSmDb1NxIpZURjyw3M7cghc5r6z/4Ko2/m/sP+OiOPLn01sD/r+gH9a+ta+Vv+CoUkafsOfEcSfxHTQDjof7Rtv/r0Afk7+yF8B/jD8R18QeOfgtqi2firwlNbx/ZobxbW6lW4WYZiZyI2GIiGRyAQe/SvWNW/ZL/a5/bB+JFnH8TbW+sBpsQtTrPiJIbWztId2SIYoBiVj/sKdxA3MBgj2H/gh8rl/jHuU7P+JOyv2J/04ECv1PJyMUDOH+CHwl0b4EfCnw34E0N3l07RbUQLPKoDzyElpJWA4DO7Mxx/erud4NeUftARfGaTQNP/AOFMy+EI9WFwftw8XJOY2h2/L5Ri6Nu67h0PBGOfBvs/7eLkn7T8HIge2284/wDHTQI+0c56V+O/xw/Zs+Kmrf8ABS+18T2ngHXr3wzc+MNJv01qCwlkshBGbcu7zBSqhQj53EYxX3V8Hl/a1tviRpa/Ex/hreeCZFkF82gG5W7T92xRo94AJ3hAQeNpbvivp1uR0oAqX0zw2UzRo0kioSqKMlj6V+N3/BOT9mv4ueBv2vPC3ibX/h34i8O+H7Vb9by+1XT5LZEV7OZUGXAzmQxjjPWv2ZxzzT8gigD5Y/4KU/D3xP8AE/8AZS8Q6D4Q0W78QaxJe2Uq2NhGZJnRJ1Ziqjk4HP4V5N/wSO+CHxB+C/hH4h/8J34XvvCyareWb2MOoIEll2JMJG2ZyoG+Mc4zz6V9/hRmlKg0AfAv/BRr/gn1qP7Ql9F8Rfh3Hbjx1bW621/pcriEatGuBEyyEhVmQZXLnDKFGV2DPyJBov7dWnfD4/CGHQfGS+GXgaxMP2KF8W5BBhF8clYyMjAlA24UfKcV+2wGKWgZ+fX/AATv/wCCdOofAPW4/iR8SjbN41ELxaZo1tIJk0tXXa8kkg+VpipZMISqqW5Yt8vbf8FKv2MdU/ai8DaPrfg9Yn8deGjILazkdYxqFtIV3wl2wAylQyFiF5cH72R9mlcnNLtoEfiP8HfhF+29pGnD4T+GLfxb4I8NvORLLcutnZ2YZi0jpd8sq5ZmZYGJYk4BJrD+MP8AwTw+L/wV+Lvho6VpOq/E60uJba+fWtH02aRPtHm7pY5vvFcEZ3uQGDA8HIH7q0mBjHagDlvin4Asvit8NvE/g7UJGhstd06fT5JkALRiRCu8A91JBHuK/EjSP2Xv2r/2TPifPfeB/C+vrq1uHs4tc8N2g1C1uoX/ANkqylDhTiRRggEgECv3gxS0Afi34z/4J3ftI/GPwL4k+KXxK1me+8aQW3m2Phq7kN7qF3GpGUHlExwDaWZIk3EkFSqE5r66/wCCQ3w88WfDb9nzxRZeLfDmp+Grm78SzXVtbataSWs0kf2a3QuEkUNt3IQD3wfSvunAJB7ijFAH40/t9/syfF7x/wDtu69rXhT4e67rWl6i+mtaapa2TvaEpaQIxeYDYm10YHcR0r9a/iv8MdC+M/w51/wT4lt2udE1q1a1uFQ4dOQVkQkHDowV1ODhlBwa6vAxjtS0Afide/sYftSfsYfEu41/4YQajrsMKGKDXPDCpOt3C3JjnsmLMeikqyOoYAqxIBHar8Vf+CgnxluofD9toPiXwwsg/eXQ0GHRUwOrNdTqNvQnCEE54B4Ffr5SUAYHw90zWdE8A+G9O8R36ap4gtNNtrfUb6MkrcXKRKssgJAJDOGOSB16CugoooAKKKKACiiigAooooAKKKKACiiigAooooAKKKKACiiigAooooAKKKKACiiigAooooAKKKKACiiigAooooAKKKKACiiigAooooAKKKKACiiigAooooAKKKKACiiigAooooAKKKKACiiigAooooAKKKKACiiigAooooAKKKKACiiigAooooAKKKKACiiigAooooAKKKKACiiigAooooAKKKKACiiigAooooAKKKKACiiigAooooAKKKKAP5d/F3/I06v/ANfcv/oZr9Zf+CJP/JJviR/2HIf/AEnFfk34yBXxbrIPUXkwP/fw1+sn/BEn/kk/xI/7DkH/AKTigD9I6KKKACiiigAooooAKKKKACiiigAooooAKKKKACiiigAooooAKKKKACiiigAooooAKKKKACiiigAooooAKKKKACvjD/griCf2M9Y9tX0//wBG19n18Y/8FcP+TM9Z/wCwvp//AKNoA/C3bnIFf01/BCRZfgv4BdG3o3h/TyrDuPs0fNfzK9cgcGv1m+HH/BYz4d+DPh74Y8Pz+AvErT6TpltYM0M1u0ZMUSpkEuDj5e4FAH6c0V+da/8ABa/4Y4+bwF4tB9jan/2rSj/gth8L+/gPxePp9k/+PUAfonRX53f8Pr/hZ38C+MP++bT/AOPUf8Pr/hX/ANCN4x/75tP/AI9QB+iNFfneP+C1/wAKu/gbxj/3zaf/AB+j/h9f8Kf+hH8Zf98Wn/x+gD9EKo61oWm+JdNl0/V9PtdVsJceZa3sCzRPggjKMCDggHp1Ar8/v+H13wp/6Efxl/3xaf8Ax+gf8FrvhT38D+Mv++LT/wCP0AfeXhPwH4a8B2s9r4Z8O6V4dtp38yWHSbKK1SR/7zCNQCfc1uYFfnj/AMPr/hT/ANCP4y/74tP/AI/TT/wWw+FmePAvjE/VbT/49QB+iGAaMV+df/D7H4YZ/wCRD8X4/wC3X/47S/8AD7H4X/8AQh+L/wDyV/8AjtAH6J4oIr87h/wWw+FvfwJ4wH0W0/8Aj1H/AA+v+Fn/AEIvjD/vm0/+PUAfoft9qXBr87j/AMFr/hb/ANCJ4w/K0/8Aj1KP+C2Hwr7+BfGA/wCA2n/x6gD9EMGlr87x/wAFsPhX/wBCN4x/75tP/j1KP+C1/wAKv+hG8Y/98Wn/AMfoA/RCivzwH/Ba/wCFPfwP4yH/AAC0/wDj9Kf+C13wo7eCPGf/AH7tP/j9AH6HUV+eB/4LX/Cn/oR/GX/fFp/8fpP+H2Hwq/6Ebxl/3xaf/H6AP0Qor87T/wAFsPhX/wBCL4x/75tP/j1H/D7D4Wf9CL4w/wC+bT/49QB+iVFfnd/w+w+Ff/QjeMP++bT/AOPUf8Pr/hX/ANCN4x/75tP/AI9QB+iNFfnaf+C2Hws7eBfGH5Wn/wAepP8Ah9h8Lf8AoRfGH5Wn/wAeoA/ROivzs/4fY/C7/oRPF/5Wn/x6j/h9j8Lf+hE8X/laf/HqAP0Tor87P+H2Hwt/6ETxf+Vp/wDHqT/h9j8L/wDoQ/F3/kp/8eoA/RSivzr/AOH2Pww/6EPxd+dr/wDHaT/h9j8MP+hD8Xfna/8Ax2gD9FaK/Or/AIfY/DD/AKEPxb+dr/8AHaaf+C2Xwy7eAvFh+rWv/wAdoA/ReivzmP8AwWz+GvbwB4q/7+Wv/wAcpP8Ah9n8N/8Aon/in/v7a/8AxygD9GqK/OX/AIfZ/Df/AKJ/4p/7+2v/AMco/wCH2fw3/wCif+Kf+/tr/wDHKAP0aor85f8Ah9n8N/8Aon/in/v7a/8Axyj/AIfZ/Df/AKJ/4p/7+2v/AMcoA/Rqivzm/wCH2Xw2/wChA8U/9/bX/wCOUf8AD7L4bf8AQgeKv+/tr/8AHKAP0Zor85/+H2Xw1/6EDxV/38tf/jlH/D7L4a/9CD4q/wC/lr/8coA/Riivzo/4fZfDT/oQfFf/AH8tf/jtH/D7L4af9CD4r/7+Wv8A8doA/Reivzo/4fZfDT/oQfFf/fdr/wDHaP8Ah9l8M/8AoQfFf/fdr/8AHaAP0Xor86P+H2Xw0/6EHxX/AN92v/x2j/h9l8NP+hB8V/8Afy1/+O0AfovRX50f8Psvhp/0IPiv/v5a/wDx2j/h9l8NP+hB8V/9/LX/AOO0AfovRX5z/wDD7L4af9CD4q/7+Wv/AMdo/wCH2fw0/wChB8Vf9/LX/wCO0AfoxRX5z/8AD7P4af8AQg+Kv+/lr/8AHaP+H2fw0/6EHxV/38tf/jlAH6MUV+c//D7P4af9CD4q/wC/lr/8co/4fZ/DT/oQfFX/AH8tf/jlAH6MUV+c/wDw+z+Gn/Qg+Kv+/lr/APHKP+H2fw0/6EHxV/38tf8A45QB+jFFfnP/AMPsvhp/0IPir/v5a/8Axyj/AIfZfDT/AKEHxX/38tf/AI7QB+jFFfnP/wAPsvhp/wBCD4r/AO/lr/8AHaP+H2Xw0/6EHxX/AN/LX/47QB+jFFfnP/w+y+Gn/Qg+K/8Av5a//HaP+H2Xw0/6EHxX/wB/LX/47QB+jFFfnP8A8Psvhp/0IPiv/v5a/wDx2j/h9l8NP+hB8V/9/LX/AOO0AfoxRX5z/wDD7L4af9CD4r/7+Wv/AMdo/wCH2Xw0/wChB8V/9/LX/wCO0AfoxRX5z/8AD7L4af8AQg+K/wDv5a//AB2l/wCH2Xw0/wChB8V/9/LX/wCO0AfovRX50f8AD7L4af8AQg+K/wDv5a//AB2j/h9l8NP+hB8V/wDfy1/+O0AfovRX50f8Psvhp/0IPiv/AL+Wv/x2j/h9l8NP+hB8V/8Afy1/+O0AfovRX50f8Psvhp/0IPiv/v5a/wDx2j/h9l8M/wDoQfFf/fdr/wDHaAP0Xor86P8Ah9l8M/8AoQfFf/fdr/8AHaP+H2Xwz/6EHxX/AN92v/x2gD9F6K/Oj/h9l8M/+hB8V/8Afdr/APHaP+H2Xwz/AOhB8V/992v/AMdoA/Reivzo/wCH2Pwz/wChB8V/992v/wAdo/4fY/DP/oQvFf8A33a//HaAP0Xor86P+H2Pwz/6ELxX/wB92v8A8do/4fY/DP8A6ELxX/33a/8Ax2gD9F6K/On/AIfY/DP/AKELxZ/33a//AB2j/h9j8Mv+hC8Wf992v/x2gD9FqK/On/h9j8Mv+hC8Wf8Afdr/APHaP+H2Pwy/6ELxZ/31af8Ax2gD9FqK/On/AIfY/DL/AKELxZ/31af/AB2l/wCH2Pwx/wChD8Wf99Wn/wAdoA/RWivzq/4fY/DH/oQ/Fn/fVp/8do/4fY/DH/oQ/Fv/AH1af/HaAP0Vor86v+H2Pwx/6EPxb/31af8Ax2j/AIfY/DD/AKEPxb/31af/AB2gD9FaK/Or/h9j8MP+hD8W/wDfVp/8do/4fY/DD/oQ/Fv/AH1af/HaAP0Vor86/wDh9h8MP+hD8W/naf8Ax6j/AIfYfDD/AKEPxb+dp/8AHqAP0Uor86/+H2Hww/6EPxb+dp/8eo/4fYfDD/oQ/Fv52n/x6gD9FKK/Ov8A4fYfDD/oQ/Fv52n/AMeo/wCH2Hww/wChD8W/naf/AB2gD9FKK/Or/h9j8MP+hD8W/wDfVp/8do/4fY/DD/oQ/Fv/AH1af/HaAP0Vor86v+H2Pww/6EPxb/31af8Ax2j/AIfY/DD/AKEPxb/31af/AB2gD9FaK/Or/h9j8Mf+hD8W/wDfVp/8do/4fY/DH/oQ/Fn/AH1af/HaAP0Vor86v+H2Pwx/6EPxZ/31af8Ax2k/4fY/DL/oQvFn/fVp/wDHaAP0Wor86f8Ah9j8Mv8AoQvFn/fdr/8AHaT/AIfY/DP/AKELxX/33a//AB2gD9F6K/Oj/h9l8NP+hB8V/wDfdr/8dpP+H2Xw0/6EHxX/AN/LX/45QB+jFFfnN/w+z+Gv/QgeKv8Av5a//HKT/h9n8N/+if8Air/v7a//ABygD9GqK/OX/h9n8N/+if8Ain/v7a//AByl/wCH2Xw2/wCif+Kv+/lr/wDHKAP0Zor85/8Ah9l8Nf8AoQPFX/fy1/8AjlB/4LZfDXt4A8VH/tpa/wDxygD9GKK/OU/8Fsvhxg7fh94pJ7ZltRn/AMiUyX/gtl8PVIC/D3xKc9/tNtx/49QB+Tfj2MReN9fQfw6hcD/yK1fq/wD8ESh/xaT4j/8AYdh/9JxX5M+Ltbj8R+KdY1aOA2yX15NcrAW3eWHcsFz3xnFfrF/wRHfPws+JS+mtW5/8gf8A1qAP0mooooAKKKKACiiigAooooAKKKKACiiigAooooAKKKKACiiigAooooAKKKKACiiigAooooAKKKKACiiigAooooAK+Ov+Csdhc3/7GPiEWttJcmLUtPkcRKW2L56jccdskD8a+xaKAP5Zhp94TgWk5PoIzUy6Dqr9NNvD9IW/wr+pLFLQB/LY3h/VlPOmXg/7YN/hSDw/q7dNLvT/ANsH/wAK/qUooA/lqOgasvB0y8H1gb/Ck/sHVf8AoG3f/flv8K/qWpKAP5ax4f1Zjxpl4fpA/wDhTv8AhG9YJx/ZV9n/AK93/wAK/qTooA/ls/4RvWM4/sq+z6fZ3/wpw8L623TSL8/S2f8Awr+pDFFAH8ua+ENfc4XRNSJ9rWT/AAp//CF+Ix/zAdT/APAST/Cv6iqKAP5dP+EN8Rf9AHU//AST/Ck/4Q7xD/0AtS/8BJP8K/qMooA/l1HgvxG3TQNUP0s5P8KePAnidhkeHdWI9rKX/Cv6h6KAP5ef+EC8U4z/AMI5q2PX7DL/APE03/hBvE3/AEL2q/8AgFJ/hX9RFFAH8uw8EeJScDw/qhPtZyf4Up8DeJgMnw9qoHr9jk/wr+oiigD+XX/hCfEnX+wNU/8AAST/AAo/4QjxJ/0ANU/8A5P8K/qKooHc/l0/4QzxFnH9g6nn/r0k/wAKD4M8RA4Ohaln/r0k/wAK/qLooC5/LofBniIddC1IfW0k/wAKUeC/EZ6aDqZ/7dJP8K/qKooC5/Lr/wAIV4k/6AGp/wDgJJ/hR/whXiP/AKAOp/8AgJJ/hX9RVFAXP5dD4M8RDg6Dqf8A4CSf4UHwb4iUZOhakB72kn+Ff1F0UBc/lz/4Q7xCf+YHqX/gJJ/hR/wh3iD/AKAepf8AgLJ/hX9RlFAXP5ch4O8QMcDQ9SJ9Pskn+FDeDvECddD1IfW1k/wr+o2igLn8uX/CIeIP+gJqP/gLJ/hR/wAIhr//AEA9R/8AAWT/AAr+o2igLn8uf/CHeIT/AMwLUv8AwEk/wpf+EN8Rf9ALUv8AwEk/wr+ouigLn8un/CGeIv8AoA6n/wCAkn+FH/CGeIv+gDqf/gJJ/hX9RdFAXP5df+EL8R/9AHU//AST/Cj/AIQrxJ/0ANT/APAOT/Cv6iqKAufy6/8ACE+JP+gBqn/gHJ/hSf8ACD+JP+gBqn/gHJ/hX9RdFAj+XT/hB/En/QA1T/wDk/wo/wCEH8Sf9ADVP/AOT/Cv6i6KAP5dP+EI8Sf9ADVP/AOT/Cj/AIQjxJ/0ANT/APAOT/Cv6i6KAP5dP+EI8Sf9AHU//AOT/Cj/AIQjxJ/0AdT/APAST/Cv6i6KAP5dP+EI8Sf9AHU//AST/Cj/AIQjxJ/0AdT/APAST/Cv6i6KAP5dP+EI8R/9AHU//AST/Cj/AIQnxH/0AdT/APAST/Cv6i6KAP5dP+EJ8R/9AHU//AST/Cj/AIQnxH/0AdT/APAST/Cv6i6KAP5dP+EJ8R/9AHU//AST/Cj/AIQnxH/0AdT/APAST/Cv6i6KAP5c/wDhCfEf/QC1P/wEk/wo/wCEJ8R/9ALU/wDwEk/wr+oyigD+XP8A4QnxH/0AtT/8BJP8KP8AhCfEf/QC1P8A8BJP8K/qMooA/lz/AOEJ8R/9ALU//AST/Cj/AIQnxH/0AtT/APAST/Cv6jKKAP5c/wDhCfEf/QC1P/wEk/wo/wCEJ8R/9ALU/wDwEk/wr+oyigD+XP8A4QnxH/0AtT/8BJP8KP8AhCfEf/QC1P8A8BJP8K/qMooA/lz/AOEJ8R/9ALU//AST/Cj/AIQnxH/0AtT/APAST/Cv6jKKAP5c/wDhCfEf/QC1P/wEk/wo/wCEJ8R/9ALU/wDwEk/wr+oyigD+XT/hCfEf/QB1P/wEk/wpP+EJ8R/9AHU//AST/Cv6jKKAP5dP+EJ8R/8AQB1P/wABJP8ACj/hCfEf/QB1P/wEk/wr+ouigD+XT/hCfEf/AEAdT/8AAST/AAo/4QnxH/0AdT/8BJP8K/qLooA/l0/4QnxH/wBAHU//AAEk/wAKP+EI8Sf9AHU//AST/Cv6i6KAP5dP+EI8R/8AQB1P/wAA5P8ACj/hCfEf/QB1P/wDk/wr+ouigD+XT/hCfEf/AEAdT/8AAOT/AAo/4QnxH/0AdT/8A5P8K/qLooA/l0/4QnxH/wBAHU//AADk/wAKP+EJ8R/9AHU//AOT/Cv6i6KAP5dP+EJ8R/8AQB1P/wAA5P8ACj/hCfEf/QB1P/wDk/wr+ouigD+XT/hCfEf/AEAdT/8AAOT/AAo/4QnxH/0AdT/8A5P8K/qLooA/l0/4QnxH/wBAHU//AADk/wAKP+EJ8R/9AHU//AOT/Cv6i6KAP5dP+EJ8R/8AQB1P/wAA5P8ACj/hCfEf/QB1P/wDk/wr+ouigD+XT/hCfEf/AEAdT/8AAOT/AApP+EJ8R/8AQB1P/wAA5P8ACv6jKKAP5c/+EJ8R/wDQB1P/AMA5P8KP+EJ8R/8AQB1P/wAA5P8ACv6jKKAP5c/+EJ8R/wDQB1P/AMA5P8KP+EJ8R/8AQB1P/wAA5P8ACv6jKKAP5c/+EJ8R/wDQB1P/AMA5P8KP+EK8R/8AQB1P/wAA5P8ACv6jKKAP5dP+EK8R/wDQC1P/AMBJP8KP+EK8R/8AQC1P/wABJP8ACv6i6KAP5dP+EK8R/wDQC1P/AMBJP8KP+EK8R/8AQC1P/wABJP8ACv6i6KAP5dP+EK8R/wDQC1P/AMBJP8KP+EK8R/8AQC1P/wABJP8ACv6i6KAP5dP+EK8R/wDQC1P/AMBJP8KP+EK8R/8AQC1P/wABJP8ACv6i6KAP5dP+EK8R/wDQC1P/AMBJP8KP+EK8R/8AQC1P/wABJP8ACv6i6KAP5dP+EK8R/wDQC1P/AMBJP8KP+EK8R/8AQC1P/wABJP8ACv6i6KAP5dP+EK8R/wDQC1P/AMBJP8KP+EK8R/8AQC1P/wABJP8ACv6i6KAP5dP+EK8R/wDQC1P/AMBJP8KT/hCvEn/QB1P/AMBJP8K/qMooA/lz/wCEK8R/9AHU/wDwEk/wpP8AhC/Ef/QB1P8A8BJP8K/qNooA/ly/4QvxF/0AtT/8BJP8KP8AhDPEX/QC1L/wEk/wr+o2igD+XH/hDfEX/QC1L/wEk/wpf+EN8Q/9APUv/AST/Cv6jaKAP5cv+EO8QD/mB6l/4CSf4Uh8I6+Ouiaj/wCAsn+Ff1HUUAfy3N4X1uP72j36/W2cf0ph0DVv+gZef9+H/wAK/qUooA/lm/sy8WQI1ncK/wDdMZz+Vfr/AP8ABFjRdR0f4VfEQ3+nXdis+sQPE1zA0YkXyMEruHOPb1r9GqKACiiigAooooAKKKKACiiigAooooAKKKKACiiigAooooAKKKKACiiigAooooAKKKKACiiigAooooAKKKKACiiigAooooAKKKKACiiigAooooFcKKKKBXCiiigLhRRRQFwpM0UUBcM0ZoooC4ZpaKKAuFFFFAXCiiigLhRRRQFwooooC4UUUUBcKKKKAuFFFFA7hRRRQAUUUUDCiiigAooooAKKKKACiiigAooooAKKKKACiiigAooooAKKKKACiiigAooooAKKKKACiiigAooooAKKKKACiiigAooooAKKKKACiiigAooooAKKKKACiiigAooooAKKKKACiiigAooooAKKKKACiiigAooooAKKKKACiiigAooooAKKKKACiiigAooooAKKKKACiiigAooooAKKKKACiiigAooooAKKKKACiiigAooooAKKKKACiiigAooooAKKKKACiiigAooooAKKKKACiiigAooooAKKKKACiiigAooooAKKKKACiiigD//Z;" parent="1" vertex="1">
                    <mxGeometry x="-740" y="170" width="608.66" height="360" as="geometry"/>
                </mxCell>
                <mxCell id="EEyRCthQiPtqDevyJBAa-3" value="9" style="text;html=1;strokeColor=none;fillColor=none;align=center;verticalAlign=middle;whiteSpace=wrap;rounded=0;fontSize=20;labelBackgroundColor=default;fontColor=#FF8000;fontStyle=1" parent="1" vertex="1">
                    <mxGeometry x="-428" y="290" width="30" height="40" as="geometry"/>
                </mxCell>
                <mxCell id="EEyRCthQiPtqDevyJBAa-5" value="15" style="text;html=1;strokeColor=none;fillColor=none;align=center;verticalAlign=middle;whiteSpace=wrap;rounded=0;fontSize=20;labelBackgroundColor=default;fontColor=#FF8000;fontStyle=1" parent="1" vertex="1">
                    <mxGeometry x="-550" y="270" width="30" height="40" as="geometry"/>
                </mxCell>
                <mxCell id="EEyRCthQiPtqDevyJBAa-6" value="2" style="text;html=1;strokeColor=none;fillColor=none;align=center;verticalAlign=middle;whiteSpace=wrap;rounded=0;fontSize=20;labelBackgroundColor=default;fontColor=#FF8000;fontStyle=1" parent="1" vertex="1">
                    <mxGeometry x="-550" y="230" width="30" height="40" as="geometry"/>
                </mxCell>
                <mxCell id="EEyRCthQiPtqDevyJBAa-7" value="0" style="text;html=1;strokeColor=none;fillColor=none;align=center;verticalAlign=middle;whiteSpace=wrap;rounded=0;fontSize=20;labelBackgroundColor=default;fontColor=#FF8000;fontStyle=1" parent="1" vertex="1">
                    <mxGeometry x="-550" y="360" width="30" height="40" as="geometry"/>
                </mxCell>
                <mxCell id="EEyRCthQiPtqDevyJBAa-8" value="14" style="text;html=1;strokeColor=none;fillColor=none;align=center;verticalAlign=middle;whiteSpace=wrap;rounded=0;fontSize=20;labelBackgroundColor=default;fontColor=#FF8000;fontStyle=1" parent="1" vertex="1">
                    <mxGeometry x="-550" y="420" width="30" height="40" as="geometry"/>
                </mxCell>
                <mxCell id="EEyRCthQiPtqDevyJBAa-9" value="10" style="text;html=1;strokeColor=none;fillColor=none;align=center;verticalAlign=middle;whiteSpace=wrap;rounded=0;fontSize=20;labelBackgroundColor=default;fontColor=#FF8000;fontStyle=1" parent="1" vertex="1">
                    <mxGeometry x="-330" y="410" width="40" height="40" as="geometry"/>
                </mxCell>
                <mxCell id="EEyRCthQiPtqDevyJBAa-10" value="12" style="text;html=1;strokeColor=none;fillColor=none;align=center;verticalAlign=middle;whiteSpace=wrap;rounded=0;fontSize=20;labelBackgroundColor=default;fontColor=#FF8000;fontStyle=1" parent="1" vertex="1">
                    <mxGeometry x="-330" y="230" width="30" height="40" as="geometry"/>
                </mxCell>
                <mxCell id="EEyRCthQiPtqDevyJBAa-12" value="8" style="text;html=1;strokeColor=none;fillColor=none;align=center;verticalAlign=middle;whiteSpace=wrap;rounded=0;fontSize=20;labelBackgroundColor=default;fontColor=#FF8000;fontStyle=1" parent="1" vertex="1">
                    <mxGeometry x="-428" y="340" width="30" height="40" as="geometry"/>
                </mxCell>
                <mxCell id="EEyRCthQiPtqDevyJBAa-14" value="7" style="text;html=1;strokeColor=none;fillColor=none;align=center;verticalAlign=middle;whiteSpace=wrap;rounded=0;fontSize=20;labelBackgroundColor=default;fontColor=#FF8000;fontStyle=1" parent="1" vertex="1">
                    <mxGeometry x="-440" y="190" width="30" height="40" as="geometry"/>
                </mxCell>
                <mxCell id="EEyRCthQiPtqDevyJBAa-15" value="4" style="text;html=1;strokeColor=none;fillColor=none;align=center;verticalAlign=middle;whiteSpace=wrap;rounded=0;fontSize=20;fontColor=#FF3333;fontStyle=1" parent="1" vertex="1">
                    <mxGeometry x="-375" y="220" width="30" height="40" as="geometry"/>
                </mxCell>
                <mxCell id="EEyRCthQiPtqDevyJBAa-16" value="1" style="text;html=1;strokeColor=none;fillColor=none;align=center;verticalAlign=middle;whiteSpace=wrap;rounded=0;fontSize=20;fontColor=#FF3333;fontStyle=1" parent="1" vertex="1">
                    <mxGeometry x="-375" y="360" width="30" height="40" as="geometry"/>
                </mxCell>
                <mxCell id="EEyRCthQiPtqDevyJBAa-17" value="0" style="text;html=1;strokeColor=none;fillColor=none;align=center;verticalAlign=middle;whiteSpace=wrap;rounded=0;fontSize=20;fontColor=#007FFF;fontStyle=1" parent="1" vertex="1">
                    <mxGeometry x="-615" y="230" width="30" height="40" as="geometry"/>
                </mxCell>
                <mxCell id="EEyRCthQiPtqDevyJBAa-18" value="1" style="text;html=1;strokeColor=none;fillColor=none;align=center;verticalAlign=middle;whiteSpace=wrap;rounded=0;fontSize=20;fontColor=#007FFF;fontStyle=1" parent="1" vertex="1">
                    <mxGeometry x="-670" y="270" width="30" height="40" as="geometry"/>
                </mxCell>
                <mxCell id="EEyRCthQiPtqDevyJBAa-19" value="2" style="text;html=1;strokeColor=none;fillColor=none;align=center;verticalAlign=middle;whiteSpace=wrap;rounded=0;fontSize=20;fontColor=#007FFF;fontStyle=1" parent="1" vertex="1">
                    <mxGeometry x="-670" y="320" width="30" height="40" as="geometry"/>
                </mxCell>
                <mxCell id="EEyRCthQiPtqDevyJBAa-20" value="3" style="text;html=1;strokeColor=none;fillColor=none;align=center;verticalAlign=middle;whiteSpace=wrap;rounded=0;fontSize=20;fontColor=#007FFF;fontStyle=1" parent="1" vertex="1">
                    <mxGeometry x="-458" y="320" width="30" height="40" as="geometry"/>
                </mxCell>
                <mxCell id="EEyRCthQiPtqDevyJBAa-21" value="4" style="text;html=1;strokeColor=none;fillColor=none;align=center;verticalAlign=middle;whiteSpace=wrap;rounded=0;fontSize=20;fontColor=#007FFF;fontStyle=1" parent="1" vertex="1">
                    <mxGeometry x="-310" y="310" width="30" height="40" as="geometry"/>
                </mxCell>
                <mxCell id="EEyRCthQiPtqDevyJBAa-22" value="&lt;div style=&quot;text-align: left; font-size: 20px;&quot;&gt;&lt;span style=&quot;background-color: initial;&quot;&gt;&lt;font color=&quot;#ff8000&quot; style=&quot;font-size: 20px;&quot;&gt;0 - 引脚&lt;/font&gt;&lt;/span&gt;&lt;/div&gt;&lt;div style=&quot;text-align: left; font-size: 20px;&quot;&gt;&lt;span style=&quot;background-color: initial;&quot;&gt;&lt;font color=&quot;#ff3333&quot; style=&quot;font-size: 20px;&quot;&gt;0 - Node&lt;/font&gt;&lt;/span&gt;&lt;/div&gt;&lt;div style=&quot;text-align: left; font-size: 20px;&quot;&gt;&lt;span style=&quot;background-color: initial;&quot;&gt;&lt;font color=&quot;#007fff&quot; style=&quot;font-size: 20px;&quot;&gt;0 - Net&lt;/font&gt;&lt;/span&gt;&lt;/div&gt;" style="text;html=1;strokeColor=none;fillColor=none;align=center;verticalAlign=middle;whiteSpace=wrap;rounded=0;fontStyle=1" parent="1" vertex="1">
                    <mxGeometry x="-215" y="155" width="100" height="90" as="geometry"/>
                </mxCell>
                <mxCell id="EEyRCthQiPtqDevyJBAa-25" value="2" style="text;html=1;strokeColor=none;fillColor=none;align=center;verticalAlign=middle;whiteSpace=wrap;rounded=0;fontSize=20;fontColor=#007FFF;fontStyle=1" parent="1" vertex="1">
                    <mxGeometry x="-470" y="180" width="30" height="40" as="geometry"/>
                </mxCell>
                <mxCell id="EEyRCthQiPtqDevyJBAa-27" value="5" style="text;html=1;strokeColor=none;fillColor=none;align=center;verticalAlign=middle;whiteSpace=wrap;rounded=0;fontSize=20;fontColor=#007FFF;fontStyle=1" parent="1" vertex="1">
                    <mxGeometry x="-600" y="300" width="30" height="40" as="geometry"/>
                </mxCell>
                <mxCell id="EEyRCthQiPtqDevyJBAa-28" value="0" style="text;html=1;strokeColor=none;fillColor=none;align=center;verticalAlign=middle;whiteSpace=wrap;rounded=0;fontSize=20;fontColor=#FF3333;fontStyle=1" parent="1" vertex="1">
                    <mxGeometry x="-620" y="290" width="30" height="40" as="geometry"/>
                </mxCell>
                <mxCell id="2" value="" style="rounded=0;whiteSpace=wrap;html=1;" parent="1" vertex="1">
                    <mxGeometry x="-810" y="230" width="80" height="120" as="geometry"/>
                </mxCell>
                <mxCell id="EEyRCthQiPtqDevyJBAa-2" value="1" style="text;html=1;strokeColor=none;fillColor=none;align=center;verticalAlign=middle;whiteSpace=wrap;rounded=0;fontSize=20;labelBackgroundColor=default;fontColor=#FF8000;fontStyle=1" parent="1" vertex="1">
                    <mxGeometry x="-760" y="230" width="30" height="40" as="geometry"/>
                </mxCell>
                <mxCell id="EEyRCthQiPtqDevyJBAa-4" value="4" style="text;html=1;strokeColor=none;fillColor=none;align=center;verticalAlign=middle;whiteSpace=wrap;rounded=0;fontSize=20;labelBackgroundColor=default;fontColor=#FF8000;fontStyle=1" parent="1" vertex="1">
                    <mxGeometry x="-760" y="260" width="30" height="40" as="geometry"/>
                </mxCell>
                <mxCell id="3" value="" style="rounded=0;whiteSpace=wrap;html=1;" parent="1" vertex="1">
                    <mxGeometry x="-170" y="295" width="90" height="90" as="geometry"/>
                </mxCell>
                <mxCell id="EEyRCthQiPtqDevyJBAa-11" value="11" style="text;html=1;strokeColor=none;fillColor=none;align=center;verticalAlign=middle;whiteSpace=wrap;rounded=0;fontSize=20;labelBackgroundColor=default;fontColor=#FF8000;fontStyle=1" parent="1" vertex="1">
                    <mxGeometry x="-181.34" y="320" width="50" height="40" as="geometry"/>
                </mxCell>
                <mxCell id="4" value="3" style="text;html=1;strokeColor=none;fillColor=none;align=center;verticalAlign=middle;whiteSpace=wrap;rounded=0;fontSize=20;fontColor=#FF3333;fontStyle=1" parent="1" vertex="1">
                    <mxGeometry x="-140" y="320" width="30" height="40" as="geometry"/>
                </mxCell>
                <mxCell id="5" value="2" style="text;html=1;strokeColor=none;fillColor=none;align=center;verticalAlign=middle;whiteSpace=wrap;rounded=0;fontSize=20;fontColor=#FF3333;fontStyle=1" parent="1" vertex="1">
                    <mxGeometry x="-790" y="270" width="30" height="40" as="geometry"/>
                </mxCell>
                <mxCell id="6" value="6" style="text;html=1;strokeColor=none;fillColor=none;align=center;verticalAlign=middle;whiteSpace=wrap;rounded=0;fontSize=20;labelBackgroundColor=default;fontColor=#FF8000;fontStyle=1" parent="1" vertex="1">
                    <mxGeometry x="-765" y="310" width="40" height="40" as="geometry"/>
                </mxCell>
                <mxCell id="7" value="13" style="text;html=1;strokeColor=none;fillColor=none;align=center;verticalAlign=middle;whiteSpace=wrap;rounded=0;fontSize=20;labelBackgroundColor=default;fontColor=#FF8000;fontStyle=1" vertex="1" parent="1">
                    <mxGeometry x="-600" y="260" width="30" height="40" as="geometry"/>
                </mxCell>
                <mxCell id="8" value="3" style="text;html=1;strokeColor=none;fillColor=none;align=center;verticalAlign=middle;whiteSpace=wrap;rounded=0;fontSize=20;labelBackgroundColor=default;fontColor=#FF8000;fontStyle=1" vertex="1" parent="1">
                    <mxGeometry x="-645" y="255" width="30" height="40" as="geometry"/>
                </mxCell>
                <mxCell id="9" value="5" style="text;html=1;strokeColor=none;fillColor=none;align=center;verticalAlign=middle;whiteSpace=wrap;rounded=0;fontSize=20;labelBackgroundColor=default;fontColor=#FF8000;fontStyle=1" vertex="1" parent="1">
                    <mxGeometry x="-645" y="280" width="30" height="40" as="geometry"/>
                </mxCell>
            </root>
        </mxGraphModel>
    </diagram>
</mxfile>